<?xml version="1.0" encoding="UTF-8" standalone="no"?>
<!DOCTYPE svg PUBLIC "-//W3C//DTD SVG 1.1//EN"
 "http://www.w3.org/Graphics/SVG/1.1/DTD/svg11.dtd">
<!-- Generated by graphviz version 2.47.1 (20210418.0311)
 -->
<!-- Title: snakemake_dag Pages: 1 -->
<svg width="3772pt" height="620pt"
 viewBox="0.00 0.00 3772.37 620.00" xmlns="http://www.w3.org/2000/svg" xmlns:xlink="http://www.w3.org/1999/xlink">
<g id="graph0" class="graph" transform="scale(1 1) rotate(0) translate(4 616)">
<title>snakemake_dag</title>
<polygon fill="white" stroke="transparent" points="-4,4 -4,-616 3768.37,-616 3768.37,4 -4,4"/>
<!-- 0 -->
<g id="node1" class="node">
<title>0</title>
<path fill="none" stroke="#56d863" stroke-width="2" d="M1879.87,-36C1879.87,-36 1849.87,-36 1849.87,-36 1843.87,-36 1837.87,-30 1837.87,-24 1837.87,-24 1837.87,-12 1837.87,-12 1837.87,-6 1843.87,0 1849.87,0 1849.87,0 1879.87,0 1879.87,0 1885.87,0 1891.87,-6 1891.87,-12 1891.87,-12 1891.87,-24 1891.87,-24 1891.87,-30 1885.87,-36 1879.87,-36"/>
<text text-anchor="middle" x="1864.87" y="-15.5" font-family="sans" font-size="10.00">all</text>
</g>
<!-- 1 -->
<g id="node2" class="node">
<title>1</title>
<path fill="none" stroke="#d85656" stroke-width="2" d="M1895.87,-108C1895.87,-108 1833.87,-108 1833.87,-108 1827.87,-108 1821.87,-102 1821.87,-96 1821.87,-96 1821.87,-84 1821.87,-84 1821.87,-78 1827.87,-72 1833.87,-72 1833.87,-72 1895.87,-72 1895.87,-72 1901.87,-72 1907.87,-78 1907.87,-84 1907.87,-84 1907.87,-96 1907.87,-96 1907.87,-102 1901.87,-108 1895.87,-108"/>
<text text-anchor="middle" x="1864.87" y="-87.5" font-family="sans" font-size="10.00">collect_output</text>
</g>
<!-- 1&#45;&gt;0 -->
<g id="edge1" class="edge">
<title>1&#45;&gt;0</title>
<path fill="none" stroke="grey" stroke-width="2" d="M1864.87,-71.7C1864.87,-63.98 1864.87,-54.71 1864.87,-46.11"/>
<polygon fill="grey" stroke="grey" stroke-width="2" points="1868.37,-46.1 1864.87,-36.1 1861.37,-46.1 1868.37,-46.1"/>
</g>
<!-- 2 -->
<g id="node3" class="node">
<title>2</title>
<path fill="none" stroke="#56d8a2" stroke-width="2" stroke-dasharray="5,2" d="M460.87,-396C460.87,-396 430.87,-396 430.87,-396 424.87,-396 418.87,-390 418.87,-384 418.87,-384 418.87,-372 418.87,-372 418.87,-366 424.87,-360 430.87,-360 430.87,-360 460.87,-360 460.87,-360 466.87,-360 472.87,-366 472.87,-372 472.87,-372 472.87,-384 472.87,-384 472.87,-390 466.87,-396 460.87,-396"/>
<text text-anchor="middle" x="445.87" y="-375.5" font-family="sans" font-size="10.00">umap</text>
</g>
<!-- 2&#45;&gt;1 -->
<g id="edge2" class="edge">
<title>2&#45;&gt;1</title>
<path fill="none" stroke="grey" stroke-width="2" d="M418.62,-376.33C308.49,-372.72 -92.55,-350.28 19.87,-216 136.67,-76.49 241.96,-163.39 422.87,-144 699.94,-114.3 1584.44,-96.2 1811.39,-91.96"/>
<polygon fill="grey" stroke="grey" stroke-width="2" points="1811.77,-95.46 1821.7,-91.77 1811.64,-88.46 1811.77,-95.46"/>
</g>
<!-- 3 -->
<g id="node4" class="node">
<title>3</title>
<path fill="none" stroke="#d8b456" stroke-width="2" stroke-dasharray="5,2" d="M1423.37,-612C1423.37,-612 1332.37,-612 1332.37,-612 1326.37,-612 1320.37,-606 1320.37,-600 1320.37,-600 1320.37,-588 1320.37,-588 1320.37,-582 1326.37,-576 1332.37,-576 1332.37,-576 1423.37,-576 1423.37,-576 1429.37,-576 1435.37,-582 1435.37,-588 1435.37,-588 1435.37,-600 1435.37,-600 1435.37,-606 1429.37,-612 1423.37,-612"/>
<text text-anchor="middle" x="1377.87" y="-591.5" font-family="sans" font-size="10.00">merge_gene_counts</text>
</g>
<!-- 3&#45;&gt;2 -->
<g id="edge9" class="edge">
<title>3&#45;&gt;2</title>
<path fill="none" stroke="grey" stroke-width="2" d="M1320.27,-579.77C1145.85,-539.72 626.57,-420.49 483.01,-387.53"/>
<polygon fill="grey" stroke="grey" stroke-width="2" points="483.48,-384.04 472.95,-385.22 481.91,-390.87 483.48,-384.04"/>
</g>
<!-- 5 -->
<g id="node6" class="node">
<title>5</title>
<path fill="none" stroke="#56b1d8" stroke-width="2" stroke-dasharray="5,2" d="M1891.37,-540C1891.37,-540 1838.37,-540 1838.37,-540 1832.37,-540 1826.37,-534 1826.37,-528 1826.37,-528 1826.37,-516 1826.37,-516 1826.37,-510 1832.37,-504 1838.37,-504 1838.37,-504 1891.37,-504 1891.37,-504 1897.37,-504 1903.37,-510 1903.37,-516 1903.37,-516 1903.37,-528 1903.37,-528 1903.37,-534 1897.37,-540 1891.37,-540"/>
<text text-anchor="middle" x="1864.87" y="-519.5" font-family="sans" font-size="10.00">filter_counts</text>
</g>
<!-- 3&#45;&gt;5 -->
<g id="edge11" class="edge">
<title>3&#45;&gt;5</title>
<path fill="none" stroke="grey" stroke-width="2" d="M1435.65,-584.7C1532.45,-570.78 1725.66,-543.01 1816.08,-530.01"/>
<polygon fill="grey" stroke="grey" stroke-width="2" points="1816.67,-533.46 1826.07,-528.58 1815.67,-526.54 1816.67,-533.46"/>
</g>
<!-- 4 -->
<g id="node5" class="node">
<title>4</title>
<path fill="none" stroke="#d8d356" stroke-width="2" stroke-dasharray="5,2" d="M3752.37,-180C3752.37,-180 3673.37,-180 3673.37,-180 3667.37,-180 3661.37,-174 3661.37,-168 3661.37,-168 3661.37,-156 3661.37,-156 3661.37,-150 3667.37,-144 3673.37,-144 3673.37,-144 3752.37,-144 3752.37,-144 3758.37,-144 3764.37,-150 3764.37,-156 3764.37,-156 3764.37,-168 3764.37,-168 3764.37,-174 3758.37,-180 3752.37,-180"/>
<text text-anchor="middle" x="3712.87" y="-159.5" font-family="sans" font-size="10.00">umap_sizefactors</text>
</g>
<!-- 4&#45;&gt;1 -->
<g id="edge3" class="edge">
<title>4&#45;&gt;1</title>
<path fill="none" stroke="grey" stroke-width="2" d="M3661.14,-145.67C3658.02,-145.03 3654.91,-144.46 3651.87,-144 3305.13,-91.34 2177.96,-90.35 1918.48,-90.84"/>
<polygon fill="grey" stroke="grey" stroke-width="2" points="1918.19,-87.34 1908.2,-90.86 1918.2,-94.34 1918.19,-87.34"/>
</g>
<!-- 5&#45;&gt;4 -->
<g id="edge10" class="edge">
<title>5&#45;&gt;4</title>
<path fill="none" stroke="grey" stroke-width="2" d="M1903.53,-520.06C2165.99,-513.41 3675.87,-471.15 3675.87,-379 3675.87,-379 3675.87,-379 3675.87,-305 3675.87,-263.71 3690.7,-217.77 3701.59,-189.63"/>
<polygon fill="grey" stroke="grey" stroke-width="2" points="3704.93,-190.7 3705.38,-180.11 3698.43,-188.11 3704.93,-190.7"/>
</g>
<!-- 8 -->
<g id="node9" class="node">
<title>8</title>
<path fill="none" stroke="#d87556" stroke-width="2" stroke-dasharray="5,2" d="M1910.87,-468C1910.87,-468 1818.87,-468 1818.87,-468 1812.87,-468 1806.87,-462 1806.87,-456 1806.87,-456 1806.87,-444 1806.87,-444 1806.87,-438 1812.87,-432 1818.87,-432 1818.87,-432 1910.87,-432 1910.87,-432 1916.87,-432 1922.87,-438 1922.87,-444 1922.87,-444 1922.87,-456 1922.87,-456 1922.87,-462 1916.87,-468 1910.87,-468"/>
<text text-anchor="middle" x="1864.87" y="-447.5" font-family="sans" font-size="10.00">outrider_dim_search</text>
</g>
<!-- 5&#45;&gt;8 -->
<g id="edge14" class="edge">
<title>5&#45;&gt;8</title>
<path fill="none" stroke="grey" stroke-width="2" d="M1864.87,-503.7C1864.87,-495.98 1864.87,-486.71 1864.87,-478.11"/>
<polygon fill="grey" stroke="grey" stroke-width="2" points="1868.37,-478.1 1864.87,-468.1 1861.37,-478.1 1868.37,-478.1"/>
</g>
<!-- 6 -->
<g id="node7" class="node">
<title>6</title>
<path fill="none" stroke="#5673d8" stroke-width="2" d="M3630.87,-180C3630.87,-180 3570.87,-180 3570.87,-180 3564.87,-180 3558.87,-174 3558.87,-168 3558.87,-168 3558.87,-156 3558.87,-156 3558.87,-150 3564.87,-144 3570.87,-144 3570.87,-144 3630.87,-144 3630.87,-144 3636.87,-144 3642.87,-150 3642.87,-156 3642.87,-156 3642.87,-168 3642.87,-168 3642.87,-174 3636.87,-180 3630.87,-180"/>
<text text-anchor="middle" x="3600.87" y="-159.5" font-family="sans" font-size="10.00">outrider_plots</text>
</g>
<!-- 6&#45;&gt;1 -->
<g id="edge4" class="edge">
<title>6&#45;&gt;1</title>
<path fill="none" stroke="grey" stroke-width="2" d="M3558.65,-146.9C3554.04,-145.75 3549.38,-144.74 3544.87,-144 3220.92,-90.68 2168.49,-90.15 1918.5,-90.8"/>
<polygon fill="grey" stroke="grey" stroke-width="2" points="1918.22,-87.3 1908.23,-90.83 1918.24,-94.3 1918.22,-87.3"/>
</g>
<!-- 7 -->
<g id="node8" class="node">
<title>7</title>
<path fill="none" stroke="#56d0d8" stroke-width="2" d="M1880.37,-396C1880.37,-396 1849.37,-396 1849.37,-396 1843.37,-396 1837.37,-390 1837.37,-384 1837.37,-384 1837.37,-372 1837.37,-372 1837.37,-366 1843.37,-360 1849.37,-360 1849.37,-360 1880.37,-360 1880.37,-360 1886.37,-360 1892.37,-366 1892.37,-372 1892.37,-372 1892.37,-384 1892.37,-384 1892.37,-390 1886.37,-396 1880.37,-396"/>
<text text-anchor="middle" x="1864.87" y="-375.5" font-family="sans" font-size="10.00">outrider</text>
</g>
<!-- 7&#45;&gt;6 -->
<g id="edge12" class="edge">
<title>7&#45;&gt;6</title>
<path fill="none" stroke="grey" stroke-width="2" d="M1892.57,-376.97C2104.63,-376.67 3464.57,-372.79 3534.87,-324 3579.03,-293.35 3593.69,-227.53 3598.52,-190.23"/>
<polygon fill="grey" stroke="grey" stroke-width="2" points="3602.02,-190.42 3599.68,-180.08 3595.07,-189.62 3602.02,-190.42"/>
</g>
<!-- 9 -->
<g id="node10" class="node">
<title>9</title>
<path fill="none" stroke="#88d856" stroke-width="2" d="M1759.87,-324C1759.87,-324 1695.87,-324 1695.87,-324 1689.87,-324 1683.87,-318 1683.87,-312 1683.87,-312 1683.87,-300 1683.87,-300 1683.87,-294 1689.87,-288 1695.87,-288 1695.87,-288 1759.87,-288 1759.87,-288 1765.87,-288 1771.87,-294 1771.87,-300 1771.87,-300 1771.87,-312 1771.87,-312 1771.87,-318 1765.87,-324 1759.87,-324"/>
<text text-anchor="middle" x="1727.87" y="-303.5" font-family="sans" font-size="10.00">outliers_genes</text>
</g>
<!-- 7&#45;&gt;9 -->
<g id="edge15" class="edge">
<title>7&#45;&gt;9</title>
<path fill="none" stroke="grey" stroke-width="2" d="M1837.15,-362.83C1817.99,-353.05 1792.15,-339.84 1770.4,-328.73"/>
<polygon fill="grey" stroke="grey" stroke-width="2" points="1771.86,-325.55 1761.36,-324.11 1768.68,-331.78 1771.86,-325.55"/>
</g>
<!-- 10 -->
<g id="node11" class="node">
<title>10</title>
<path fill="none" stroke="#5692d8" stroke-width="2" d="M126.87,-252C126.87,-252 40.87,-252 40.87,-252 34.87,-252 28.87,-246 28.87,-240 28.87,-240 28.87,-228 28.87,-228 28.87,-222 34.87,-216 40.87,-216 40.87,-216 126.87,-216 126.87,-216 132.87,-216 138.87,-222 138.87,-228 138.87,-228 138.87,-240 138.87,-240 138.87,-246 132.87,-252 126.87,-252"/>
<text text-anchor="middle" x="83.87" y="-231.5" font-family="sans" font-size="10.00">compare_literature</text>
</g>
<!-- 7&#45;&gt;10 -->
<g id="edge18" class="edge">
<title>7&#45;&gt;10</title>
<path fill="none" stroke="grey" stroke-width="2" d="M1837.07,-376.64C1615.07,-373.69 137.64,-353.01 102.87,-324 85.29,-309.33 81.52,-282.74 81.57,-262.43"/>
<polygon fill="grey" stroke="grey" stroke-width="2" points="85.07,-262.3 81.9,-252.2 78.08,-262.08 85.07,-262.3"/>
</g>
<!-- 13 -->
<g id="node14" class="node">
<title>13</title>
<path fill="none" stroke="#9fd856" stroke-width="2" d="M564.87,-252C564.87,-252 460.87,-252 460.87,-252 454.87,-252 448.87,-246 448.87,-240 448.87,-240 448.87,-228 448.87,-228 448.87,-222 454.87,-216 460.87,-216 460.87,-216 564.87,-216 564.87,-216 570.87,-216 576.87,-222 576.87,-228 576.87,-228 576.87,-240 576.87,-240 576.87,-246 570.87,-252 564.87,-252"/>
<text text-anchor="middle" x="512.87" y="-237" font-family="sans" font-size="10.00">prioritize_vep_variants</text>
<text text-anchor="middle" x="512.87" y="-226" font-family="sans" font-size="10.00">chrom: chr1</text>
</g>
<!-- 7&#45;&gt;13 -->
<g id="edge42" class="edge">
<title>7&#45;&gt;13</title>
<path fill="none" stroke="grey" stroke-width="2" d="M1837.23,-376.74C1726.16,-375.39 1301.71,-367.53 955.87,-324 824.72,-307.49 674.29,-274.16 586.78,-253.3"/>
<polygon fill="grey" stroke="grey" stroke-width="2" points="587.49,-249.87 576.95,-250.94 585.86,-256.67 587.49,-249.87"/>
</g>
<!-- 14 -->
<g id="node15" class="node">
<title>14</title>
<path fill="none" stroke="#9fd856" stroke-width="2" d="M710.87,-252C710.87,-252 606.87,-252 606.87,-252 600.87,-252 594.87,-246 594.87,-240 594.87,-240 594.87,-228 594.87,-228 594.87,-222 600.87,-216 606.87,-216 606.87,-216 710.87,-216 710.87,-216 716.87,-216 722.87,-222 722.87,-228 722.87,-228 722.87,-240 722.87,-240 722.87,-246 716.87,-252 710.87,-252"/>
<text text-anchor="middle" x="658.87" y="-237" font-family="sans" font-size="10.00">prioritize_vep_variants</text>
<text text-anchor="middle" x="658.87" y="-226" font-family="sans" font-size="10.00">chrom: chr2</text>
</g>
<!-- 7&#45;&gt;14 -->
<g id="edge44" class="edge">
<title>7&#45;&gt;14</title>
<path fill="none" stroke="grey" stroke-width="2" d="M1837.11,-377.08C1735.96,-376.98 1377.85,-372.94 1087.87,-324 1027.91,-313.88 1015.31,-300.84 955.87,-288 860.39,-267.37 832.54,-271.18 732.79,-252.1"/>
<polygon fill="grey" stroke="grey" stroke-width="2" points="733.39,-248.65 722.91,-250.18 732.06,-255.52 733.39,-248.65"/>
</g>
<!-- 15 -->
<g id="node16" class="node">
<title>15</title>
<path fill="none" stroke="#9fd856" stroke-width="2" d="M856.87,-252C856.87,-252 752.87,-252 752.87,-252 746.87,-252 740.87,-246 740.87,-240 740.87,-240 740.87,-228 740.87,-228 740.87,-222 746.87,-216 752.87,-216 752.87,-216 856.87,-216 856.87,-216 862.87,-216 868.87,-222 868.87,-228 868.87,-228 868.87,-240 868.87,-240 868.87,-246 862.87,-252 856.87,-252"/>
<text text-anchor="middle" x="804.87" y="-237" font-family="sans" font-size="10.00">prioritize_vep_variants</text>
<text text-anchor="middle" x="804.87" y="-226" font-family="sans" font-size="10.00">chrom: chr3</text>
</g>
<!-- 7&#45;&gt;15 -->
<g id="edge46" class="edge">
<title>7&#45;&gt;15</title>
<path fill="none" stroke="grey" stroke-width="2" d="M1837.24,-376.08C1724.92,-372.14 1302.39,-355.49 1172.87,-324 1133.01,-314.31 1127.24,-299.54 1087.87,-288 1000.02,-262.24 972.51,-270.16 878.81,-252.1"/>
<polygon fill="grey" stroke="grey" stroke-width="2" points="879.41,-248.65 868.92,-250.14 878.05,-255.51 879.41,-248.65"/>
</g>
<!-- 16 -->
<g id="node17" class="node">
<title>16</title>
<path fill="none" stroke="#9fd856" stroke-width="2" d="M1002.87,-252C1002.87,-252 898.87,-252 898.87,-252 892.87,-252 886.87,-246 886.87,-240 886.87,-240 886.87,-228 886.87,-228 886.87,-222 892.87,-216 898.87,-216 898.87,-216 1002.87,-216 1002.87,-216 1008.87,-216 1014.87,-222 1014.87,-228 1014.87,-228 1014.87,-240 1014.87,-240 1014.87,-246 1008.87,-252 1002.87,-252"/>
<text text-anchor="middle" x="950.87" y="-237" font-family="sans" font-size="10.00">prioritize_vep_variants</text>
<text text-anchor="middle" x="950.87" y="-226" font-family="sans" font-size="10.00">chrom: chr4</text>
</g>
<!-- 7&#45;&gt;16 -->
<g id="edge48" class="edge">
<title>7&#45;&gt;16</title>
<path fill="none" stroke="grey" stroke-width="2" d="M1837.36,-375.98C1732.85,-371.89 1360.67,-355.39 1246.87,-324 1211.61,-314.27 1207.31,-300.32 1172.87,-288 1165.68,-285.43 1086.56,-266.71 1024.8,-252.24"/>
<polygon fill="grey" stroke="grey" stroke-width="2" points="1025.58,-248.83 1015.05,-249.96 1023.99,-255.65 1025.58,-248.83"/>
</g>
<!-- 17 -->
<g id="node18" class="node">
<title>17</title>
<path fill="none" stroke="#9fd856" stroke-width="2" d="M1148.87,-252C1148.87,-252 1044.87,-252 1044.87,-252 1038.87,-252 1032.87,-246 1032.87,-240 1032.87,-240 1032.87,-228 1032.87,-228 1032.87,-222 1038.87,-216 1044.87,-216 1044.87,-216 1148.87,-216 1148.87,-216 1154.87,-216 1160.87,-222 1160.87,-228 1160.87,-228 1160.87,-240 1160.87,-240 1160.87,-246 1154.87,-252 1148.87,-252"/>
<text text-anchor="middle" x="1096.87" y="-237" font-family="sans" font-size="10.00">prioritize_vep_variants</text>
<text text-anchor="middle" x="1096.87" y="-226" font-family="sans" font-size="10.00">chrom: chr5</text>
</g>
<!-- 7&#45;&gt;17 -->
<g id="edge50" class="edge">
<title>7&#45;&gt;17</title>
<path fill="none" stroke="grey" stroke-width="2" d="M1837.31,-375.77C1763.47,-372.08 1555.25,-359.12 1385.87,-324 1303.02,-306.82 1209.94,-275.99 1152.35,-255.51"/>
<polygon fill="grey" stroke="grey" stroke-width="2" points="1153.31,-252.14 1142.72,-252.07 1150.95,-258.73 1153.31,-252.14"/>
</g>
<!-- 18 -->
<g id="node19" class="node">
<title>18</title>
<path fill="none" stroke="#9fd856" stroke-width="2" d="M1294.87,-252C1294.87,-252 1190.87,-252 1190.87,-252 1184.87,-252 1178.87,-246 1178.87,-240 1178.87,-240 1178.87,-228 1178.87,-228 1178.87,-222 1184.87,-216 1190.87,-216 1190.87,-216 1294.87,-216 1294.87,-216 1300.87,-216 1306.87,-222 1306.87,-228 1306.87,-228 1306.87,-240 1306.87,-240 1306.87,-246 1300.87,-252 1294.87,-252"/>
<text text-anchor="middle" x="1242.87" y="-237" font-family="sans" font-size="10.00">prioritize_vep_variants</text>
<text text-anchor="middle" x="1242.87" y="-226" font-family="sans" font-size="10.00">chrom: chr6</text>
</g>
<!-- 7&#45;&gt;18 -->
<g id="edge52" class="edge">
<title>7&#45;&gt;18</title>
<path fill="none" stroke="grey" stroke-width="2" d="M1837.15,-374.59C1776.58,-368.97 1628.13,-353.17 1506.87,-324 1431.83,-305.95 1347.77,-275.82 1295.09,-255.69"/>
<polygon fill="grey" stroke="grey" stroke-width="2" points="1296.21,-252.37 1285.62,-252.05 1293.7,-258.9 1296.21,-252.37"/>
</g>
<!-- 19 -->
<g id="node20" class="node">
<title>19</title>
<path fill="none" stroke="#9fd856" stroke-width="2" d="M1440.87,-252C1440.87,-252 1336.87,-252 1336.87,-252 1330.87,-252 1324.87,-246 1324.87,-240 1324.87,-240 1324.87,-228 1324.87,-228 1324.87,-222 1330.87,-216 1336.87,-216 1336.87,-216 1440.87,-216 1440.87,-216 1446.87,-216 1452.87,-222 1452.87,-228 1452.87,-228 1452.87,-240 1452.87,-240 1452.87,-246 1446.87,-252 1440.87,-252"/>
<text text-anchor="middle" x="1388.87" y="-237" font-family="sans" font-size="10.00">prioritize_vep_variants</text>
<text text-anchor="middle" x="1388.87" y="-226" font-family="sans" font-size="10.00">chrom: chr7</text>
</g>
<!-- 7&#45;&gt;19 -->
<g id="edge54" class="edge">
<title>7&#45;&gt;19</title>
<path fill="none" stroke="grey" stroke-width="2" d="M1837.07,-372.98C1789.48,-365.71 1689.61,-348.81 1607.87,-324 1546.22,-305.29 1477.83,-276.06 1434.15,-256.25"/>
<polygon fill="grey" stroke="grey" stroke-width="2" points="1435.49,-253.01 1424.94,-252.05 1432.59,-259.38 1435.49,-253.01"/>
</g>
<!-- 20 -->
<g id="node21" class="node">
<title>20</title>
<path fill="none" stroke="#9fd856" stroke-width="2" d="M1586.87,-252C1586.87,-252 1482.87,-252 1482.87,-252 1476.87,-252 1470.87,-246 1470.87,-240 1470.87,-240 1470.87,-228 1470.87,-228 1470.87,-222 1476.87,-216 1482.87,-216 1482.87,-216 1586.87,-216 1586.87,-216 1592.87,-216 1598.87,-222 1598.87,-228 1598.87,-228 1598.87,-240 1598.87,-240 1598.87,-246 1592.87,-252 1586.87,-252"/>
<text text-anchor="middle" x="1534.87" y="-237" font-family="sans" font-size="10.00">prioritize_vep_variants</text>
<text text-anchor="middle" x="1534.87" y="-226" font-family="sans" font-size="10.00">chrom: chr8</text>
</g>
<!-- 7&#45;&gt;20 -->
<g id="edge56" class="edge">
<title>7&#45;&gt;20</title>
<path fill="none" stroke="grey" stroke-width="2" d="M1837.25,-371.96C1799.48,-364.47 1730.08,-348.6 1674.87,-324 1634.99,-306.23 1593.25,-278.3 1565.84,-258.47"/>
<polygon fill="grey" stroke="grey" stroke-width="2" points="1567.6,-255.42 1557.46,-252.34 1563.46,-261.07 1567.6,-255.42"/>
</g>
<!-- 21 -->
<g id="node22" class="node">
<title>21</title>
<path fill="none" stroke="#9fd856" stroke-width="2" d="M1770.87,-252C1770.87,-252 1666.87,-252 1666.87,-252 1660.87,-252 1654.87,-246 1654.87,-240 1654.87,-240 1654.87,-228 1654.87,-228 1654.87,-222 1660.87,-216 1666.87,-216 1666.87,-216 1770.87,-216 1770.87,-216 1776.87,-216 1782.87,-222 1782.87,-228 1782.87,-228 1782.87,-240 1782.87,-240 1782.87,-246 1776.87,-252 1770.87,-252"/>
<text text-anchor="middle" x="1718.87" y="-237" font-family="sans" font-size="10.00">prioritize_vep_variants</text>
<text text-anchor="middle" x="1718.87" y="-226" font-family="sans" font-size="10.00">chrom: chr9</text>
</g>
<!-- 7&#45;&gt;21 -->
<g id="edge58" class="edge">
<title>7&#45;&gt;21</title>
<path fill="none" stroke="grey" stroke-width="2" d="M1849.6,-359.75C1833.15,-341.43 1805.95,-311.88 1780.87,-288 1770.41,-278.04 1758.44,-267.6 1747.83,-258.65"/>
<polygon fill="grey" stroke="grey" stroke-width="2" points="1749.94,-255.86 1740.02,-252.13 1745.45,-261.23 1749.94,-255.86"/>
</g>
<!-- 22 -->
<g id="node23" class="node">
<title>22</title>
<path fill="none" stroke="#9fd856" stroke-width="2" d="M1916.87,-252C1916.87,-252 1812.87,-252 1812.87,-252 1806.87,-252 1800.87,-246 1800.87,-240 1800.87,-240 1800.87,-228 1800.87,-228 1800.87,-222 1806.87,-216 1812.87,-216 1812.87,-216 1916.87,-216 1916.87,-216 1922.87,-216 1928.87,-222 1928.87,-228 1928.87,-228 1928.87,-240 1928.87,-240 1928.87,-246 1922.87,-252 1916.87,-252"/>
<text text-anchor="middle" x="1864.87" y="-237" font-family="sans" font-size="10.00">prioritize_vep_variants</text>
<text text-anchor="middle" x="1864.87" y="-226" font-family="sans" font-size="10.00">chrom: chr10</text>
</g>
<!-- 7&#45;&gt;22 -->
<g id="edge60" class="edge">
<title>7&#45;&gt;22</title>
<path fill="none" stroke="grey" stroke-width="2" d="M1864.87,-359.87C1864.87,-335.67 1864.87,-291.21 1864.87,-262.39"/>
<polygon fill="grey" stroke="grey" stroke-width="2" points="1868.37,-262.19 1864.87,-252.19 1861.37,-262.19 1868.37,-262.19"/>
</g>
<!-- 23 -->
<g id="node24" class="node">
<title>23</title>
<path fill="none" stroke="#9fd856" stroke-width="2" d="M2062.87,-252C2062.87,-252 1958.87,-252 1958.87,-252 1952.87,-252 1946.87,-246 1946.87,-240 1946.87,-240 1946.87,-228 1946.87,-228 1946.87,-222 1952.87,-216 1958.87,-216 1958.87,-216 2062.87,-216 2062.87,-216 2068.87,-216 2074.87,-222 2074.87,-228 2074.87,-228 2074.87,-240 2074.87,-240 2074.87,-246 2068.87,-252 2062.87,-252"/>
<text text-anchor="middle" x="2010.87" y="-237" font-family="sans" font-size="10.00">prioritize_vep_variants</text>
<text text-anchor="middle" x="2010.87" y="-226" font-family="sans" font-size="10.00">chrom: chr11</text>
</g>
<!-- 7&#45;&gt;23 -->
<g id="edge62" class="edge">
<title>7&#45;&gt;23</title>
<path fill="none" stroke="grey" stroke-width="2" d="M1882.48,-359.87C1908.24,-334.82 1956.32,-288.05 1985.78,-259.41"/>
<polygon fill="grey" stroke="grey" stroke-width="2" points="1988.47,-261.67 1993.2,-252.19 1983.59,-256.65 1988.47,-261.67"/>
</g>
<!-- 24 -->
<g id="node25" class="node">
<title>24</title>
<path fill="none" stroke="#9fd856" stroke-width="2" d="M2208.87,-252C2208.87,-252 2104.87,-252 2104.87,-252 2098.87,-252 2092.87,-246 2092.87,-240 2092.87,-240 2092.87,-228 2092.87,-228 2092.87,-222 2098.87,-216 2104.87,-216 2104.87,-216 2208.87,-216 2208.87,-216 2214.87,-216 2220.87,-222 2220.87,-228 2220.87,-228 2220.87,-240 2220.87,-240 2220.87,-246 2214.87,-252 2208.87,-252"/>
<text text-anchor="middle" x="2156.87" y="-237" font-family="sans" font-size="10.00">prioritize_vep_variants</text>
<text text-anchor="middle" x="2156.87" y="-226" font-family="sans" font-size="10.00">chrom: chr12</text>
</g>
<!-- 7&#45;&gt;24 -->
<g id="edge64" class="edge">
<title>7&#45;&gt;24</title>
<path fill="none" stroke="grey" stroke-width="2" d="M1892.6,-363.51C1943.38,-338.82 2051.67,-286.16 2112.69,-256.48"/>
<polygon fill="grey" stroke="grey" stroke-width="2" points="2114.24,-259.62 2121.7,-252.1 2111.18,-253.33 2114.24,-259.62"/>
</g>
<!-- 25 -->
<g id="node26" class="node">
<title>25</title>
<path fill="none" stroke="#9fd856" stroke-width="2" d="M2354.87,-252C2354.87,-252 2250.87,-252 2250.87,-252 2244.87,-252 2238.87,-246 2238.87,-240 2238.87,-240 2238.87,-228 2238.87,-228 2238.87,-222 2244.87,-216 2250.87,-216 2250.87,-216 2354.87,-216 2354.87,-216 2360.87,-216 2366.87,-222 2366.87,-228 2366.87,-228 2366.87,-240 2366.87,-240 2366.87,-246 2360.87,-252 2354.87,-252"/>
<text text-anchor="middle" x="2302.87" y="-237" font-family="sans" font-size="10.00">prioritize_vep_variants</text>
<text text-anchor="middle" x="2302.87" y="-226" font-family="sans" font-size="10.00">chrom: chr13</text>
</g>
<!-- 7&#45;&gt;25 -->
<g id="edge66" class="edge">
<title>7&#45;&gt;25</title>
<path fill="none" stroke="grey" stroke-width="2" d="M1892.6,-368.01C1961.87,-345.55 2143.82,-286.56 2240.46,-255.23"/>
<polygon fill="grey" stroke="grey" stroke-width="2" points="2241.68,-258.52 2250.11,-252.1 2239.52,-251.86 2241.68,-258.52"/>
</g>
<!-- 26 -->
<g id="node27" class="node">
<title>26</title>
<path fill="none" stroke="#9fd856" stroke-width="2" d="M2500.87,-252C2500.87,-252 2396.87,-252 2396.87,-252 2390.87,-252 2384.87,-246 2384.87,-240 2384.87,-240 2384.87,-228 2384.87,-228 2384.87,-222 2390.87,-216 2396.87,-216 2396.87,-216 2500.87,-216 2500.87,-216 2506.87,-216 2512.87,-222 2512.87,-228 2512.87,-228 2512.87,-240 2512.87,-240 2512.87,-246 2506.87,-252 2500.87,-252"/>
<text text-anchor="middle" x="2448.87" y="-237" font-family="sans" font-size="10.00">prioritize_vep_variants</text>
<text text-anchor="middle" x="2448.87" y="-226" font-family="sans" font-size="10.00">chrom: chr14</text>
</g>
<!-- 7&#45;&gt;26 -->
<g id="edge68" class="edge">
<title>7&#45;&gt;26</title>
<path fill="none" stroke="grey" stroke-width="2" d="M1892.54,-370.94C1936.23,-361.31 2023.86,-341.8 2097.87,-324 2193.76,-300.94 2303.93,-272.72 2374.87,-254.33"/>
<polygon fill="grey" stroke="grey" stroke-width="2" points="2375.82,-257.7 2384.62,-251.8 2374.06,-250.92 2375.82,-257.7"/>
</g>
<!-- 27 -->
<g id="node28" class="node">
<title>27</title>
<path fill="none" stroke="#9fd856" stroke-width="2" d="M2646.87,-252C2646.87,-252 2542.87,-252 2542.87,-252 2536.87,-252 2530.87,-246 2530.87,-240 2530.87,-240 2530.87,-228 2530.87,-228 2530.87,-222 2536.87,-216 2542.87,-216 2542.87,-216 2646.87,-216 2646.87,-216 2652.87,-216 2658.87,-222 2658.87,-228 2658.87,-228 2658.87,-240 2658.87,-240 2658.87,-246 2652.87,-252 2646.87,-252"/>
<text text-anchor="middle" x="2594.87" y="-237" font-family="sans" font-size="10.00">prioritize_vep_variants</text>
<text text-anchor="middle" x="2594.87" y="-226" font-family="sans" font-size="10.00">chrom: chr15</text>
</g>
<!-- 7&#45;&gt;27 -->
<g id="edge70" class="edge">
<title>7&#45;&gt;27</title>
<path fill="none" stroke="grey" stroke-width="2" d="M1892.68,-372.81C1948.18,-364.36 2076.59,-344.33 2183.87,-324 2331.54,-296.02 2370.31,-285.86 2520.72,-252.24"/>
<polygon fill="grey" stroke="grey" stroke-width="2" points="2521.8,-255.59 2530.79,-249.99 2520.27,-248.76 2521.8,-255.59"/>
</g>
<!-- 28 -->
<g id="node29" class="node">
<title>28</title>
<path fill="none" stroke="#9fd856" stroke-width="2" d="M2792.87,-252C2792.87,-252 2688.87,-252 2688.87,-252 2682.87,-252 2676.87,-246 2676.87,-240 2676.87,-240 2676.87,-228 2676.87,-228 2676.87,-222 2682.87,-216 2688.87,-216 2688.87,-216 2792.87,-216 2792.87,-216 2798.87,-216 2804.87,-222 2804.87,-228 2804.87,-228 2804.87,-240 2804.87,-240 2804.87,-246 2798.87,-252 2792.87,-252"/>
<text text-anchor="middle" x="2740.87" y="-237" font-family="sans" font-size="10.00">prioritize_vep_variants</text>
<text text-anchor="middle" x="2740.87" y="-226" font-family="sans" font-size="10.00">chrom: chr16</text>
</g>
<!-- 7&#45;&gt;28 -->
<g id="edge72" class="edge">
<title>7&#45;&gt;28</title>
<path fill="none" stroke="grey" stroke-width="2" d="M1892.47,-374.1C1959.75,-366.9 2137.48,-347.13 2284.87,-324 2452.81,-297.64 2496.76,-288.01 2667.02,-252.14"/>
<polygon fill="grey" stroke="grey" stroke-width="2" points="2667.75,-255.57 2676.81,-250.08 2666.3,-248.72 2667.75,-255.57"/>
</g>
<!-- 29 -->
<g id="node30" class="node">
<title>29</title>
<path fill="none" stroke="#9fd856" stroke-width="2" d="M2938.87,-252C2938.87,-252 2834.87,-252 2834.87,-252 2828.87,-252 2822.87,-246 2822.87,-240 2822.87,-240 2822.87,-228 2822.87,-228 2822.87,-222 2828.87,-216 2834.87,-216 2834.87,-216 2938.87,-216 2938.87,-216 2944.87,-216 2950.87,-222 2950.87,-228 2950.87,-228 2950.87,-240 2950.87,-240 2950.87,-246 2944.87,-252 2938.87,-252"/>
<text text-anchor="middle" x="2886.87" y="-237" font-family="sans" font-size="10.00">prioritize_vep_variants</text>
<text text-anchor="middle" x="2886.87" y="-226" font-family="sans" font-size="10.00">chrom: chr17</text>
</g>
<!-- 7&#45;&gt;29 -->
<g id="edge74" class="edge">
<title>7&#45;&gt;29</title>
<path fill="none" stroke="grey" stroke-width="2" d="M1892.57,-374.99C1971.95,-369.07 2207,-350.45 2400.87,-324 2582.24,-299.26 2629.63,-289.49 2812.85,-252.16"/>
<polygon fill="grey" stroke="grey" stroke-width="2" points="2813.72,-255.56 2822.82,-250.13 2812.32,-248.7 2813.72,-255.56"/>
</g>
<!-- 30 -->
<g id="node31" class="node">
<title>30</title>
<path fill="none" stroke="#9fd856" stroke-width="2" d="M3084.87,-252C3084.87,-252 2980.87,-252 2980.87,-252 2974.87,-252 2968.87,-246 2968.87,-240 2968.87,-240 2968.87,-228 2968.87,-228 2968.87,-222 2974.87,-216 2980.87,-216 2980.87,-216 3084.87,-216 3084.87,-216 3090.87,-216 3096.87,-222 3096.87,-228 3096.87,-228 3096.87,-240 3096.87,-240 3096.87,-246 3090.87,-252 3084.87,-252"/>
<text text-anchor="middle" x="3032.87" y="-237" font-family="sans" font-size="10.00">prioritize_vep_variants</text>
<text text-anchor="middle" x="3032.87" y="-226" font-family="sans" font-size="10.00">chrom: chr18</text>
</g>
<!-- 7&#45;&gt;30 -->
<g id="edge76" class="edge">
<title>7&#45;&gt;30</title>
<path fill="none" stroke="grey" stroke-width="2" d="M1892.43,-375.64C1983.4,-370.98 2282.33,-354.22 2527.87,-324 2717.85,-300.62 2767.35,-290.43 2959,-252.12"/>
<polygon fill="grey" stroke="grey" stroke-width="2" points="2959.71,-255.55 2968.83,-250.16 2958.33,-248.69 2959.71,-255.55"/>
</g>
<!-- 31 -->
<g id="node32" class="node">
<title>31</title>
<path fill="none" stroke="#9fd856" stroke-width="2" d="M3230.87,-252C3230.87,-252 3126.87,-252 3126.87,-252 3120.87,-252 3114.87,-246 3114.87,-240 3114.87,-240 3114.87,-228 3114.87,-228 3114.87,-222 3120.87,-216 3126.87,-216 3126.87,-216 3230.87,-216 3230.87,-216 3236.87,-216 3242.87,-222 3242.87,-228 3242.87,-228 3242.87,-240 3242.87,-240 3242.87,-246 3236.87,-252 3230.87,-252"/>
<text text-anchor="middle" x="3178.87" y="-237" font-family="sans" font-size="10.00">prioritize_vep_variants</text>
<text text-anchor="middle" x="3178.87" y="-226" font-family="sans" font-size="10.00">chrom: chr19</text>
</g>
<!-- 7&#45;&gt;31 -->
<g id="edge78" class="edge">
<title>7&#45;&gt;31</title>
<path fill="none" stroke="grey" stroke-width="2" d="M1892.56,-376.12C1995.08,-372.66 2362.77,-358.43 2663.87,-324 2858.33,-301.76 2908.95,-290.95 3104.79,-252.16"/>
<polygon fill="grey" stroke="grey" stroke-width="2" points="3105.7,-255.55 3114.83,-250.17 3104.34,-248.68 3105.7,-255.55"/>
</g>
<!-- 32 -->
<g id="node33" class="node">
<title>32</title>
<path fill="none" stroke="#9fd856" stroke-width="2" d="M3376.87,-252C3376.87,-252 3272.87,-252 3272.87,-252 3266.87,-252 3260.87,-246 3260.87,-240 3260.87,-240 3260.87,-228 3260.87,-228 3260.87,-222 3266.87,-216 3272.87,-216 3272.87,-216 3376.87,-216 3376.87,-216 3382.87,-216 3388.87,-222 3388.87,-228 3388.87,-228 3388.87,-240 3388.87,-240 3388.87,-246 3382.87,-252 3376.87,-252"/>
<text text-anchor="middle" x="3324.87" y="-237" font-family="sans" font-size="10.00">prioritize_vep_variants</text>
<text text-anchor="middle" x="3324.87" y="-226" font-family="sans" font-size="10.00">chrom: chr20</text>
</g>
<!-- 7&#45;&gt;32 -->
<g id="edge80" class="edge">
<title>7&#45;&gt;32</title>
<path fill="none" stroke="grey" stroke-width="2" d="M1892.58,-376.47C2005.83,-374.1 2444.49,-362.76 2802.87,-324 3000.57,-302.62 3051.91,-291.31 3250.93,-252.13"/>
<polygon fill="grey" stroke="grey" stroke-width="2" points="3251.69,-255.54 3260.83,-250.18 3250.34,-248.68 3251.69,-255.54"/>
</g>
<!-- 33 -->
<g id="node34" class="node">
<title>33</title>
<path fill="none" stroke="#9fd856" stroke-width="2" d="M3522.87,-252C3522.87,-252 3418.87,-252 3418.87,-252 3412.87,-252 3406.87,-246 3406.87,-240 3406.87,-240 3406.87,-228 3406.87,-228 3406.87,-222 3412.87,-216 3418.87,-216 3418.87,-216 3522.87,-216 3522.87,-216 3528.87,-216 3534.87,-222 3534.87,-228 3534.87,-228 3534.87,-240 3534.87,-240 3534.87,-246 3528.87,-252 3522.87,-252"/>
<text text-anchor="middle" x="3470.87" y="-237" font-family="sans" font-size="10.00">prioritize_vep_variants</text>
<text text-anchor="middle" x="3470.87" y="-226" font-family="sans" font-size="10.00">chrom: chr21</text>
</g>
<!-- 7&#45;&gt;33 -->
<g id="edge82" class="edge">
<title>7&#45;&gt;33</title>
<path fill="none" stroke="grey" stroke-width="2" d="M1892.47,-376.74C2015.58,-375.36 2526.92,-367.17 2943.87,-324 3143.81,-303.3 3195.71,-291.57 3396.83,-252.15"/>
<polygon fill="grey" stroke="grey" stroke-width="2" points="3397.69,-255.54 3406.83,-250.19 3396.35,-248.67 3397.69,-255.54"/>
</g>
<!-- 34 -->
<g id="node35" class="node">
<title>34</title>
<path fill="none" stroke="#9fd856" stroke-width="2" d="M272.87,-252C272.87,-252 168.87,-252 168.87,-252 162.87,-252 156.87,-246 156.87,-240 156.87,-240 156.87,-228 156.87,-228 156.87,-222 162.87,-216 168.87,-216 168.87,-216 272.87,-216 272.87,-216 278.87,-216 284.87,-222 284.87,-228 284.87,-228 284.87,-240 284.87,-240 284.87,-246 278.87,-252 272.87,-252"/>
<text text-anchor="middle" x="220.87" y="-237" font-family="sans" font-size="10.00">prioritize_vep_variants</text>
<text text-anchor="middle" x="220.87" y="-226" font-family="sans" font-size="10.00">chrom: chr22</text>
</g>
<!-- 7&#45;&gt;34 -->
<g id="edge84" class="edge">
<title>7&#45;&gt;34</title>
<path fill="none" stroke="grey" stroke-width="2" d="M1837.19,-376.68C1672.7,-374.62 822,-362.3 563.87,-324 463.53,-309.11 350.15,-276.48 282.15,-255.14"/>
<polygon fill="grey" stroke="grey" stroke-width="2" points="283.05,-251.75 272.46,-252.07 280.94,-258.42 283.05,-251.75"/>
</g>
<!-- 35 -->
<g id="node36" class="node">
<title>35</title>
<path fill="none" stroke="#9fd856" stroke-width="2" d="M418.87,-252C418.87,-252 314.87,-252 314.87,-252 308.87,-252 302.87,-246 302.87,-240 302.87,-240 302.87,-228 302.87,-228 302.87,-222 308.87,-216 314.87,-216 314.87,-216 418.87,-216 418.87,-216 424.87,-216 430.87,-222 430.87,-228 430.87,-228 430.87,-240 430.87,-240 430.87,-246 424.87,-252 418.87,-252"/>
<text text-anchor="middle" x="366.87" y="-237" font-family="sans" font-size="10.00">prioritize_vep_variants</text>
<text text-anchor="middle" x="366.87" y="-226" font-family="sans" font-size="10.00">chrom: chrX</text>
</g>
<!-- 7&#45;&gt;35 -->
<g id="edge86" class="edge">
<title>7&#45;&gt;35</title>
<path fill="none" stroke="grey" stroke-width="2" d="M1837,-376.38C1686.06,-372.9 965.36,-354.91 744.87,-324 634.65,-308.55 509.39,-276.01 434.32,-254.86"/>
<polygon fill="grey" stroke="grey" stroke-width="2" points="435.1,-251.44 424.52,-252.08 433.19,-258.17 435.1,-251.44"/>
</g>
<!-- 36 -->
<g id="node37" class="node">
<title>36</title>
<path fill="none" stroke="#bed856" stroke-width="2" d="M3513.87,-324C3513.87,-324 3435.87,-324 3435.87,-324 3429.87,-324 3423.87,-318 3423.87,-312 3423.87,-312 3423.87,-300 3423.87,-300 3423.87,-294 3429.87,-288 3435.87,-288 3435.87,-288 3513.87,-288 3513.87,-288 3519.87,-288 3525.87,-294 3525.87,-300 3525.87,-300 3525.87,-312 3525.87,-312 3525.87,-318 3519.87,-324 3513.87,-324"/>
<text text-anchor="middle" x="3474.87" y="-303.5" font-family="sans" font-size="10.00">network_analysis</text>
</g>
<!-- 7&#45;&gt;36 -->
<g id="edge88" class="edge">
<title>7&#45;&gt;36</title>
<path fill="none" stroke="grey" stroke-width="2" d="M1892.59,-376.72C2039.64,-375.07 2743.22,-365.28 3316.87,-324 3348.87,-321.7 3384.4,-317.98 3413.65,-314.61"/>
<polygon fill="grey" stroke="grey" stroke-width="2" points="3414.19,-318.07 3423.72,-313.43 3413.38,-311.11 3414.19,-318.07"/>
</g>
<!-- 8&#45;&gt;7 -->
<g id="edge13" class="edge">
<title>8&#45;&gt;7</title>
<path fill="none" stroke="grey" stroke-width="2" d="M1864.87,-431.7C1864.87,-423.98 1864.87,-414.71 1864.87,-406.11"/>
<polygon fill="grey" stroke="grey" stroke-width="2" points="1868.37,-406.1 1864.87,-396.1 1861.37,-406.1 1868.37,-406.1"/>
</g>
<!-- 9&#45;&gt;1 -->
<g id="edge5" class="edge">
<title>9&#45;&gt;1</title>
<path fill="none" stroke="grey" stroke-width="2" d="M1685.25,-287.99C1670,-279.58 1654.46,-267.78 1645.87,-252 1638.22,-237.95 1637.84,-229.84 1645.87,-216 1681.39,-154.83 1759.32,-121.08 1811.97,-104.5"/>
<polygon fill="grey" stroke="grey" stroke-width="2" points="1813.27,-107.77 1821.82,-101.51 1811.23,-101.07 1813.27,-107.77"/>
</g>
<!-- 9&#45;&gt;10 -->
<g id="edge17" class="edge">
<title>9&#45;&gt;10</title>
<path fill="none" stroke="grey" stroke-width="2" d="M1683.87,-304.87C1463.39,-304 476.74,-297.66 149.18,-251.95"/>
<polygon fill="grey" stroke="grey" stroke-width="2" points="149.61,-248.48 139.21,-250.52 148.61,-255.41 149.61,-248.48"/>
</g>
<!-- 9&#45;&gt;13 -->
<g id="edge43" class="edge">
<title>9&#45;&gt;13</title>
<path fill="none" stroke="grey" stroke-width="2" d="M1683.72,-304.03C1503.74,-299.9 824.17,-282.7 587.5,-252.04"/>
<polygon fill="grey" stroke="grey" stroke-width="2" points="587.61,-248.52 577.24,-250.66 586.68,-255.46 587.61,-248.52"/>
</g>
<!-- 9&#45;&gt;14 -->
<g id="edge45" class="edge">
<title>9&#45;&gt;14</title>
<path fill="none" stroke="grey" stroke-width="2" d="M1683.42,-305.41C1544.27,-306.09 1104.66,-303.81 733.38,-252.06"/>
<polygon fill="grey" stroke="grey" stroke-width="2" points="733.63,-248.57 723.24,-250.64 732.66,-255.5 733.63,-248.57"/>
</g>
<!-- 9&#45;&gt;15 -->
<g id="edge47" class="edge">
<title>9&#45;&gt;15</title>
<path fill="none" stroke="grey" stroke-width="2" d="M1683.81,-304.83C1558.93,-303.81 1191.99,-297.02 879.41,-252.08"/>
<polygon fill="grey" stroke="grey" stroke-width="2" points="879.65,-248.58 869.25,-250.6 878.64,-255.51 879.65,-248.58"/>
</g>
<!-- 9&#45;&gt;16 -->
<g id="edge49" class="edge">
<title>9&#45;&gt;16</title>
<path fill="none" stroke="grey" stroke-width="2" d="M1683.53,-304.02C1573.53,-301.1 1279.23,-290.19 1025.4,-252.1"/>
<polygon fill="grey" stroke="grey" stroke-width="2" points="1025.67,-248.6 1015.25,-250.56 1024.61,-255.52 1025.67,-248.6"/>
</g>
<!-- 9&#45;&gt;17 -->
<g id="edge51" class="edge">
<title>9&#45;&gt;17</title>
<path fill="none" stroke="grey" stroke-width="2" d="M1683.85,-302.83C1590.83,-297.81 1367.37,-283.48 1171.18,-252.09"/>
<polygon fill="grey" stroke="grey" stroke-width="2" points="1171.69,-248.63 1161.26,-250.49 1170.58,-255.54 1171.69,-248.63"/>
</g>
<!-- 9&#45;&gt;18 -->
<g id="edge53" class="edge">
<title>9&#45;&gt;18</title>
<path fill="none" stroke="grey" stroke-width="2" d="M1683.75,-300.8C1609.87,-293.45 1456.36,-276.8 1316.9,-252.09"/>
<polygon fill="grey" stroke="grey" stroke-width="2" points="1317.35,-248.61 1306.89,-250.29 1316.12,-255.5 1317.35,-248.61"/>
</g>
<!-- 9&#45;&gt;19 -->
<g id="edge55" class="edge">
<title>9&#45;&gt;19</title>
<path fill="none" stroke="grey" stroke-width="2" d="M1683.54,-296.62C1632.68,-286.9 1546.53,-270.14 1462.86,-252.18"/>
<polygon fill="grey" stroke="grey" stroke-width="2" points="1463.45,-248.73 1452.94,-250.04 1461.98,-255.57 1463.45,-248.73"/>
</g>
<!-- 9&#45;&gt;20 -->
<g id="edge57" class="edge">
<title>9&#45;&gt;20</title>
<path fill="none" stroke="grey" stroke-width="2" d="M1683.59,-288.94C1656.3,-279.04 1621.02,-266.25 1591.68,-255.6"/>
<polygon fill="grey" stroke="grey" stroke-width="2" points="1592.57,-252.2 1581.97,-252.08 1590.18,-258.78 1592.57,-252.2"/>
</g>
<!-- 9&#45;&gt;21 -->
<g id="edge59" class="edge">
<title>9&#45;&gt;21</title>
<path fill="none" stroke="grey" stroke-width="2" d="M1725.65,-287.7C1724.65,-279.98 1723.46,-270.71 1722.36,-262.11"/>
<polygon fill="grey" stroke="grey" stroke-width="2" points="1725.82,-261.58 1721.07,-252.1 1718.87,-262.47 1725.82,-261.58"/>
</g>
<!-- 9&#45;&gt;22 -->
<g id="edge61" class="edge">
<title>9&#45;&gt;22</title>
<path fill="none" stroke="grey" stroke-width="2" d="M1761.38,-287.88C1779.71,-278.51 1802.61,-266.81 1822.2,-256.8"/>
<polygon fill="grey" stroke="grey" stroke-width="2" points="1823.92,-259.86 1831.23,-252.19 1820.73,-253.62 1823.92,-259.86"/>
</g>
<!-- 9&#45;&gt;23 -->
<g id="edge63" class="edge">
<title>9&#45;&gt;23</title>
<path fill="none" stroke="grey" stroke-width="2" d="M1772.09,-294.06C1816.12,-283.17 1884.51,-266.25 1936.84,-253.31"/>
<polygon fill="grey" stroke="grey" stroke-width="2" points="1937.87,-256.66 1946.74,-250.86 1936.19,-249.87 1937.87,-256.66"/>
</g>
<!-- 9&#45;&gt;24 -->
<g id="edge65" class="edge">
<title>9&#45;&gt;24</title>
<path fill="none" stroke="grey" stroke-width="2" d="M1771.91,-299.61C1837.51,-291.33 1964.94,-274.25 2082.91,-252.1"/>
<polygon fill="grey" stroke="grey" stroke-width="2" points="2083.67,-255.52 2092.84,-250.22 2082.36,-248.64 2083.67,-255.52"/>
</g>
<!-- 9&#45;&gt;25 -->
<g id="edge67" class="edge">
<title>9&#45;&gt;25</title>
<path fill="none" stroke="grey" stroke-width="2" d="M1772.1,-302.18C1858.23,-296.28 2054.54,-280.88 2229,-252.03"/>
<polygon fill="grey" stroke="grey" stroke-width="2" points="2229.58,-255.48 2238.87,-250.38 2228.43,-248.57 2229.58,-255.48"/>
</g>
<!-- 9&#45;&gt;26 -->
<g id="edge69" class="edge">
<title>9&#45;&gt;26</title>
<path fill="none" stroke="grey" stroke-width="2" d="M1772.13,-303.62C1875.89,-299.92 2142.9,-287.6 2374.53,-252.08"/>
<polygon fill="grey" stroke="grey" stroke-width="2" points="2375.14,-255.53 2384.48,-250.54 2374.07,-248.61 2375.14,-255.53"/>
</g>
<!-- 9&#45;&gt;27 -->
<g id="edge71" class="edge">
<title>9&#45;&gt;27</title>
<path fill="none" stroke="grey" stroke-width="2" d="M1772.04,-304.56C1891.37,-302.83 2230.26,-294.4 2520.2,-252.11"/>
<polygon fill="grey" stroke="grey" stroke-width="2" points="2521.11,-255.51 2530.49,-250.59 2520.09,-248.59 2521.11,-255.51"/>
</g>
<!-- 9&#45;&gt;28 -->
<g id="edge73" class="edge">
<title>9&#45;&gt;28</title>
<path fill="none" stroke="grey" stroke-width="2" d="M1772.19,-305.2C1906.01,-305.25 2317.73,-301.2 2666.46,-252.06"/>
<polygon fill="grey" stroke="grey" stroke-width="2" points="2667.09,-255.5 2676.5,-250.63 2666.1,-248.57 2667.09,-255.5"/>
</g>
<!-- 9&#45;&gt;29 -->
<g id="edge75" class="edge">
<title>9&#45;&gt;29</title>
<path fill="none" stroke="grey" stroke-width="2" d="M1771.93,-303.91C1946.11,-299.44 2587.58,-281.4 2812.43,-252.02"/>
<polygon fill="grey" stroke="grey" stroke-width="2" points="2813.06,-255.46 2822.5,-250.65 2812.12,-248.53 2813.06,-255.46"/>
</g>
<!-- 9&#45;&gt;30 -->
<g id="edge77" class="edge">
<title>9&#45;&gt;30</title>
<path fill="none" stroke="grey" stroke-width="2" d="M1771.9,-304.2C1960.68,-300.62 2703.29,-284.78 2958.54,-252"/>
<polygon fill="grey" stroke="grey" stroke-width="2" points="2959.05,-255.46 2968.5,-250.67 2958.13,-248.52 2959.05,-255.46"/>
</g>
<!-- 9&#45;&gt;31 -->
<g id="edge79" class="edge">
<title>9&#45;&gt;31</title>
<path fill="none" stroke="grey" stroke-width="2" d="M1772.2,-304.43C1975.3,-301.65 2818.98,-288.18 3104.58,-251.99"/>
<polygon fill="grey" stroke="grey" stroke-width="2" points="3105.05,-255.46 3114.51,-250.69 3104.14,-248.51 3105.05,-255.46"/>
</g>
<!-- 9&#45;&gt;32 -->
<g id="edge81" class="edge">
<title>9&#45;&gt;32</title>
<path fill="none" stroke="grey" stroke-width="2" d="M1772.08,-304.62C1988.02,-302.59 2934.02,-291.64 3250.43,-252"/>
<polygon fill="grey" stroke="grey" stroke-width="2" points="3251.04,-255.45 3260.51,-250.7 3250.14,-248.51 3251.04,-255.45"/>
</g>
<!-- 9&#45;&gt;33 -->
<g id="edge83" class="edge">
<title>9&#45;&gt;33</title>
<path fill="none" stroke="grey" stroke-width="2" d="M1772.05,-304.78C2000.4,-303.44 3049.39,-295.1 3396.45,-252"/>
<polygon fill="grey" stroke="grey" stroke-width="2" points="3397.03,-255.45 3406.51,-250.71 3396.15,-248.51 3397.03,-255.45"/>
</g>
<!-- 9&#45;&gt;34 -->
<g id="edge85" class="edge">
<title>9&#45;&gt;34</title>
<path fill="none" stroke="grey" stroke-width="2" d="M1683.86,-304.51C1476.33,-302.03 593.47,-289.53 295.58,-252.04"/>
<polygon fill="grey" stroke="grey" stroke-width="2" points="295.6,-248.51 285.23,-250.69 294.7,-255.45 295.6,-248.51"/>
</g>
<!-- 9&#45;&gt;35 -->
<g id="edge87" class="edge">
<title>9&#45;&gt;35</title>
<path fill="none" stroke="grey" stroke-width="2" d="M1683.84,-304.3C1489.69,-301.03 708.3,-286.09 441.28,-252"/>
<polygon fill="grey" stroke="grey" stroke-width="2" points="441.61,-248.52 431.24,-250.68 440.69,-255.46 441.61,-248.52"/>
</g>
<!-- 10&#45;&gt;1 -->
<g id="edge6" class="edge">
<title>10&#45;&gt;1</title>
<path fill="none" stroke="grey" stroke-width="2" d="M138.89,-217.69C141.91,-217.06 144.92,-216.49 147.87,-216 796.82,-107.17 1599.46,-93.08 1811.49,-91.26"/>
<polygon fill="grey" stroke="grey" stroke-width="2" points="1811.75,-94.76 1821.72,-91.18 1811.69,-87.76 1811.75,-94.76"/>
</g>
<!-- 11 -->
<g id="node12" class="node">
<title>11</title>
<path fill="none" stroke="#56d8c1" stroke-width="2" stroke-dasharray="5,2" d="M161.87,-324C161.87,-324 123.87,-324 123.87,-324 117.87,-324 111.87,-318 111.87,-312 111.87,-312 111.87,-300 111.87,-300 111.87,-294 117.87,-288 123.87,-288 123.87,-288 161.87,-288 161.87,-288 167.87,-288 173.87,-294 173.87,-300 173.87,-300 173.87,-312 173.87,-312 173.87,-318 167.87,-324 161.87,-324"/>
<text text-anchor="middle" x="142.87" y="-303.5" font-family="sans" font-size="10.00">literature</text>
</g>
<!-- 11&#45;&gt;10 -->
<g id="edge16" class="edge">
<title>11&#45;&gt;10</title>
<path fill="none" stroke="grey" stroke-width="2" d="M128.29,-287.7C121.21,-279.3 112.59,-269.07 104.83,-259.86"/>
<polygon fill="grey" stroke="grey" stroke-width="2" points="107.41,-257.49 98.29,-252.1 102.06,-262.01 107.41,-257.49"/>
</g>
<!-- 12 -->
<g id="node13" class="node">
<title>12</title>
<path fill="none" stroke="#68d856" stroke-width="2" d="M1899.37,-180C1899.37,-180 1830.37,-180 1830.37,-180 1824.37,-180 1818.37,-174 1818.37,-168 1818.37,-168 1818.37,-156 1818.37,-156 1818.37,-150 1824.37,-144 1830.37,-144 1830.37,-144 1899.37,-144 1899.37,-144 1905.37,-144 1911.37,-150 1911.37,-156 1911.37,-156 1911.37,-168 1911.37,-168 1911.37,-174 1905.37,-180 1899.37,-180"/>
<text text-anchor="middle" x="1864.87" y="-159.5" font-family="sans" font-size="10.00">merge_variants</text>
</g>
<!-- 12&#45;&gt;1 -->
<g id="edge7" class="edge">
<title>12&#45;&gt;1</title>
<path fill="none" stroke="grey" stroke-width="2" d="M1864.87,-143.7C1864.87,-135.98 1864.87,-126.71 1864.87,-118.11"/>
<polygon fill="grey" stroke="grey" stroke-width="2" points="1868.37,-118.1 1864.87,-108.1 1861.37,-118.1 1868.37,-118.1"/>
</g>
<!-- 13&#45;&gt;12 -->
<g id="edge19" class="edge">
<title>13&#45;&gt;12</title>
<path fill="none" stroke="grey" stroke-width="2" d="M577.24,-217.32C580.15,-216.83 583.03,-216.39 585.87,-216 827.18,-183.2 1592.7,-167.72 1808.03,-163.94"/>
<polygon fill="grey" stroke="grey" stroke-width="2" points="1808.22,-167.44 1818.16,-163.76 1808.1,-160.44 1808.22,-167.44"/>
</g>
<!-- 14&#45;&gt;12 -->
<g id="edge20" class="edge">
<title>14&#45;&gt;12</title>
<path fill="none" stroke="grey" stroke-width="2" d="M723.24,-217.34C726.15,-216.84 729.03,-216.39 731.87,-216 943.25,-186.69 1608.88,-169.02 1808.04,-164.29"/>
<polygon fill="grey" stroke="grey" stroke-width="2" points="1808.36,-167.78 1818.27,-164.05 1808.19,-160.78 1808.36,-167.78"/>
</g>
<!-- 15&#45;&gt;12 -->
<g id="edge21" class="edge">
<title>15&#45;&gt;12</title>
<path fill="none" stroke="grey" stroke-width="2" d="M869.24,-217.37C872.15,-216.86 875.04,-216.4 877.87,-216 1229.12,-166.06 1656.79,-162.22 1808.34,-162.59"/>
<polygon fill="grey" stroke="grey" stroke-width="2" points="1808.33,-166.09 1818.34,-162.62 1808.35,-159.09 1808.33,-166.09"/>
</g>
<!-- 16&#45;&gt;12 -->
<g id="edge22" class="edge">
<title>16&#45;&gt;12</title>
<path fill="none" stroke="grey" stroke-width="2" d="M1015.25,-217.4C1018.15,-216.89 1021.04,-216.42 1023.87,-216 1316.59,-173 1671.65,-164.86 1807.89,-163.34"/>
<polygon fill="grey" stroke="grey" stroke-width="2" points="1808.13,-166.84 1818.09,-163.23 1808.06,-159.84 1808.13,-166.84"/>
</g>
<!-- 17&#45;&gt;12 -->
<g id="edge23" class="edge">
<title>17&#45;&gt;12</title>
<path fill="none" stroke="grey" stroke-width="2" d="M1161.25,-217.44C1164.16,-216.92 1167.04,-216.43 1169.87,-216 1404.98,-179.88 1688.79,-167.98 1807.9,-164.4"/>
<polygon fill="grey" stroke="grey" stroke-width="2" points="1808.34,-167.89 1818.23,-164.1 1808.13,-160.89 1808.34,-167.89"/>
</g>
<!-- 18&#45;&gt;12 -->
<g id="edge24" class="edge">
<title>18&#45;&gt;12</title>
<path fill="none" stroke="grey" stroke-width="2" d="M1307.26,-217.52C1310.17,-216.97 1313.05,-216.46 1315.87,-216 1494.29,-186.74 1708.18,-171.81 1808.15,-165.99"/>
<polygon fill="grey" stroke="grey" stroke-width="2" points="1808.55,-169.47 1818.33,-165.41 1808.15,-162.48 1808.55,-169.47"/>
</g>
<!-- 19&#45;&gt;12 -->
<g id="edge25" class="edge">
<title>19&#45;&gt;12</title>
<path fill="none" stroke="grey" stroke-width="2" d="M1452.89,-217.72C1455.92,-217.11 1458.93,-216.54 1461.87,-216 1584.47,-193.72 1729.67,-176.96 1807.96,-168.71"/>
<polygon fill="grey" stroke="grey" stroke-width="2" points="1808.52,-172.17 1818.1,-167.65 1807.79,-165.2 1808.52,-172.17"/>
</g>
<!-- 20&#45;&gt;12 -->
<g id="edge26" class="edge">
<title>20&#45;&gt;12</title>
<path fill="none" stroke="grey" stroke-width="2" d="M1598.89,-219.42C1659.63,-206.54 1750.02,-187.36 1808.21,-175.02"/>
<polygon fill="grey" stroke="grey" stroke-width="2" points="1809.27,-178.37 1818.33,-172.87 1807.82,-171.52 1809.27,-178.37"/>
</g>
<!-- 21&#45;&gt;12 -->
<g id="edge27" class="edge">
<title>21&#45;&gt;12</title>
<path fill="none" stroke="grey" stroke-width="2" d="M1754.59,-215.88C1774.37,-206.39 1799.14,-194.51 1820.2,-184.42"/>
<polygon fill="grey" stroke="grey" stroke-width="2" points="1821.77,-187.55 1829.27,-180.07 1818.74,-181.24 1821.77,-187.55"/>
</g>
<!-- 22&#45;&gt;12 -->
<g id="edge28" class="edge">
<title>22&#45;&gt;12</title>
<path fill="none" stroke="grey" stroke-width="2" d="M1864.87,-215.7C1864.87,-207.98 1864.87,-198.71 1864.87,-190.11"/>
<polygon fill="grey" stroke="grey" stroke-width="2" points="1868.37,-190.1 1864.87,-180.1 1861.37,-190.1 1868.37,-190.1"/>
</g>
<!-- 23&#45;&gt;12 -->
<g id="edge29" class="edge">
<title>23&#45;&gt;12</title>
<path fill="none" stroke="grey" stroke-width="2" d="M1975.15,-215.88C1955.37,-206.39 1930.6,-194.51 1909.54,-184.42"/>
<polygon fill="grey" stroke="grey" stroke-width="2" points="1911,-181.24 1900.47,-180.07 1907.97,-187.55 1911,-181.24"/>
</g>
<!-- 24&#45;&gt;12 -->
<g id="edge30" class="edge">
<title>24&#45;&gt;12</title>
<path fill="none" stroke="grey" stroke-width="2" d="M2092.79,-217.64C2041.59,-205.36 1970.51,-188.33 1921.41,-176.55"/>
<polygon fill="grey" stroke="grey" stroke-width="2" points="1922.13,-173.13 1911.59,-174.2 1920.49,-179.93 1922.13,-173.13"/>
</g>
<!-- 25&#45;&gt;12 -->
<g id="edge31" class="edge">
<title>25&#45;&gt;12</title>
<path fill="none" stroke="grey" stroke-width="2" d="M2238.84,-217.77C2235.81,-217.15 2232.81,-216.55 2229.87,-216 2121.47,-195.55 1993.67,-178.62 1921.67,-169.74"/>
<polygon fill="grey" stroke="grey" stroke-width="2" points="1921.81,-166.23 1911.46,-168.48 1920.96,-173.17 1921.81,-166.23"/>
</g>
<!-- 26&#45;&gt;12 -->
<g id="edge32" class="edge">
<title>26&#45;&gt;12</title>
<path fill="none" stroke="grey" stroke-width="2" d="M2384.87,-217.62C2381.83,-217.04 2378.82,-216.49 2375.87,-216 2212.23,-188.57 2016.59,-173.02 1921.86,-166.57"/>
<polygon fill="grey" stroke="grey" stroke-width="2" points="1921.85,-163.06 1911.64,-165.88 1921.38,-170.04 1921.85,-163.06"/>
</g>
<!-- 27&#45;&gt;12 -->
<g id="edge33" class="edge">
<title>27&#45;&gt;12</title>
<path fill="none" stroke="grey" stroke-width="2" d="M2530.49,-217.46C2527.58,-216.93 2524.7,-216.44 2521.87,-216 2301.76,-181.69 2036.49,-168.91 1922.02,-164.76"/>
<polygon fill="grey" stroke="grey" stroke-width="2" points="1921.87,-161.25 1911.75,-164.4 1921.62,-168.25 1921.87,-161.25"/>
</g>
<!-- 28&#45;&gt;12 -->
<g id="edge34" class="edge">
<title>28&#45;&gt;12</title>
<path fill="none" stroke="grey" stroke-width="2" d="M2676.49,-217.41C2673.59,-216.89 2670.7,-216.42 2667.87,-216 2390.35,-174.81 2054.12,-165.63 1922.04,-163.58"/>
<polygon fill="grey" stroke="grey" stroke-width="2" points="1921.82,-160.08 1911.77,-163.43 1921.72,-167.08 1921.82,-160.08"/>
</g>
<!-- 29&#45;&gt;12 -->
<g id="edge35" class="edge">
<title>29&#45;&gt;12</title>
<path fill="none" stroke="grey" stroke-width="2" d="M2822.5,-217.37C2819.59,-216.87 2816.7,-216.41 2813.87,-216 2478.09,-167.89 2069.65,-162.87 1921.76,-162.76"/>
<polygon fill="grey" stroke="grey" stroke-width="2" points="1921.56,-159.26 1911.56,-162.76 1921.56,-166.26 1921.56,-159.26"/>
</g>
<!-- 30&#45;&gt;12 -->
<g id="edge36" class="edge">
<title>30&#45;&gt;12</title>
<path fill="none" stroke="grey" stroke-width="2" d="M2968.5,-217.35C2965.59,-216.85 2962.71,-216.4 2959.87,-216 2756.16,-187.59 2115.92,-169.37 1921.45,-164.39"/>
<polygon fill="grey" stroke="grey" stroke-width="2" points="1921.53,-160.89 1911.44,-164.13 1921.35,-167.89 1921.53,-160.89"/>
</g>
<!-- 31&#45;&gt;12 -->
<g id="edge37" class="edge">
<title>31&#45;&gt;12</title>
<path fill="none" stroke="grey" stroke-width="2" d="M3114.51,-217.33C3111.6,-216.83 3108.71,-216.39 3105.87,-216 2872.38,-184.11 2133.02,-168.04 1921.75,-164.02"/>
<polygon fill="grey" stroke="grey" stroke-width="2" points="1921.58,-160.52 1911.51,-163.83 1921.44,-167.52 1921.58,-160.52"/>
</g>
<!-- 32&#45;&gt;12 -->
<g id="edge38" class="edge">
<title>32&#45;&gt;12</title>
<path fill="none" stroke="grey" stroke-width="2" d="M3260.51,-217.31C3257.6,-216.82 3254.71,-216.38 3251.87,-216 2988.28,-180.6 2148.08,-166.84 1921.58,-163.73"/>
<polygon fill="grey" stroke="grey" stroke-width="2" points="1921.62,-160.23 1911.58,-163.59 1921.53,-167.22 1921.62,-160.23"/>
</g>
<!-- 33&#45;&gt;12 -->
<g id="edge39" class="edge">
<title>33&#45;&gt;12</title>
<path fill="none" stroke="grey" stroke-width="2" d="M3406.51,-217.3C3403.6,-216.81 3400.71,-216.38 3397.87,-216 3104.25,-177.11 2163.45,-165.79 1921.85,-163.49"/>
<polygon fill="grey" stroke="grey" stroke-width="2" points="1921.58,-159.99 1911.54,-163.39 1921.51,-166.99 1921.58,-159.99"/>
</g>
<!-- 34&#45;&gt;12 -->
<g id="edge40" class="edge">
<title>34&#45;&gt;12</title>
<path fill="none" stroke="grey" stroke-width="2" d="M285.23,-217.29C288.14,-216.81 291.03,-216.37 293.87,-216 595.43,-176.19 1563.06,-165.52 1808.07,-163.43"/>
<polygon fill="grey" stroke="grey" stroke-width="2" points="1808.21,-166.93 1818.18,-163.35 1808.15,-159.93 1808.21,-166.93"/>
</g>
<!-- 35&#45;&gt;12 -->
<g id="edge41" class="edge">
<title>35&#45;&gt;12</title>
<path fill="none" stroke="grey" stroke-width="2" d="M431.23,-217.31C434.14,-216.82 437.03,-216.38 439.87,-216 711.29,-179.69 1577.76,-166.56 1808.16,-163.66"/>
<polygon fill="grey" stroke="grey" stroke-width="2" points="1808.37,-167.16 1818.32,-163.53 1808.28,-160.16 1808.37,-167.16"/>
</g>
<!-- 36&#45;&gt;1 -->
<g id="edge8" class="edge">
<title>36&#45;&gt;1</title>
<path fill="none" stroke="grey" stroke-width="2" d="M3508.71,-287.96C3522.25,-279.22 3536.39,-267.17 3543.87,-252 3550.94,-237.65 3554.76,-227.73 3543.87,-216 3430.73,-94.12 2191.91,-90.15 1918.19,-90.77"/>
<polygon fill="grey" stroke="grey" stroke-width="2" points="1918.11,-87.27 1908.12,-90.8 1918.13,-94.27 1918.11,-87.27"/>
</g>
</g>
</svg>
