<?xml version="1.0" encoding="UTF-8" standalone="no"?>
<!DOCTYPE svg PUBLIC "-//W3C//DTD SVG 1.1//EN"
 "http://www.w3.org/Graphics/SVG/1.1/DTD/svg11.dtd">
<!-- Generated by graphviz version 2.47.1 (20210418.0311)
 -->
<!-- Title: snakemake_dag Pages: 1 -->
<svg width="3713pt" height="548pt"
 viewBox="0.00 0.00 3713.43 548.00" xmlns="http://www.w3.org/2000/svg" xmlns:xlink="http://www.w3.org/1999/xlink">
<g id="graph0" class="graph" transform="scale(1 1) rotate(0) translate(4 544)">
<title>snakemake_dag</title>
<polygon fill="white" stroke="transparent" points="-4,4 -4,-544 3709.43,-544 3709.43,4 -4,4"/>
<!-- 0 -->
<g id="node1" class="node">
<title>0</title>
<path fill="none" stroke="#afd856" stroke-width="2" d="M1872.43,-36C1872.43,-36 1842.43,-36 1842.43,-36 1836.43,-36 1830.43,-30 1830.43,-24 1830.43,-24 1830.43,-12 1830.43,-12 1830.43,-6 1836.43,0 1842.43,0 1842.43,0 1872.43,0 1872.43,0 1878.43,0 1884.43,-6 1884.43,-12 1884.43,-12 1884.43,-24 1884.43,-24 1884.43,-30 1878.43,-36 1872.43,-36"/>
<text text-anchor="middle" x="1857.43" y="-15.5" font-family="sans" font-size="10.00">all</text>
</g>
<!-- 1 -->
<g id="node2" class="node">
<title>1</title>
<path fill="none" stroke="#d87556" stroke-width="2" d="M1888.43,-108C1888.43,-108 1826.43,-108 1826.43,-108 1820.43,-108 1814.43,-102 1814.43,-96 1814.43,-96 1814.43,-84 1814.43,-84 1814.43,-78 1820.43,-72 1826.43,-72 1826.43,-72 1888.43,-72 1888.43,-72 1894.43,-72 1900.43,-78 1900.43,-84 1900.43,-84 1900.43,-96 1900.43,-96 1900.43,-102 1894.43,-108 1888.43,-108"/>
<text text-anchor="middle" x="1857.43" y="-87.5" font-family="sans" font-size="10.00">collect_output</text>
</g>
<!-- 1&#45;&gt;0 -->
<g id="edge1" class="edge">
<title>1&#45;&gt;0</title>
<path fill="none" stroke="grey" stroke-width="2" d="M1857.43,-71.7C1857.43,-63.98 1857.43,-54.71 1857.43,-46.11"/>
<polygon fill="grey" stroke="grey" stroke-width="2" points="1860.94,-46.1 1857.43,-36.1 1853.94,-46.1 1860.94,-46.1"/>
</g>
<!-- 2 -->
<g id="node3" class="node">
<title>2</title>
<path fill="none" stroke="#569ad8" stroke-width="2" stroke-dasharray="5,2" d="M973.43,-396C973.43,-396 943.43,-396 943.43,-396 937.43,-396 931.43,-390 931.43,-384 931.43,-384 931.43,-372 931.43,-372 931.43,-366 937.43,-360 943.43,-360 943.43,-360 973.43,-360 973.43,-360 979.43,-360 985.43,-366 985.43,-372 985.43,-372 985.43,-384 985.43,-384 985.43,-390 979.43,-396 973.43,-396"/>
<text text-anchor="middle" x="958.43" y="-375.5" font-family="sans" font-size="10.00">umap</text>
</g>
<!-- 2&#45;&gt;1 -->
<g id="edge2" class="edge">
<title>2&#45;&gt;1</title>
<path fill="none" stroke="grey" stroke-width="2" d="M931.35,-376.64C791.19,-374.6 151.81,-363.21 73.43,-324 24.13,-299.34 -22.95,-258.27 12.43,-216 129.23,-76.49 234.52,-163.39 415.43,-144 692.51,-114.3 1577.01,-96.2 1803.96,-91.96"/>
<polygon fill="grey" stroke="grey" stroke-width="2" points="1804.33,-95.46 1814.26,-91.77 1804.2,-88.46 1804.33,-95.46"/>
</g>
<!-- 3 -->
<g id="node4" class="node">
<title>3</title>
<path fill="none" stroke="#56c1d8" stroke-width="2" stroke-dasharray="5,2" d="M1934.93,-540C1934.93,-540 1843.93,-540 1843.93,-540 1837.93,-540 1831.93,-534 1831.93,-528 1831.93,-528 1831.93,-516 1831.93,-516 1831.93,-510 1837.93,-504 1843.93,-504 1843.93,-504 1934.93,-504 1934.93,-504 1940.93,-504 1946.93,-510 1946.93,-516 1946.93,-516 1946.93,-528 1946.93,-528 1946.93,-534 1940.93,-540 1934.93,-540"/>
<text text-anchor="middle" x="1889.43" y="-519.5" font-family="sans" font-size="10.00">merge_gene_counts</text>
</g>
<!-- 3&#45;&gt;2 -->
<g id="edge9" class="edge">
<title>3&#45;&gt;2</title>
<path fill="none" stroke="grey" stroke-width="2" d="M1831.9,-512.22C1657.66,-485.65 1138.94,-406.53 995.53,-384.66"/>
<polygon fill="grey" stroke="grey" stroke-width="2" points="995.9,-381.17 985.48,-383.13 994.84,-388.09 995.9,-381.17"/>
</g>
<!-- 5 -->
<g id="node6" class="node">
<title>5</title>
<path fill="none" stroke="#56d8a9" stroke-width="2" stroke-dasharray="5,2" d="M1952.93,-468C1952.93,-468 1899.93,-468 1899.93,-468 1893.93,-468 1887.93,-462 1887.93,-456 1887.93,-456 1887.93,-444 1887.93,-444 1887.93,-438 1893.93,-432 1899.93,-432 1899.93,-432 1952.93,-432 1952.93,-432 1958.93,-432 1964.93,-438 1964.93,-444 1964.93,-444 1964.93,-456 1964.93,-456 1964.93,-462 1958.93,-468 1952.93,-468"/>
<text text-anchor="middle" x="1926.43" y="-447.5" font-family="sans" font-size="10.00">filter_counts</text>
</g>
<!-- 3&#45;&gt;5 -->
<g id="edge12" class="edge">
<title>3&#45;&gt;5</title>
<path fill="none" stroke="grey" stroke-width="2" d="M1898.58,-503.7C1902.84,-495.64 1907.99,-485.89 1912.7,-476.98"/>
<polygon fill="grey" stroke="grey" stroke-width="2" points="1915.82,-478.58 1917.39,-468.1 1909.63,-475.31 1915.82,-478.58"/>
</g>
<!-- 4 -->
<g id="node5" class="node">
<title>4</title>
<path fill="none" stroke="#88d856" stroke-width="2" stroke-dasharray="5,2" d="M3693.43,-324C3693.43,-324 3633.43,-324 3633.43,-324 3627.43,-324 3621.43,-318 3621.43,-312 3621.43,-312 3621.43,-300 3621.43,-300 3621.43,-294 3627.43,-288 3633.43,-288 3633.43,-288 3693.43,-288 3693.43,-288 3699.43,-288 3705.43,-294 3705.43,-300 3705.43,-300 3705.43,-312 3705.43,-312 3705.43,-318 3699.43,-324 3693.43,-324"/>
<text text-anchor="middle" x="3663.43" y="-303.5" font-family="sans" font-size="10.00">outrider_plots</text>
</g>
<!-- 4&#45;&gt;1 -->
<g id="edge3" class="edge">
<title>4&#45;&gt;1</title>
<path fill="none" stroke="grey" stroke-width="2" d="M3663.34,-287.75C3662.1,-253.69 3653.96,-178.15 3607.43,-144 3537.39,-92.59 2196.14,-90.74 1910.6,-90.93"/>
<polygon fill="grey" stroke="grey" stroke-width="2" points="1910.5,-87.43 1900.5,-90.93 1910.51,-94.43 1910.5,-87.43"/>
</g>
<!-- 5&#45;&gt;4 -->
<g id="edge10" class="edge">
<title>5&#45;&gt;4</title>
<path fill="none" stroke="grey" stroke-width="2" d="M1965.01,-449.26C2149.45,-449.83 2959.08,-444.98 3607.43,-324 3608.7,-323.76 3609.98,-323.51 3611.26,-323.24"/>
<polygon fill="grey" stroke="grey" stroke-width="2" points="3612.25,-326.6 3621.18,-320.9 3610.64,-319.79 3612.25,-326.6"/>
</g>
<!-- 6 -->
<g id="node7" class="node">
<title>6</title>
<path fill="none" stroke="#d85656" stroke-width="2" stroke-dasharray="5,2" d="M1941.93,-396C1941.93,-396 1910.93,-396 1910.93,-396 1904.93,-396 1898.93,-390 1898.93,-384 1898.93,-384 1898.93,-372 1898.93,-372 1898.93,-366 1904.93,-360 1910.93,-360 1910.93,-360 1941.93,-360 1941.93,-360 1947.93,-360 1953.93,-366 1953.93,-372 1953.93,-372 1953.93,-384 1953.93,-384 1953.93,-390 1947.93,-396 1941.93,-396"/>
<text text-anchor="middle" x="1926.43" y="-375.5" font-family="sans" font-size="10.00">outrider</text>
</g>
<!-- 5&#45;&gt;6 -->
<g id="edge13" class="edge">
<title>5&#45;&gt;6</title>
<path fill="none" stroke="grey" stroke-width="2" d="M1926.43,-431.7C1926.43,-423.98 1926.43,-414.71 1926.43,-406.11"/>
<polygon fill="grey" stroke="grey" stroke-width="2" points="1929.94,-406.1 1926.43,-396.1 1922.94,-406.1 1929.94,-406.1"/>
</g>
<!-- 6&#45;&gt;1 -->
<g id="edge6" class="edge">
<title>6&#45;&gt;1</title>
<path fill="none" stroke="grey" stroke-width="2" d="M1954.2,-376.65C2144.28,-374.16 3250.21,-358.28 3395.43,-324 3478.22,-304.46 3610.63,-278.96 3553.43,-216 3440.42,-91.6 2186.73,-89.61 1910.9,-90.68"/>
<polygon fill="grey" stroke="grey" stroke-width="2" points="1910.73,-87.18 1900.75,-90.73 1910.76,-94.18 1910.73,-87.18"/>
</g>
<!-- 6&#45;&gt;4 -->
<g id="edge11" class="edge">
<title>6&#45;&gt;4</title>
<path fill="none" stroke="grey" stroke-width="2" d="M1954.11,-376.57C2159.07,-373.3 3437.9,-351.9 3607.43,-324 3608.7,-323.79 3609.98,-323.56 3611.27,-323.31"/>
<polygon fill="grey" stroke="grey" stroke-width="2" points="3612.21,-326.69 3621.21,-321.1 3610.69,-319.86 3612.21,-326.69"/>
</g>
<!-- 7 -->
<g id="node8" class="node">
<title>7</title>
<path fill="none" stroke="#56d8d0" stroke-width="2" stroke-dasharray="5,2" d="M1775.43,-324C1775.43,-324 1711.43,-324 1711.43,-324 1705.43,-324 1699.43,-318 1699.43,-312 1699.43,-312 1699.43,-300 1699.43,-300 1699.43,-294 1705.43,-288 1711.43,-288 1711.43,-288 1775.43,-288 1775.43,-288 1781.43,-288 1787.43,-294 1787.43,-300 1787.43,-300 1787.43,-312 1787.43,-312 1787.43,-318 1781.43,-324 1775.43,-324"/>
<text text-anchor="middle" x="1743.43" y="-303.5" font-family="sans" font-size="10.00">outliers_genes</text>
</g>
<!-- 6&#45;&gt;7 -->
<g id="edge14" class="edge">
<title>6&#45;&gt;7</title>
<path fill="none" stroke="grey" stroke-width="2" d="M1898.64,-366.37C1871.79,-356.1 1830.42,-340.27 1797.14,-327.54"/>
<polygon fill="grey" stroke="grey" stroke-width="2" points="1798.14,-324.18 1787.55,-323.87 1795.64,-330.71 1798.14,-324.18"/>
</g>
<!-- 8 -->
<g id="node9" class="node">
<title>8</title>
<path fill="none" stroke="#68d856" stroke-width="2" stroke-dasharray="5,2" d="M119.43,-252C119.43,-252 33.43,-252 33.43,-252 27.43,-252 21.43,-246 21.43,-240 21.43,-240 21.43,-228 21.43,-228 21.43,-222 27.43,-216 33.43,-216 33.43,-216 119.43,-216 119.43,-216 125.43,-216 131.43,-222 131.43,-228 131.43,-228 131.43,-240 131.43,-240 131.43,-246 125.43,-252 119.43,-252"/>
<text text-anchor="middle" x="76.43" y="-231.5" font-family="sans" font-size="10.00">compare_literature</text>
</g>
<!-- 6&#45;&gt;8 -->
<g id="edge17" class="edge">
<title>6&#45;&gt;8</title>
<path fill="none" stroke="grey" stroke-width="2" d="M1898.7,-376.43C1670.7,-371.73 113.55,-339.09 95.43,-324 77.84,-309.34 74.08,-282.75 74.13,-262.44"/>
<polygon fill="grey" stroke="grey" stroke-width="2" points="77.63,-262.31 74.46,-252.2 70.64,-262.08 77.63,-262.31"/>
</g>
<!-- 11 -->
<g id="node12" class="node">
<title>11</title>
<path fill="none" stroke="#d89c56" stroke-width="2" stroke-dasharray="5,2" d="M557.43,-252C557.43,-252 453.43,-252 453.43,-252 447.43,-252 441.43,-246 441.43,-240 441.43,-240 441.43,-228 441.43,-228 441.43,-222 447.43,-216 453.43,-216 453.43,-216 557.43,-216 557.43,-216 563.43,-216 569.43,-222 569.43,-228 569.43,-228 569.43,-240 569.43,-240 569.43,-246 563.43,-252 557.43,-252"/>
<text text-anchor="middle" x="505.43" y="-237" font-family="sans" font-size="10.00">prioritize_vep_variants</text>
<text text-anchor="middle" x="505.43" y="-226" font-family="sans" font-size="10.00">chrom: chr1</text>
</g>
<!-- 6&#45;&gt;11 -->
<g id="edge41" class="edge">
<title>6&#45;&gt;11</title>
<path fill="none" stroke="grey" stroke-width="2" d="M1898.91,-376.52C1749.87,-373.82 1038.26,-359.26 821.43,-324 729.05,-308.97 625.16,-276.6 562.54,-255.32"/>
<polygon fill="grey" stroke="grey" stroke-width="2" points="563.45,-251.94 552.86,-252.01 561.18,-258.56 563.45,-251.94"/>
</g>
<!-- 12 -->
<g id="node13" class="node">
<title>12</title>
<path fill="none" stroke="#d89c56" stroke-width="2" stroke-dasharray="5,2" d="M703.43,-252C703.43,-252 599.43,-252 599.43,-252 593.43,-252 587.43,-246 587.43,-240 587.43,-240 587.43,-228 587.43,-228 587.43,-222 593.43,-216 599.43,-216 599.43,-216 703.43,-216 703.43,-216 709.43,-216 715.43,-222 715.43,-228 715.43,-228 715.43,-240 715.43,-240 715.43,-246 709.43,-252 703.43,-252"/>
<text text-anchor="middle" x="651.43" y="-237" font-family="sans" font-size="10.00">prioritize_vep_variants</text>
<text text-anchor="middle" x="651.43" y="-226" font-family="sans" font-size="10.00">chrom: chr2</text>
</g>
<!-- 6&#45;&gt;12 -->
<g id="edge43" class="edge">
<title>6&#45;&gt;12</title>
<path fill="none" stroke="grey" stroke-width="2" d="M1898.6,-376.36C1759.81,-373.04 1141.63,-356.66 952.43,-324 906.44,-316.06 787.22,-278.89 713.37,-255.17"/>
<polygon fill="grey" stroke="grey" stroke-width="2" points="714.29,-251.79 703.7,-252.06 712.15,-258.46 714.29,-251.79"/>
</g>
<!-- 13 -->
<g id="node14" class="node">
<title>13</title>
<path fill="none" stroke="#d89c56" stroke-width="2" stroke-dasharray="5,2" d="M849.43,-252C849.43,-252 745.43,-252 745.43,-252 739.43,-252 733.43,-246 733.43,-240 733.43,-240 733.43,-228 733.43,-228 733.43,-222 739.43,-216 745.43,-216 745.43,-216 849.43,-216 849.43,-216 855.43,-216 861.43,-222 861.43,-228 861.43,-228 861.43,-240 861.43,-240 861.43,-246 855.43,-252 849.43,-252"/>
<text text-anchor="middle" x="797.43" y="-237" font-family="sans" font-size="10.00">prioritize_vep_variants</text>
<text text-anchor="middle" x="797.43" y="-226" font-family="sans" font-size="10.00">chrom: chr3</text>
</g>
<!-- 6&#45;&gt;13 -->
<g id="edge45" class="edge">
<title>6&#45;&gt;13</title>
<path fill="none" stroke="grey" stroke-width="2" d="M1898.62,-377.47C1793.12,-378.78 1408.03,-379.28 1097.43,-324 1010.16,-308.47 912.27,-276.58 852.75,-255.5"/>
<polygon fill="grey" stroke="grey" stroke-width="2" points="853.76,-252.14 843.17,-252.08 851.41,-258.74 853.76,-252.14"/>
</g>
<!-- 14 -->
<g id="node15" class="node">
<title>14</title>
<path fill="none" stroke="#d89c56" stroke-width="2" stroke-dasharray="5,2" d="M995.43,-252C995.43,-252 891.43,-252 891.43,-252 885.43,-252 879.43,-246 879.43,-240 879.43,-240 879.43,-228 879.43,-228 879.43,-222 885.43,-216 891.43,-216 891.43,-216 995.43,-216 995.43,-216 1001.43,-216 1007.43,-222 1007.43,-228 1007.43,-228 1007.43,-240 1007.43,-240 1007.43,-246 1001.43,-252 995.43,-252"/>
<text text-anchor="middle" x="943.43" y="-237" font-family="sans" font-size="10.00">prioritize_vep_variants</text>
<text text-anchor="middle" x="943.43" y="-226" font-family="sans" font-size="10.00">chrom: chr4</text>
</g>
<!-- 6&#45;&gt;14 -->
<g id="edge47" class="edge">
<title>6&#45;&gt;14</title>
<path fill="none" stroke="grey" stroke-width="2" d="M1898.75,-376.96C1805.35,-376.39 1493.57,-370.85 1241.43,-324 1155.07,-307.95 1058.12,-276.36 998.92,-255.46"/>
<polygon fill="grey" stroke="grey" stroke-width="2" points="999.99,-252.12 989.39,-252.07 997.64,-258.72 999.99,-252.12"/>
</g>
<!-- 15 -->
<g id="node16" class="node">
<title>15</title>
<path fill="none" stroke="#d89c56" stroke-width="2" stroke-dasharray="5,2" d="M1141.43,-252C1141.43,-252 1037.43,-252 1037.43,-252 1031.43,-252 1025.43,-246 1025.43,-240 1025.43,-240 1025.43,-228 1025.43,-228 1025.43,-222 1031.43,-216 1037.43,-216 1037.43,-216 1141.43,-216 1141.43,-216 1147.43,-216 1153.43,-222 1153.43,-228 1153.43,-228 1153.43,-240 1153.43,-240 1153.43,-246 1147.43,-252 1141.43,-252"/>
<text text-anchor="middle" x="1089.43" y="-237" font-family="sans" font-size="10.00">prioritize_vep_variants</text>
<text text-anchor="middle" x="1089.43" y="-226" font-family="sans" font-size="10.00">chrom: chr5</text>
</g>
<!-- 6&#45;&gt;15 -->
<g id="edge49" class="edge">
<title>6&#45;&gt;15</title>
<path fill="none" stroke="grey" stroke-width="2" d="M1898.7,-376.23C1818.17,-373.59 1577.66,-362.76 1382.43,-324 1298.14,-307.26 1203.48,-276.18 1145.15,-255.54"/>
<polygon fill="grey" stroke="grey" stroke-width="2" points="1145.99,-252.12 1135.4,-252.06 1143.64,-258.72 1145.99,-252.12"/>
</g>
<!-- 16 -->
<g id="node17" class="node">
<title>16</title>
<path fill="none" stroke="#d89c56" stroke-width="2" stroke-dasharray="5,2" d="M1287.43,-252C1287.43,-252 1183.43,-252 1183.43,-252 1177.43,-252 1171.43,-246 1171.43,-240 1171.43,-240 1171.43,-228 1171.43,-228 1171.43,-222 1177.43,-216 1183.43,-216 1183.43,-216 1287.43,-216 1287.43,-216 1293.43,-216 1299.43,-222 1299.43,-228 1299.43,-228 1299.43,-240 1299.43,-240 1299.43,-246 1293.43,-252 1287.43,-252"/>
<text text-anchor="middle" x="1235.43" y="-237" font-family="sans" font-size="10.00">prioritize_vep_variants</text>
<text text-anchor="middle" x="1235.43" y="-226" font-family="sans" font-size="10.00">chrom: chr6</text>
</g>
<!-- 6&#45;&gt;16 -->
<g id="edge51" class="edge">
<title>6&#45;&gt;16</title>
<path fill="none" stroke="grey" stroke-width="2" d="M1898.6,-375.34C1830.8,-370.89 1651.99,-356.77 1506.43,-324 1428.96,-306.56 1342.2,-276.04 1288.2,-255.68"/>
<polygon fill="grey" stroke="grey" stroke-width="2" points="1289.42,-252.4 1278.83,-252.12 1286.94,-258.94 1289.42,-252.4"/>
</g>
<!-- 17 -->
<g id="node18" class="node">
<title>17</title>
<path fill="none" stroke="#d89c56" stroke-width="2" stroke-dasharray="5,2" d="M1433.43,-252C1433.43,-252 1329.43,-252 1329.43,-252 1323.43,-252 1317.43,-246 1317.43,-240 1317.43,-240 1317.43,-228 1317.43,-228 1317.43,-222 1323.43,-216 1329.43,-216 1329.43,-216 1433.43,-216 1433.43,-216 1439.43,-216 1445.43,-222 1445.43,-228 1445.43,-228 1445.43,-240 1445.43,-240 1445.43,-246 1439.43,-252 1433.43,-252"/>
<text text-anchor="middle" x="1381.43" y="-237" font-family="sans" font-size="10.00">prioritize_vep_variants</text>
<text text-anchor="middle" x="1381.43" y="-226" font-family="sans" font-size="10.00">chrom: chr7</text>
</g>
<!-- 6&#45;&gt;17 -->
<g id="edge53" class="edge">
<title>6&#45;&gt;17</title>
<path fill="none" stroke="grey" stroke-width="2" d="M1898.82,-374.19C1843.79,-368.18 1716.83,-352.28 1613.43,-324 1547.59,-305.99 1474.5,-276.24 1428.28,-256.14"/>
<polygon fill="grey" stroke="grey" stroke-width="2" points="1429.4,-252.81 1418.84,-252.01 1426.6,-259.23 1429.4,-252.81"/>
</g>
<!-- 18 -->
<g id="node19" class="node">
<title>18</title>
<path fill="none" stroke="#d89c56" stroke-width="2" stroke-dasharray="5,2" d="M1579.43,-252C1579.43,-252 1475.43,-252 1475.43,-252 1469.43,-252 1463.43,-246 1463.43,-240 1463.43,-240 1463.43,-228 1463.43,-228 1463.43,-222 1469.43,-216 1475.43,-216 1475.43,-216 1579.43,-216 1579.43,-216 1585.43,-216 1591.43,-222 1591.43,-228 1591.43,-228 1591.43,-240 1591.43,-240 1591.43,-246 1585.43,-252 1579.43,-252"/>
<text text-anchor="middle" x="1527.43" y="-237" font-family="sans" font-size="10.00">prioritize_vep_variants</text>
<text text-anchor="middle" x="1527.43" y="-226" font-family="sans" font-size="10.00">chrom: chr8</text>
</g>
<!-- 6&#45;&gt;18 -->
<g id="edge55" class="edge">
<title>6&#45;&gt;18</title>
<path fill="none" stroke="grey" stroke-width="2" d="M1898.82,-373.35C1854.01,-366.87 1763.13,-351.39 1690.43,-324 1643.69,-306.39 1593.82,-277.49 1561.73,-257.43"/>
<polygon fill="grey" stroke="grey" stroke-width="2" points="1563.5,-254.4 1553.17,-252.02 1559.76,-260.32 1563.5,-254.4"/>
</g>
<!-- 19 -->
<g id="node20" class="node">
<title>19</title>
<path fill="none" stroke="#d89c56" stroke-width="2" stroke-dasharray="5,2" d="M1763.43,-252C1763.43,-252 1659.43,-252 1659.43,-252 1653.43,-252 1647.43,-246 1647.43,-240 1647.43,-240 1647.43,-228 1647.43,-228 1647.43,-222 1653.43,-216 1659.43,-216 1659.43,-216 1763.43,-216 1763.43,-216 1769.43,-216 1775.43,-222 1775.43,-228 1775.43,-228 1775.43,-240 1775.43,-240 1775.43,-246 1769.43,-252 1763.43,-252"/>
<text text-anchor="middle" x="1711.43" y="-237" font-family="sans" font-size="10.00">prioritize_vep_variants</text>
<text text-anchor="middle" x="1711.43" y="-226" font-family="sans" font-size="10.00">chrom: chr9</text>
</g>
<!-- 6&#45;&gt;19 -->
<g id="edge57" class="edge">
<title>6&#45;&gt;19</title>
<path fill="none" stroke="grey" stroke-width="2" d="M1902.21,-359.95C1876.25,-341.8 1833.75,-312.39 1796.43,-288 1780.74,-277.74 1763.18,-266.72 1748.12,-257.4"/>
<polygon fill="grey" stroke="grey" stroke-width="2" points="1749.92,-254.4 1739.57,-252.13 1746.25,-260.36 1749.92,-254.4"/>
</g>
<!-- 20 -->
<g id="node21" class="node">
<title>20</title>
<path fill="none" stroke="#d89c56" stroke-width="2" stroke-dasharray="5,2" d="M1909.43,-252C1909.43,-252 1805.43,-252 1805.43,-252 1799.43,-252 1793.43,-246 1793.43,-240 1793.43,-240 1793.43,-228 1793.43,-228 1793.43,-222 1799.43,-216 1805.43,-216 1805.43,-216 1909.43,-216 1909.43,-216 1915.43,-216 1921.43,-222 1921.43,-228 1921.43,-228 1921.43,-240 1921.43,-240 1921.43,-246 1915.43,-252 1909.43,-252"/>
<text text-anchor="middle" x="1857.43" y="-237" font-family="sans" font-size="10.00">prioritize_vep_variants</text>
<text text-anchor="middle" x="1857.43" y="-226" font-family="sans" font-size="10.00">chrom: chr10</text>
</g>
<!-- 6&#45;&gt;20 -->
<g id="edge59" class="edge">
<title>6&#45;&gt;20</title>
<path fill="none" stroke="grey" stroke-width="2" d="M1918.11,-359.87C1906.2,-335.35 1884.18,-290.03 1870.19,-261.26"/>
<polygon fill="grey" stroke="grey" stroke-width="2" points="1873.31,-259.65 1865.79,-252.19 1867.01,-262.71 1873.31,-259.65"/>
</g>
<!-- 21 -->
<g id="node22" class="node">
<title>21</title>
<path fill="none" stroke="#d89c56" stroke-width="2" stroke-dasharray="5,2" d="M2055.43,-252C2055.43,-252 1951.43,-252 1951.43,-252 1945.43,-252 1939.43,-246 1939.43,-240 1939.43,-240 1939.43,-228 1939.43,-228 1939.43,-222 1945.43,-216 1951.43,-216 1951.43,-216 2055.43,-216 2055.43,-216 2061.43,-216 2067.43,-222 2067.43,-228 2067.43,-228 2067.43,-240 2067.43,-240 2067.43,-246 2061.43,-252 2055.43,-252"/>
<text text-anchor="middle" x="2003.43" y="-237" font-family="sans" font-size="10.00">prioritize_vep_variants</text>
<text text-anchor="middle" x="2003.43" y="-226" font-family="sans" font-size="10.00">chrom: chr11</text>
</g>
<!-- 6&#45;&gt;21 -->
<g id="edge61" class="edge">
<title>6&#45;&gt;21</title>
<path fill="none" stroke="grey" stroke-width="2" d="M1935.72,-359.87C1949.02,-335.35 1973.59,-290.03 1989.2,-261.26"/>
<polygon fill="grey" stroke="grey" stroke-width="2" points="1992.42,-262.65 1994.11,-252.19 1986.27,-259.31 1992.42,-262.65"/>
</g>
<!-- 22 -->
<g id="node23" class="node">
<title>22</title>
<path fill="none" stroke="#d89c56" stroke-width="2" stroke-dasharray="5,2" d="M2201.43,-252C2201.43,-252 2097.43,-252 2097.43,-252 2091.43,-252 2085.43,-246 2085.43,-240 2085.43,-240 2085.43,-228 2085.43,-228 2085.43,-222 2091.43,-216 2097.43,-216 2097.43,-216 2201.43,-216 2201.43,-216 2207.43,-216 2213.43,-222 2213.43,-228 2213.43,-228 2213.43,-240 2213.43,-240 2213.43,-246 2207.43,-252 2201.43,-252"/>
<text text-anchor="middle" x="2149.43" y="-237" font-family="sans" font-size="10.00">prioritize_vep_variants</text>
<text text-anchor="middle" x="2149.43" y="-226" font-family="sans" font-size="10.00">chrom: chr12</text>
</g>
<!-- 6&#45;&gt;22 -->
<g id="edge63" class="edge">
<title>6&#45;&gt;22</title>
<path fill="none" stroke="grey" stroke-width="2" d="M1953.33,-359.87C1993.52,-334.28 2069.26,-286.05 2113.94,-257.6"/>
<polygon fill="grey" stroke="grey" stroke-width="2" points="2115.89,-260.51 2122.44,-252.19 2112.13,-254.61 2115.89,-260.51"/>
</g>
<!-- 23 -->
<g id="node24" class="node">
<title>23</title>
<path fill="none" stroke="#d89c56" stroke-width="2" stroke-dasharray="5,2" d="M2347.43,-252C2347.43,-252 2243.43,-252 2243.43,-252 2237.43,-252 2231.43,-246 2231.43,-240 2231.43,-240 2231.43,-228 2231.43,-228 2231.43,-222 2237.43,-216 2243.43,-216 2243.43,-216 2347.43,-216 2347.43,-216 2353.43,-216 2359.43,-222 2359.43,-228 2359.43,-228 2359.43,-240 2359.43,-240 2359.43,-246 2353.43,-252 2347.43,-252"/>
<text text-anchor="middle" x="2295.43" y="-237" font-family="sans" font-size="10.00">prioritize_vep_variants</text>
<text text-anchor="middle" x="2295.43" y="-226" font-family="sans" font-size="10.00">chrom: chr13</text>
</g>
<!-- 6&#45;&gt;23 -->
<g id="edge65" class="edge">
<title>6&#45;&gt;23</title>
<path fill="none" stroke="grey" stroke-width="2" d="M1954.17,-366.33C2015.21,-342.84 2162.08,-286.32 2241.8,-255.64"/>
<polygon fill="grey" stroke="grey" stroke-width="2" points="2243.1,-258.89 2251.17,-252.03 2240.58,-252.36 2243.1,-258.89"/>
</g>
<!-- 24 -->
<g id="node25" class="node">
<title>24</title>
<path fill="none" stroke="#d89c56" stroke-width="2" stroke-dasharray="5,2" d="M2493.43,-252C2493.43,-252 2389.43,-252 2389.43,-252 2383.43,-252 2377.43,-246 2377.43,-240 2377.43,-240 2377.43,-228 2377.43,-228 2377.43,-222 2383.43,-216 2389.43,-216 2389.43,-216 2493.43,-216 2493.43,-216 2499.43,-216 2505.43,-222 2505.43,-228 2505.43,-228 2505.43,-240 2505.43,-240 2505.43,-246 2499.43,-252 2493.43,-252"/>
<text text-anchor="middle" x="2441.43" y="-237" font-family="sans" font-size="10.00">prioritize_vep_variants</text>
<text text-anchor="middle" x="2441.43" y="-226" font-family="sans" font-size="10.00">chrom: chr14</text>
</g>
<!-- 6&#45;&gt;24 -->
<g id="edge67" class="edge">
<title>6&#45;&gt;24</title>
<path fill="none" stroke="grey" stroke-width="2" d="M1954.15,-369.75C1992.64,-359.66 2064.4,-340.72 2125.43,-324 2210.36,-300.73 2307.86,-273.14 2371.83,-254.91"/>
<polygon fill="grey" stroke="grey" stroke-width="2" points="2373.15,-258.17 2381.81,-252.07 2371.23,-251.44 2373.15,-258.17"/>
</g>
<!-- 25 -->
<g id="node26" class="node">
<title>25</title>
<path fill="none" stroke="#d89c56" stroke-width="2" stroke-dasharray="5,2" d="M2639.43,-252C2639.43,-252 2535.43,-252 2535.43,-252 2529.43,-252 2523.43,-246 2523.43,-240 2523.43,-240 2523.43,-228 2523.43,-228 2523.43,-222 2529.43,-216 2535.43,-216 2535.43,-216 2639.43,-216 2639.43,-216 2645.43,-216 2651.43,-222 2651.43,-228 2651.43,-228 2651.43,-240 2651.43,-240 2651.43,-246 2645.43,-252 2639.43,-252"/>
<text text-anchor="middle" x="2587.43" y="-237" font-family="sans" font-size="10.00">prioritize_vep_variants</text>
<text text-anchor="middle" x="2587.43" y="-226" font-family="sans" font-size="10.00">chrom: chr15</text>
</g>
<!-- 6&#45;&gt;25 -->
<g id="edge69" class="edge">
<title>6&#45;&gt;25</title>
<path fill="none" stroke="grey" stroke-width="2" d="M1954.01,-371.96C2003.34,-362.87 2109.92,-342.91 2199.43,-324 2336.79,-294.98 2372.89,-284.75 2513.49,-252.22"/>
<polygon fill="grey" stroke="grey" stroke-width="2" points="2514.39,-255.6 2523.34,-249.94 2512.81,-248.78 2514.39,-255.6"/>
</g>
<!-- 26 -->
<g id="node27" class="node">
<title>26</title>
<path fill="none" stroke="#d89c56" stroke-width="2" stroke-dasharray="5,2" d="M2785.43,-252C2785.43,-252 2681.43,-252 2681.43,-252 2675.43,-252 2669.43,-246 2669.43,-240 2669.43,-240 2669.43,-228 2669.43,-228 2669.43,-222 2675.43,-216 2681.43,-216 2681.43,-216 2785.43,-216 2785.43,-216 2791.43,-216 2797.43,-222 2797.43,-228 2797.43,-228 2797.43,-240 2797.43,-240 2797.43,-246 2791.43,-252 2785.43,-252"/>
<text text-anchor="middle" x="2733.43" y="-237" font-family="sans" font-size="10.00">prioritize_vep_variants</text>
<text text-anchor="middle" x="2733.43" y="-226" font-family="sans" font-size="10.00">chrom: chr16</text>
</g>
<!-- 6&#45;&gt;26 -->
<g id="edge71" class="edge">
<title>6&#45;&gt;26</title>
<path fill="none" stroke="grey" stroke-width="2" d="M1953.98,-373.46C2014.94,-365.54 2165.81,-345.36 2291.43,-324 2452.95,-296.53 2495.4,-287.31 2659.42,-252.19"/>
<polygon fill="grey" stroke="grey" stroke-width="2" points="2660.32,-255.57 2669.37,-250.06 2658.86,-248.73 2660.32,-255.57"/>
</g>
<!-- 27 -->
<g id="node28" class="node">
<title>27</title>
<path fill="none" stroke="#d89c56" stroke-width="2" stroke-dasharray="5,2" d="M2931.43,-252C2931.43,-252 2827.43,-252 2827.43,-252 2821.43,-252 2815.43,-246 2815.43,-240 2815.43,-240 2815.43,-228 2815.43,-228 2815.43,-222 2821.43,-216 2827.43,-216 2827.43,-216 2931.43,-216 2931.43,-216 2937.43,-216 2943.43,-222 2943.43,-228 2943.43,-228 2943.43,-240 2943.43,-240 2943.43,-246 2937.43,-252 2931.43,-252"/>
<text text-anchor="middle" x="2879.43" y="-237" font-family="sans" font-size="10.00">prioritize_vep_variants</text>
<text text-anchor="middle" x="2879.43" y="-226" font-family="sans" font-size="10.00">chrom: chr17</text>
</g>
<!-- 6&#45;&gt;27 -->
<g id="edge73" class="edge">
<title>6&#45;&gt;27</title>
<path fill="none" stroke="grey" stroke-width="2" d="M1953.94,-374.59C2027.21,-368.02 2233.15,-348.64 2403.43,-324 2580.25,-298.41 2626.56,-288.99 2805.38,-252.17"/>
<polygon fill="grey" stroke="grey" stroke-width="2" points="2806.29,-255.56 2815.38,-250.11 2804.88,-248.7 2806.29,-255.56"/>
</g>
<!-- 28 -->
<g id="node29" class="node">
<title>28</title>
<path fill="none" stroke="#d89c56" stroke-width="2" stroke-dasharray="5,2" d="M3077.43,-252C3077.43,-252 2973.43,-252 2973.43,-252 2967.43,-252 2961.43,-246 2961.43,-240 2961.43,-240 2961.43,-228 2961.43,-228 2961.43,-222 2967.43,-216 2973.43,-216 2973.43,-216 3077.43,-216 3077.43,-216 3083.43,-216 3089.43,-222 3089.43,-228 3089.43,-228 3089.43,-240 3089.43,-240 3089.43,-246 3083.43,-252 3077.43,-252"/>
<text text-anchor="middle" x="3025.43" y="-237" font-family="sans" font-size="10.00">prioritize_vep_variants</text>
<text text-anchor="middle" x="3025.43" y="-226" font-family="sans" font-size="10.00">chrom: chr18</text>
</g>
<!-- 6&#45;&gt;28 -->
<g id="edge75" class="edge">
<title>6&#45;&gt;28</title>
<path fill="none" stroke="grey" stroke-width="2" d="M1954.12,-375.36C2039.76,-370.11 2307.83,-352.4 2528.43,-324 2714.77,-300.02 2763.4,-290.04 2951.45,-252.15"/>
<polygon fill="grey" stroke="grey" stroke-width="2" points="2952.28,-255.55 2961.39,-250.15 2950.89,-248.69 2952.28,-255.55"/>
</g>
<!-- 29 -->
<g id="node30" class="node">
<title>29</title>
<path fill="none" stroke="#d89c56" stroke-width="2" stroke-dasharray="5,2" d="M3223.43,-252C3223.43,-252 3119.43,-252 3119.43,-252 3113.43,-252 3107.43,-246 3107.43,-240 3107.43,-240 3107.43,-228 3107.43,-228 3107.43,-222 3113.43,-216 3119.43,-216 3119.43,-216 3223.43,-216 3223.43,-216 3229.43,-216 3235.43,-222 3235.43,-228 3235.43,-228 3235.43,-240 3235.43,-240 3235.43,-246 3229.43,-252 3223.43,-252"/>
<text text-anchor="middle" x="3171.43" y="-237" font-family="sans" font-size="10.00">prioritize_vep_variants</text>
<text text-anchor="middle" x="3171.43" y="-226" font-family="sans" font-size="10.00">chrom: chr19</text>
</g>
<!-- 6&#45;&gt;29 -->
<g id="edge77" class="edge">
<title>6&#45;&gt;29</title>
<path fill="none" stroke="grey" stroke-width="2" d="M1954.15,-375.9C2051.3,-371.85 2385.42,-356.31 2659.43,-324 2852.53,-301.23 2902.83,-290.79 3097.41,-252.15"/>
<polygon fill="grey" stroke="grey" stroke-width="2" points="3098.27,-255.55 3107.39,-250.17 3096.9,-248.68 3098.27,-255.55"/>
</g>
<!-- 30 -->
<g id="node31" class="node">
<title>30</title>
<path fill="none" stroke="#d89c56" stroke-width="2" stroke-dasharray="5,2" d="M3369.43,-252C3369.43,-252 3265.43,-252 3265.43,-252 3259.43,-252 3253.43,-246 3253.43,-240 3253.43,-240 3253.43,-228 3253.43,-228 3253.43,-222 3259.43,-216 3265.43,-216 3265.43,-216 3369.43,-216 3369.43,-216 3375.43,-216 3381.43,-222 3381.43,-228 3381.43,-228 3381.43,-240 3381.43,-240 3381.43,-246 3375.43,-252 3369.43,-252"/>
<text text-anchor="middle" x="3317.43" y="-237" font-family="sans" font-size="10.00">prioritize_vep_variants</text>
<text text-anchor="middle" x="3317.43" y="-226" font-family="sans" font-size="10.00">chrom: chr20</text>
</g>
<!-- 6&#45;&gt;30 -->
<g id="edge79" class="edge">
<title>6&#45;&gt;30</title>
<path fill="none" stroke="grey" stroke-width="2" d="M1953.98,-376.32C2061.93,-373.43 2466.55,-360.63 2797.43,-324 2994.22,-302.22 3045.36,-291.2 3243.54,-252.12"/>
<polygon fill="grey" stroke="grey" stroke-width="2" points="3244.26,-255.55 3253.39,-250.18 3242.91,-248.68 3244.26,-255.55"/>
</g>
<!-- 31 -->
<g id="node32" class="node">
<title>31</title>
<path fill="none" stroke="#d89c56" stroke-width="2" stroke-dasharray="5,2" d="M3515.43,-252C3515.43,-252 3411.43,-252 3411.43,-252 3405.43,-252 3399.43,-246 3399.43,-240 3399.43,-240 3399.43,-228 3399.43,-228 3399.43,-222 3405.43,-216 3411.43,-216 3411.43,-216 3515.43,-216 3515.43,-216 3521.43,-216 3527.43,-222 3527.43,-228 3527.43,-228 3527.43,-240 3527.43,-240 3527.43,-246 3521.43,-252 3515.43,-252"/>
<text text-anchor="middle" x="3463.43" y="-237" font-family="sans" font-size="10.00">prioritize_vep_variants</text>
<text text-anchor="middle" x="3463.43" y="-226" font-family="sans" font-size="10.00">chrom: chr21</text>
</g>
<!-- 6&#45;&gt;31 -->
<g id="edge81" class="edge">
<title>6&#45;&gt;31</title>
<path fill="none" stroke="grey" stroke-width="2" d="M1954.29,-376.62C2073.15,-374.77 2549.58,-365.04 2938.43,-324 3137.47,-302.99 3189.15,-291.47 3389.44,-252.14"/>
<polygon fill="grey" stroke="grey" stroke-width="2" points="3390.26,-255.54 3399.4,-250.18 3388.91,-248.67 3390.26,-255.54"/>
</g>
<!-- 32 -->
<g id="node33" class="node">
<title>32</title>
<path fill="none" stroke="#d89c56" stroke-width="2" stroke-dasharray="5,2" d="M265.43,-252C265.43,-252 161.43,-252 161.43,-252 155.43,-252 149.43,-246 149.43,-240 149.43,-240 149.43,-228 149.43,-228 149.43,-222 155.43,-216 161.43,-216 161.43,-216 265.43,-216 265.43,-216 271.43,-216 277.43,-222 277.43,-228 277.43,-228 277.43,-240 277.43,-240 277.43,-246 271.43,-252 265.43,-252"/>
<text text-anchor="middle" x="213.43" y="-237" font-family="sans" font-size="10.00">prioritize_vep_variants</text>
<text text-anchor="middle" x="213.43" y="-226" font-family="sans" font-size="10.00">chrom: chr22</text>
</g>
<!-- 6&#45;&gt;32 -->
<g id="edge83" class="edge">
<title>6&#45;&gt;32</title>
<path fill="none" stroke="grey" stroke-width="2" d="M1898.76,-376.88C1726.47,-376.01 799.2,-369.25 519.43,-324 429.8,-309.5 329.33,-277.02 268.76,-255.56"/>
<polygon fill="grey" stroke="grey" stroke-width="2" points="269.62,-252.15 259.02,-252.09 267.26,-258.75 269.62,-252.15"/>
</g>
<!-- 33 -->
<g id="node34" class="node">
<title>33</title>
<path fill="none" stroke="#d89c56" stroke-width="2" stroke-dasharray="5,2" d="M411.43,-252C411.43,-252 307.43,-252 307.43,-252 301.43,-252 295.43,-246 295.43,-240 295.43,-240 295.43,-228 295.43,-228 295.43,-222 301.43,-216 307.43,-216 307.43,-216 411.43,-216 411.43,-216 417.43,-216 423.43,-222 423.43,-228 423.43,-228 423.43,-240 423.43,-240 423.43,-246 417.43,-252 411.43,-252"/>
<text text-anchor="middle" x="359.43" y="-237" font-family="sans" font-size="10.00">prioritize_vep_variants</text>
<text text-anchor="middle" x="359.43" y="-226" font-family="sans" font-size="10.00">chrom: chrX</text>
</g>
<!-- 6&#45;&gt;33 -->
<g id="edge85" class="edge">
<title>6&#45;&gt;33</title>
<path fill="none" stroke="grey" stroke-width="2" d="M1898.9,-376.73C1737.99,-375 917.92,-364.32 669.43,-324 578.54,-309.25 476.5,-276.72 415.14,-255.35"/>
<polygon fill="grey" stroke="grey" stroke-width="2" points="416.25,-252.02 405.65,-252.02 413.93,-258.63 416.25,-252.02"/>
</g>
<!-- 34 -->
<g id="node35" class="node">
<title>34</title>
<path fill="none" stroke="#ced856" stroke-width="2" stroke-dasharray="5,2" d="M2783.43,-180C2783.43,-180 2705.43,-180 2705.43,-180 2699.43,-180 2693.43,-174 2693.43,-168 2693.43,-168 2693.43,-156 2693.43,-156 2693.43,-150 2699.43,-144 2705.43,-144 2705.43,-144 2783.43,-144 2783.43,-144 2789.43,-144 2795.43,-150 2795.43,-156 2795.43,-156 2795.43,-168 2795.43,-168 2795.43,-174 2789.43,-180 2783.43,-180"/>
<text text-anchor="middle" x="2744.43" y="-159.5" font-family="sans" font-size="10.00">network_analysis</text>
</g>
<!-- 6&#45;&gt;34 -->
<g id="edge87" class="edge">
<title>6&#45;&gt;34</title>
<path fill="none" stroke="grey" stroke-width="2" d="M1954.02,-377.14C2158.15,-377.89 3429.35,-377.49 3536.43,-252 3546.82,-239.83 3547.36,-227.69 3536.43,-216 3486.88,-163.02 2983.07,-161.34 2805.76,-162.41"/>
<polygon fill="grey" stroke="grey" stroke-width="2" points="2805.54,-158.91 2795.56,-162.48 2805.58,-165.91 2805.54,-158.91"/>
</g>
<!-- 7&#45;&gt;1 -->
<g id="edge4" class="edge">
<title>7&#45;&gt;1</title>
<path fill="none" stroke="grey" stroke-width="2" d="M1699.33,-294.55C1676.96,-286.78 1651.76,-273.65 1638.43,-252 1630.05,-238.37 1630.4,-229.84 1638.43,-216 1673.96,-154.83 1751.89,-121.08 1804.54,-104.5"/>
<polygon fill="grey" stroke="grey" stroke-width="2" points="1805.83,-107.77 1814.38,-101.51 1803.8,-101.07 1805.83,-107.77"/>
</g>
<!-- 7&#45;&gt;8 -->
<g id="edge16" class="edge">
<title>7&#45;&gt;8</title>
<path fill="none" stroke="grey" stroke-width="2" d="M1699.17,-304.89C1476.22,-304.13 474.29,-298.26 141.89,-251.97"/>
<polygon fill="grey" stroke="grey" stroke-width="2" points="142.17,-248.48 131.78,-250.52 141.18,-255.41 142.17,-248.48"/>
</g>
<!-- 7&#45;&gt;11 -->
<g id="edge42" class="edge">
<title>7&#45;&gt;11</title>
<path fill="none" stroke="grey" stroke-width="2" d="M1699.34,-304.08C1517.09,-300.09 821.28,-283.23 579.92,-252.02"/>
<polygon fill="grey" stroke="grey" stroke-width="2" points="580.18,-248.52 569.8,-250.66 579.25,-255.46 580.18,-248.52"/>
</g>
<!-- 7&#45;&gt;12 -->
<g id="edge44" class="edge">
<title>7&#45;&gt;12</title>
<path fill="none" stroke="grey" stroke-width="2" d="M1698.97,-305.48C1557.7,-306.42 1106.51,-304.89 725.91,-252.06"/>
<polygon fill="grey" stroke="grey" stroke-width="2" points="726.19,-248.56 715.81,-250.64 725.22,-255.5 726.19,-248.56"/>
</g>
<!-- 7&#45;&gt;13 -->
<g id="edge46" class="edge">
<title>7&#45;&gt;13</title>
<path fill="none" stroke="grey" stroke-width="2" d="M1699.11,-304.93C1571.69,-304.18 1193.46,-298.06 871.79,-252.05"/>
<polygon fill="grey" stroke="grey" stroke-width="2" points="872.21,-248.58 861.81,-250.61 871.21,-255.51 872.21,-248.58"/>
</g>
<!-- 7&#45;&gt;14 -->
<g id="edge48" class="edge">
<title>7&#45;&gt;14</title>
<path fill="none" stroke="grey" stroke-width="2" d="M1699.33,-304.18C1587.02,-301.57 1281.13,-291.28 1017.95,-252.09"/>
<polygon fill="grey" stroke="grey" stroke-width="2" points="1018.23,-248.6 1007.82,-250.57 1017.18,-255.52 1018.23,-248.6"/>
</g>
<!-- 7&#45;&gt;15 -->
<g id="edge50" class="edge">
<title>7&#45;&gt;15</title>
<path fill="none" stroke="grey" stroke-width="2" d="M1699.08,-303.04C1603.09,-298.36 1368.88,-284.51 1163.87,-252.11"/>
<polygon fill="grey" stroke="grey" stroke-width="2" points="1164.25,-248.63 1153.83,-250.5 1163.15,-255.54 1164.25,-248.63"/>
</g>
<!-- 7&#45;&gt;16 -->
<g id="edge52" class="edge">
<title>7&#45;&gt;16</title>
<path fill="none" stroke="grey" stroke-width="2" d="M1699.36,-301.21C1622.32,-294.24 1458,-277.86 1309.65,-252.11"/>
<polygon fill="grey" stroke="grey" stroke-width="2" points="1309.9,-248.6 1299.45,-250.32 1308.69,-255.49 1309.9,-248.6"/>
</g>
<!-- 7&#45;&gt;17 -->
<g id="edge54" class="edge">
<title>7&#45;&gt;17</title>
<path fill="none" stroke="grey" stroke-width="2" d="M1699.24,-297.57C1644.38,-288.19 1547.73,-271.19 1455.29,-252.13"/>
<polygon fill="grey" stroke="grey" stroke-width="2" points="1455.99,-248.7 1445.49,-250.1 1454.57,-255.56 1455.99,-248.7"/>
</g>
<!-- 7&#45;&gt;18 -->
<g id="edge56" class="edge">
<title>7&#45;&gt;18</title>
<path fill="none" stroke="grey" stroke-width="2" d="M1699.2,-290.67C1667.61,-280.43 1624.69,-266.52 1589.65,-255.16"/>
<polygon fill="grey" stroke="grey" stroke-width="2" points="1590.58,-251.79 1579.99,-252.03 1588.42,-258.44 1590.58,-251.79"/>
</g>
<!-- 7&#45;&gt;19 -->
<g id="edge58" class="edge">
<title>7&#45;&gt;19</title>
<path fill="none" stroke="grey" stroke-width="2" d="M1735.52,-287.7C1731.88,-279.73 1727.48,-270.1 1723.44,-261.26"/>
<polygon fill="grey" stroke="grey" stroke-width="2" points="1726.59,-259.74 1719.25,-252.1 1720.23,-262.65 1726.59,-259.74"/>
</g>
<!-- 7&#45;&gt;20 -->
<g id="edge60" class="edge">
<title>7&#45;&gt;20</title>
<path fill="none" stroke="grey" stroke-width="2" d="M1771.32,-287.88C1786.23,-278.72 1804.76,-267.34 1820.82,-257.48"/>
<polygon fill="grey" stroke="grey" stroke-width="2" points="1822.75,-260.41 1829.44,-252.19 1819.09,-254.44 1822.75,-260.41"/>
</g>
<!-- 7&#45;&gt;21 -->
<g id="edge62" class="edge">
<title>7&#45;&gt;21</title>
<path fill="none" stroke="grey" stroke-width="2" d="M1787.54,-293.13C1826.55,-282.62 1884.23,-267.09 1930.16,-254.73"/>
<polygon fill="grey" stroke="grey" stroke-width="2" points="1931.33,-258.04 1940.07,-252.06 1929.51,-251.28 1931.33,-258.04"/>
</g>
<!-- 7&#45;&gt;22 -->
<g id="edge64" class="edge">
<title>7&#45;&gt;22</title>
<path fill="none" stroke="grey" stroke-width="2" d="M1787.51,-299C1849.55,-290.33 1966.36,-273.2 2075.53,-252.1"/>
<polygon fill="grey" stroke="grey" stroke-width="2" points="2076.25,-255.53 2085.4,-250.18 2074.91,-248.66 2076.25,-255.53"/>
</g>
<!-- 7&#45;&gt;23 -->
<g id="edge66" class="edge">
<title>7&#45;&gt;23</title>
<path fill="none" stroke="grey" stroke-width="2" d="M1787.6,-301.87C1870.69,-295.61 2056.05,-279.84 2221.56,-252.03"/>
<polygon fill="grey" stroke="grey" stroke-width="2" points="2222.16,-255.48 2231.43,-250.36 2220.98,-248.58 2222.16,-255.48"/>
</g>
<!-- 7&#45;&gt;24 -->
<g id="edge68" class="edge">
<title>7&#45;&gt;24</title>
<path fill="none" stroke="grey" stroke-width="2" d="M1787.65,-303.44C1888.74,-299.41 2144.59,-286.54 2367.14,-252.08"/>
<polygon fill="grey" stroke="grey" stroke-width="2" points="2367.71,-255.53 2377.05,-250.53 2366.63,-248.62 2367.71,-255.53"/>
</g>
<!-- 7&#45;&gt;25 -->
<g id="edge70" class="edge">
<title>7&#45;&gt;25</title>
<path fill="none" stroke="grey" stroke-width="2" d="M1787.6,-304.43C1904.61,-302.41 2232.3,-293.32 2513.09,-252.06"/>
<polygon fill="grey" stroke="grey" stroke-width="2" points="2513.68,-255.51 2523.06,-250.58 2512.65,-248.59 2513.68,-255.51"/>
</g>
<!-- 7&#45;&gt;26 -->
<g id="edge72" class="edge">
<title>7&#45;&gt;26</title>
<path fill="none" stroke="grey" stroke-width="2" d="M1787.61,-305.12C1919.11,-304.9 2319.48,-300.14 2659.03,-252.06"/>
<polygon fill="grey" stroke="grey" stroke-width="2" points="2659.66,-255.5 2669.06,-250.62 2658.67,-248.57 2659.66,-255.5"/>
</g>
<!-- 7&#45;&gt;27 -->
<g id="edge74" class="edge">
<title>7&#45;&gt;27</title>
<path fill="none" stroke="grey" stroke-width="2" d="M1787.49,-305.61C1932.23,-307.04 2406.2,-307 2805.07,-252.04"/>
<polygon fill="grey" stroke="grey" stroke-width="2" points="2805.64,-255.49 2815.07,-250.65 2804.68,-248.56 2805.64,-255.49"/>
</g>
<!-- 7&#45;&gt;28 -->
<g id="edge76" class="edge">
<title>7&#45;&gt;28</title>
<path fill="none" stroke="grey" stroke-width="2" d="M1787.59,-304.16C1974.29,-300.44 2700.38,-284.25 2950.93,-252.02"/>
<polygon fill="grey" stroke="grey" stroke-width="2" points="2951.62,-255.46 2961.07,-250.67 2950.69,-248.52 2951.62,-255.46"/>
</g>
<!-- 7&#45;&gt;29 -->
<g id="edge78" class="edge">
<title>7&#45;&gt;29</title>
<path fill="none" stroke="grey" stroke-width="2" d="M1787.7,-304.4C1988.5,-301.5 2815.85,-287.65 3096.9,-252.02"/>
<polygon fill="grey" stroke="grey" stroke-width="2" points="3097.61,-255.46 3107.07,-250.69 3096.7,-248.51 3097.61,-255.46"/>
</g>
<!-- 7&#45;&gt;30 -->
<g id="edge80" class="edge">
<title>7&#45;&gt;30</title>
<path fill="none" stroke="grey" stroke-width="2" d="M1787.69,-304.59C2001.74,-302.45 2931.74,-291.09 3243.15,-251.98"/>
<polygon fill="grey" stroke="grey" stroke-width="2" points="3243.6,-255.45 3253.07,-250.7 3242.71,-248.51 3243.6,-255.45"/>
</g>
<!-- 7&#45;&gt;31 -->
<g id="edge82" class="edge">
<title>7&#45;&gt;31</title>
<path fill="none" stroke="grey" stroke-width="2" d="M1787.75,-304.75C2014.45,-303.31 3046.65,-294.54 3388.91,-252.01"/>
<polygon fill="grey" stroke="grey" stroke-width="2" points="3389.6,-255.45 3399.07,-250.71 3388.71,-248.51 3389.6,-255.45"/>
</g>
<!-- 7&#45;&gt;32 -->
<g id="edge84" class="edge">
<title>7&#45;&gt;32</title>
<path fill="none" stroke="grey" stroke-width="2" d="M1699.43,-304.54C1489.77,-302.18 590.31,-290.07 287.87,-252"/>
<polygon fill="grey" stroke="grey" stroke-width="2" points="288.16,-248.51 277.8,-250.7 287.26,-255.45 288.16,-248.51"/>
</g>
<!-- 7&#45;&gt;33 -->
<g id="edge86" class="edge">
<title>7&#45;&gt;33</title>
<path fill="none" stroke="grey" stroke-width="2" d="M1699.29,-304.33C1502.81,-301.19 705.98,-286.63 434.03,-252.03"/>
<polygon fill="grey" stroke="grey" stroke-width="2" points="434.17,-248.52 423.8,-250.68 433.26,-255.46 434.17,-248.52"/>
</g>
<!-- 8&#45;&gt;1 -->
<g id="edge5" class="edge">
<title>8&#45;&gt;1</title>
<path fill="none" stroke="grey" stroke-width="2" d="M131.45,-217.69C134.48,-217.06 137.49,-216.49 140.43,-216 789.38,-107.17 1592.02,-93.08 1804.05,-91.26"/>
<polygon fill="grey" stroke="grey" stroke-width="2" points="1804.31,-94.76 1814.28,-91.18 1804.25,-87.76 1804.31,-94.76"/>
</g>
<!-- 9 -->
<g id="node10" class="node">
<title>9</title>
<path fill="none" stroke="#567bd8" stroke-width="2" stroke-dasharray="5,2" d="M154.43,-324C154.43,-324 116.43,-324 116.43,-324 110.43,-324 104.43,-318 104.43,-312 104.43,-312 104.43,-300 104.43,-300 104.43,-294 110.43,-288 116.43,-288 116.43,-288 154.43,-288 154.43,-288 160.43,-288 166.43,-294 166.43,-300 166.43,-300 166.43,-312 166.43,-312 166.43,-318 160.43,-324 154.43,-324"/>
<text text-anchor="middle" x="135.43" y="-303.5" font-family="sans" font-size="10.00">literature</text>
</g>
<!-- 9&#45;&gt;8 -->
<g id="edge15" class="edge">
<title>9&#45;&gt;8</title>
<path fill="none" stroke="grey" stroke-width="2" d="M120.85,-287.7C113.78,-279.3 105.15,-269.07 97.39,-259.86"/>
<polygon fill="grey" stroke="grey" stroke-width="2" points="99.97,-257.49 90.85,-252.1 94.62,-262.01 99.97,-257.49"/>
</g>
<!-- 10 -->
<g id="node11" class="node">
<title>10</title>
<path fill="none" stroke="#56d86b" stroke-width="2" stroke-dasharray="5,2" d="M1891.93,-180C1891.93,-180 1822.93,-180 1822.93,-180 1816.93,-180 1810.93,-174 1810.93,-168 1810.93,-168 1810.93,-156 1810.93,-156 1810.93,-150 1816.93,-144 1822.93,-144 1822.93,-144 1891.93,-144 1891.93,-144 1897.93,-144 1903.93,-150 1903.93,-156 1903.93,-156 1903.93,-168 1903.93,-168 1903.93,-174 1897.93,-180 1891.93,-180"/>
<text text-anchor="middle" x="1857.43" y="-159.5" font-family="sans" font-size="10.00">merge_variants</text>
</g>
<!-- 10&#45;&gt;1 -->
<g id="edge7" class="edge">
<title>10&#45;&gt;1</title>
<path fill="none" stroke="grey" stroke-width="2" d="M1857.43,-143.7C1857.43,-135.98 1857.43,-126.71 1857.43,-118.11"/>
<polygon fill="grey" stroke="grey" stroke-width="2" points="1860.94,-118.1 1857.43,-108.1 1853.94,-118.1 1860.94,-118.1"/>
</g>
<!-- 11&#45;&gt;10 -->
<g id="edge18" class="edge">
<title>11&#45;&gt;10</title>
<path fill="none" stroke="grey" stroke-width="2" d="M569.8,-217.32C572.71,-216.83 575.6,-216.39 578.43,-216 819.75,-183.2 1585.27,-167.72 1800.59,-163.94"/>
<polygon fill="grey" stroke="grey" stroke-width="2" points="1800.79,-167.44 1810.72,-163.76 1800.66,-160.44 1800.79,-167.44"/>
</g>
<!-- 12&#45;&gt;10 -->
<g id="edge19" class="edge">
<title>12&#45;&gt;10</title>
<path fill="none" stroke="grey" stroke-width="2" d="M715.8,-217.34C718.71,-216.84 721.6,-216.39 724.43,-216 935.82,-186.69 1601.44,-169.02 1800.6,-164.29"/>
<polygon fill="grey" stroke="grey" stroke-width="2" points="1800.92,-167.78 1810.84,-164.05 1800.76,-160.78 1800.92,-167.78"/>
</g>
<!-- 13&#45;&gt;10 -->
<g id="edge20" class="edge">
<title>13&#45;&gt;10</title>
<path fill="none" stroke="grey" stroke-width="2" d="M861.81,-217.37C864.71,-216.86 867.6,-216.4 870.43,-216 1221.69,-166.06 1649.35,-162.22 1800.9,-162.59"/>
<polygon fill="grey" stroke="grey" stroke-width="2" points="1800.89,-166.09 1810.91,-162.62 1800.92,-159.09 1800.89,-166.09"/>
</g>
<!-- 14&#45;&gt;10 -->
<g id="edge21" class="edge">
<title>14&#45;&gt;10</title>
<path fill="none" stroke="grey" stroke-width="2" d="M1007.81,-217.4C1010.72,-216.89 1013.6,-216.42 1016.43,-216 1309.15,-173 1664.22,-164.86 1800.46,-163.34"/>
<polygon fill="grey" stroke="grey" stroke-width="2" points="1800.69,-166.84 1810.66,-163.23 1800.62,-159.84 1800.69,-166.84"/>
</g>
<!-- 15&#45;&gt;10 -->
<g id="edge22" class="edge">
<title>15&#45;&gt;10</title>
<path fill="none" stroke="grey" stroke-width="2" d="M1153.82,-217.44C1156.72,-216.92 1159.61,-216.43 1162.43,-216 1397.54,-179.88 1681.36,-167.98 1800.47,-164.4"/>
<polygon fill="grey" stroke="grey" stroke-width="2" points="1800.9,-167.89 1810.79,-164.1 1800.7,-160.89 1800.9,-167.89"/>
</g>
<!-- 16&#45;&gt;10 -->
<g id="edge23" class="edge">
<title>16&#45;&gt;10</title>
<path fill="none" stroke="grey" stroke-width="2" d="M1299.83,-217.52C1302.73,-216.97 1305.61,-216.46 1308.43,-216 1486.86,-186.74 1700.74,-171.81 1800.71,-165.99"/>
<polygon fill="grey" stroke="grey" stroke-width="2" points="1801.11,-169.47 1810.89,-165.41 1800.71,-162.48 1801.11,-169.47"/>
</g>
<!-- 17&#45;&gt;10 -->
<g id="edge24" class="edge">
<title>17&#45;&gt;10</title>
<path fill="none" stroke="grey" stroke-width="2" d="M1445.46,-217.72C1448.49,-217.11 1451.49,-216.54 1454.43,-216 1577.03,-193.72 1722.23,-176.96 1800.53,-168.71"/>
<polygon fill="grey" stroke="grey" stroke-width="2" points="1801.08,-172.17 1810.66,-167.65 1800.35,-165.2 1801.08,-172.17"/>
</g>
<!-- 18&#45;&gt;10 -->
<g id="edge25" class="edge">
<title>18&#45;&gt;10</title>
<path fill="none" stroke="grey" stroke-width="2" d="M1591.45,-219.42C1652.19,-206.54 1742.59,-187.36 1800.77,-175.02"/>
<polygon fill="grey" stroke="grey" stroke-width="2" points="1801.84,-178.37 1810.89,-172.87 1800.38,-171.52 1801.84,-178.37"/>
</g>
<!-- 19&#45;&gt;10 -->
<g id="edge26" class="edge">
<title>19&#45;&gt;10</title>
<path fill="none" stroke="grey" stroke-width="2" d="M1747.15,-215.88C1766.93,-206.39 1791.71,-194.51 1812.76,-184.42"/>
<polygon fill="grey" stroke="grey" stroke-width="2" points="1814.33,-187.55 1821.84,-180.07 1811.31,-181.24 1814.33,-187.55"/>
</g>
<!-- 20&#45;&gt;10 -->
<g id="edge27" class="edge">
<title>20&#45;&gt;10</title>
<path fill="none" stroke="grey" stroke-width="2" d="M1857.43,-215.7C1857.43,-207.98 1857.43,-198.71 1857.43,-190.11"/>
<polygon fill="grey" stroke="grey" stroke-width="2" points="1860.94,-190.1 1857.43,-180.1 1853.94,-190.1 1860.94,-190.1"/>
</g>
<!-- 21&#45;&gt;10 -->
<g id="edge28" class="edge">
<title>21&#45;&gt;10</title>
<path fill="none" stroke="grey" stroke-width="2" d="M1967.72,-215.88C1947.94,-206.39 1923.16,-194.51 1902.11,-184.42"/>
<polygon fill="grey" stroke="grey" stroke-width="2" points="1903.56,-181.24 1893.03,-180.07 1900.54,-187.55 1903.56,-181.24"/>
</g>
<!-- 22&#45;&gt;10 -->
<g id="edge29" class="edge">
<title>22&#45;&gt;10</title>
<path fill="none" stroke="grey" stroke-width="2" d="M2085.35,-217.64C2034.15,-205.36 1963.08,-188.33 1913.97,-176.55"/>
<polygon fill="grey" stroke="grey" stroke-width="2" points="1914.69,-173.13 1904.15,-174.2 1913.06,-179.93 1914.69,-173.13"/>
</g>
<!-- 23&#45;&gt;10 -->
<g id="edge30" class="edge">
<title>23&#45;&gt;10</title>
<path fill="none" stroke="grey" stroke-width="2" d="M2231.41,-217.77C2228.38,-217.15 2225.38,-216.55 2222.43,-216 2114.03,-195.55 1986.23,-178.62 1914.23,-169.74"/>
<polygon fill="grey" stroke="grey" stroke-width="2" points="1914.38,-166.23 1904.03,-168.48 1913.53,-173.17 1914.38,-166.23"/>
</g>
<!-- 24&#45;&gt;10 -->
<g id="edge31" class="edge">
<title>24&#45;&gt;10</title>
<path fill="none" stroke="grey" stroke-width="2" d="M2377.43,-217.62C2374.4,-217.04 2371.39,-216.49 2368.43,-216 2204.8,-188.57 2009.15,-173.02 1914.42,-166.57"/>
<polygon fill="grey" stroke="grey" stroke-width="2" points="1914.41,-163.06 1904.2,-165.88 1913.94,-170.04 1914.41,-163.06"/>
</g>
<!-- 25&#45;&gt;10 -->
<g id="edge32" class="edge">
<title>25&#45;&gt;10</title>
<path fill="none" stroke="grey" stroke-width="2" d="M2523.05,-217.46C2520.15,-216.93 2517.26,-216.44 2514.43,-216 2294.32,-181.69 2029.05,-168.91 1914.59,-164.76"/>
<polygon fill="grey" stroke="grey" stroke-width="2" points="1914.43,-161.25 1904.31,-164.4 1914.18,-168.25 1914.43,-161.25"/>
</g>
<!-- 26&#45;&gt;10 -->
<g id="edge33" class="edge">
<title>26&#45;&gt;10</title>
<path fill="none" stroke="grey" stroke-width="2" d="M2669.06,-217.41C2666.15,-216.89 2663.27,-216.42 2660.43,-216 2382.92,-174.81 2046.68,-165.63 1914.61,-163.58"/>
<polygon fill="grey" stroke="grey" stroke-width="2" points="1914.38,-160.08 1904.33,-163.43 1914.28,-167.08 1914.38,-160.08"/>
</g>
<!-- 27&#45;&gt;10 -->
<g id="edge34" class="edge">
<title>27&#45;&gt;10</title>
<path fill="none" stroke="grey" stroke-width="2" d="M2815.06,-217.37C2812.15,-216.87 2809.27,-216.41 2806.43,-216 2470.65,-167.89 2062.22,-162.87 1914.32,-162.76"/>
<polygon fill="grey" stroke="grey" stroke-width="2" points="1914.13,-159.26 1904.13,-162.76 1914.13,-166.26 1914.13,-159.26"/>
</g>
<!-- 28&#45;&gt;10 -->
<g id="edge35" class="edge">
<title>28&#45;&gt;10</title>
<path fill="none" stroke="grey" stroke-width="2" d="M2961.07,-217.35C2958.16,-216.85 2955.27,-216.4 2952.43,-216 2748.73,-187.59 2108.48,-169.37 1914.01,-164.39"/>
<polygon fill="grey" stroke="grey" stroke-width="2" points="1914.09,-160.89 1904.01,-164.13 1913.91,-167.89 1914.09,-160.89"/>
</g>
<!-- 29&#45;&gt;10 -->
<g id="edge36" class="edge">
<title>29&#45;&gt;10</title>
<path fill="none" stroke="grey" stroke-width="2" d="M3107.07,-217.33C3104.16,-216.83 3101.27,-216.39 3098.43,-216 2864.94,-184.11 2125.59,-168.04 1914.32,-164.02"/>
<polygon fill="grey" stroke="grey" stroke-width="2" points="1914.14,-160.52 1904.08,-163.83 1914.01,-167.52 1914.14,-160.52"/>
</g>
<!-- 30&#45;&gt;10 -->
<g id="edge37" class="edge">
<title>30&#45;&gt;10</title>
<path fill="none" stroke="grey" stroke-width="2" d="M3253.07,-217.31C3250.16,-216.82 3247.27,-216.38 3244.43,-216 2980.85,-180.6 2140.64,-166.84 1914.15,-163.73"/>
<polygon fill="grey" stroke="grey" stroke-width="2" points="1914.19,-160.23 1904.14,-163.59 1914.09,-167.22 1914.19,-160.23"/>
</g>
<!-- 31&#45;&gt;10 -->
<g id="edge38" class="edge">
<title>31&#45;&gt;10</title>
<path fill="none" stroke="grey" stroke-width="2" d="M3399.07,-217.3C3396.16,-216.81 3393.27,-216.38 3390.43,-216 3242.26,-196.37 2174.9,-170.41 1914.58,-164.32"/>
<polygon fill="grey" stroke="grey" stroke-width="2" points="1914.3,-160.81 1904.22,-164.08 1914.14,-167.81 1914.3,-160.81"/>
</g>
<!-- 32&#45;&gt;10 -->
<g id="edge39" class="edge">
<title>32&#45;&gt;10</title>
<path fill="none" stroke="grey" stroke-width="2" d="M277.8,-217.29C280.71,-216.81 283.6,-216.37 286.43,-216 587.99,-176.19 1555.62,-165.52 1800.63,-163.43"/>
<polygon fill="grey" stroke="grey" stroke-width="2" points="1800.77,-166.93 1810.74,-163.35 1800.71,-159.93 1800.77,-166.93"/>
</g>
<!-- 33&#45;&gt;10 -->
<g id="edge40" class="edge">
<title>33&#45;&gt;10</title>
<path fill="none" stroke="grey" stroke-width="2" d="M423.8,-217.31C426.71,-216.82 429.6,-216.38 432.43,-216 703.86,-179.69 1570.33,-166.56 1800.72,-163.66"/>
<polygon fill="grey" stroke="grey" stroke-width="2" points="1800.93,-167.16 1810.89,-163.53 1800.84,-160.16 1800.93,-167.16"/>
</g>
<!-- 34&#45;&gt;1 -->
<g id="edge8" class="edge">
<title>34&#45;&gt;1</title>
<path fill="none" stroke="grey" stroke-width="2" d="M2693.24,-156.96C2537.28,-144.65 2069.12,-107.71 1910.59,-95.19"/>
<polygon fill="grey" stroke="grey" stroke-width="2" points="1910.85,-91.7 1900.6,-94.41 1910.29,-98.68 1910.85,-91.7"/>
</g>
</g>
</svg>
