<?xml version="1.0" encoding="UTF-8" standalone="no"?>
<!DOCTYPE svg PUBLIC "-//W3C//DTD SVG 1.1//EN"
 "http://www.w3.org/Graphics/SVG/1.1/DTD/svg11.dtd">
<!-- Generated by graphviz version 2.47.1 (20210418.0311)
 -->
<!-- Title: snakemake_dag Pages: 1 -->
<svg width="296pt" height="476pt"
 viewBox="0.00 0.00 296.00 476.00" xmlns="http://www.w3.org/2000/svg" xmlns:xlink="http://www.w3.org/1999/xlink">
<g id="graph0" class="graph" transform="scale(1 1) rotate(0) translate(4 472)">
<title>snakemake_dag</title>
<polygon fill="white" stroke="transparent" points="-4,4 -4,-472 292,-472 292,4 -4,4"/>
<!-- 0 -->
<g id="node1" class="node">
<title>0</title>
<path fill="none" stroke="#d8cb56" stroke-width="2" d="M146,-36C146,-36 116,-36 116,-36 110,-36 104,-30 104,-24 104,-24 104,-12 104,-12 104,-6 110,0 116,0 116,0 146,0 146,0 152,0 158,-6 158,-12 158,-12 158,-24 158,-24 158,-30 152,-36 146,-36"/>
<text text-anchor="middle" x="131" y="-15.5" font-family="sans" font-size="10.00">all</text>
</g>
<!-- 1 -->
<g id="node2" class="node">
<title>1</title>
<path fill="none" stroke="#5692d8" stroke-width="2" d="M162,-108C162,-108 100,-108 100,-108 94,-108 88,-102 88,-96 88,-96 88,-84 88,-84 88,-78 94,-72 100,-72 100,-72 162,-72 162,-72 168,-72 174,-78 174,-84 174,-84 174,-96 174,-96 174,-102 168,-108 162,-108"/>
<text text-anchor="middle" x="131" y="-87.5" font-family="sans" font-size="10.00">collect_output</text>
</g>
<!-- 1&#45;&gt;0 -->
<g id="edge1" class="edge">
<title>1&#45;&gt;0</title>
<path fill="none" stroke="grey" stroke-width="2" d="M131,-71.7C131,-63.98 131,-54.71 131,-46.11"/>
<polygon fill="grey" stroke="grey" stroke-width="2" points="134.5,-46.1 131,-36.1 127.5,-46.1 134.5,-46.1"/>
</g>
<!-- 2 -->
<g id="node3" class="node">
<title>2</title>
<path fill="none" stroke="#56d8a9" stroke-width="2" d="M72,-252C72,-252 12,-252 12,-252 6,-252 0,-246 0,-240 0,-240 0,-228 0,-228 0,-222 6,-216 12,-216 12,-216 72,-216 72,-216 78,-216 84,-222 84,-228 84,-228 84,-240 84,-240 84,-246 78,-252 72,-252"/>
<text text-anchor="middle" x="42" y="-231.5" font-family="sans" font-size="10.00">outrider_plots</text>
</g>
<!-- 2&#45;&gt;1 -->
<g id="edge4" class="edge">
<title>2&#45;&gt;1</title>
<path fill="none" stroke="grey" stroke-width="2" d="M52.74,-215.87C68.17,-191.24 96.76,-145.64 114.78,-116.88"/>
<polygon fill="grey" stroke="grey" stroke-width="2" points="117.88,-118.52 120.23,-108.19 111.95,-114.8 117.88,-118.52"/>
</g>
<!-- 3 -->
<g id="node4" class="node">
<title>3</title>
<path fill="none" stroke="#56c9d8" stroke-width="2" d="M103.5,-396C103.5,-396 50.5,-396 50.5,-396 44.5,-396 38.5,-390 38.5,-384 38.5,-384 38.5,-372 38.5,-372 38.5,-366 44.5,-360 50.5,-360 50.5,-360 103.5,-360 103.5,-360 109.5,-360 115.5,-366 115.5,-372 115.5,-372 115.5,-384 115.5,-384 115.5,-390 109.5,-396 103.5,-396"/>
<text text-anchor="middle" x="77" y="-375.5" font-family="sans" font-size="10.00">filter_counts</text>
</g>
<!-- 3&#45;&gt;2 -->
<g id="edge7" class="edge">
<title>3&#45;&gt;2</title>
<path fill="none" stroke="grey" stroke-width="2" d="M72.78,-359.87C66.79,-335.56 55.76,-290.82 48.66,-262.01"/>
<polygon fill="grey" stroke="grey" stroke-width="2" points="52.03,-261.06 46.24,-252.19 45.23,-262.74 52.03,-261.06"/>
</g>
<!-- 5 -->
<g id="node6" class="node">
<title>5</title>
<path fill="none" stroke="#d85656" stroke-width="2" d="M127.5,-324C127.5,-324 96.5,-324 96.5,-324 90.5,-324 84.5,-318 84.5,-312 84.5,-312 84.5,-300 84.5,-300 84.5,-294 90.5,-288 96.5,-288 96.5,-288 127.5,-288 127.5,-288 133.5,-288 139.5,-294 139.5,-300 139.5,-300 139.5,-312 139.5,-312 139.5,-318 133.5,-324 127.5,-324"/>
<text text-anchor="middle" x="112" y="-303.5" font-family="sans" font-size="10.00">outrider</text>
</g>
<!-- 3&#45;&gt;5 -->
<g id="edge9" class="edge">
<title>3&#45;&gt;5</title>
<path fill="none" stroke="grey" stroke-width="2" d="M85.65,-359.7C89.64,-351.73 94.45,-342.1 98.87,-333.26"/>
<polygon fill="grey" stroke="grey" stroke-width="2" points="102.11,-334.61 103.45,-324.1 95.85,-331.48 102.11,-334.61"/>
</g>
<!-- 4 -->
<g id="node5" class="node">
<title>4</title>
<path fill="none" stroke="#d88d56" stroke-width="2" d="M122.5,-468C122.5,-468 31.5,-468 31.5,-468 25.5,-468 19.5,-462 19.5,-456 19.5,-456 19.5,-444 19.5,-444 19.5,-438 25.5,-432 31.5,-432 31.5,-432 122.5,-432 122.5,-432 128.5,-432 134.5,-438 134.5,-444 134.5,-444 134.5,-456 134.5,-456 134.5,-462 128.5,-468 122.5,-468"/>
<text text-anchor="middle" x="77" y="-447.5" font-family="sans" font-size="10.00">merge_gene_counts</text>
</g>
<!-- 4&#45;&gt;3 -->
<g id="edge8" class="edge">
<title>4&#45;&gt;3</title>
<path fill="none" stroke="grey" stroke-width="2" d="M77,-431.7C77,-423.98 77,-414.71 77,-406.11"/>
<polygon fill="grey" stroke="grey" stroke-width="2" points="80.5,-406.1 77,-396.1 73.5,-406.1 80.5,-406.1"/>
</g>
<!-- 5&#45;&gt;1 -->
<g id="edge2" class="edge">
<title>5&#45;&gt;1</title>
<path fill="none" stroke="grey" stroke-width="2" d="M113.52,-287.85C116.81,-250.83 124.59,-163.18 128.57,-118.39"/>
<polygon fill="grey" stroke="grey" stroke-width="2" points="132.07,-118.5 129.47,-108.23 125.1,-117.88 132.07,-118.5"/>
</g>
<!-- 5&#45;&gt;2 -->
<g id="edge6" class="edge">
<title>5&#45;&gt;2</title>
<path fill="none" stroke="grey" stroke-width="2" d="M94.7,-287.7C86.14,-279.14 75.66,-268.66 66.3,-259.3"/>
<polygon fill="grey" stroke="grey" stroke-width="2" points="68.65,-256.7 59.1,-252.1 63.7,-261.65 68.65,-256.7"/>
</g>
<!-- 6 -->
<g id="node7" class="node">
<title>6</title>
<path fill="none" stroke="#56d873" stroke-width="2" d="M216,-252C216,-252 152,-252 152,-252 146,-252 140,-246 140,-240 140,-240 140,-228 140,-228 140,-222 146,-216 152,-216 152,-216 216,-216 216,-216 222,-216 228,-222 228,-228 228,-228 228,-240 228,-240 228,-246 222,-252 216,-252"/>
<text text-anchor="middle" x="184" y="-231.5" font-family="sans" font-size="10.00">outliers_genes</text>
</g>
<!-- 5&#45;&gt;6 -->
<g id="edge10" class="edge">
<title>5&#45;&gt;6</title>
<path fill="none" stroke="grey" stroke-width="2" d="M129.8,-287.7C138.6,-279.14 149.38,-268.66 159,-259.3"/>
<polygon fill="grey" stroke="grey" stroke-width="2" points="161.68,-261.58 166.41,-252.1 156.8,-256.57 161.68,-261.58"/>
</g>
<!-- 7 -->
<g id="node8" class="node">
<title>7</title>
<path fill="none" stroke="#70d856" stroke-width="2" d="M276,-180C276,-180 190,-180 190,-180 184,-180 178,-174 178,-168 178,-168 178,-156 178,-156 178,-150 184,-144 190,-144 190,-144 276,-144 276,-144 282,-144 288,-150 288,-156 288,-156 288,-168 288,-168 288,-174 282,-180 276,-180"/>
<text text-anchor="middle" x="233" y="-159.5" font-family="sans" font-size="10.00">compare_literature</text>
</g>
<!-- 5&#45;&gt;7 -->
<g id="edge11" class="edge">
<title>5&#45;&gt;7</title>
<path fill="none" stroke="grey" stroke-width="2" d="M139.74,-302.01C169.53,-297.15 215.46,-284.53 237,-252 248.96,-233.94 246.64,-209 242.08,-190.11"/>
<polygon fill="grey" stroke="grey" stroke-width="2" points="245.41,-189.05 239.39,-180.33 238.66,-190.9 245.41,-189.05"/>
</g>
<!-- 6&#45;&gt;1 -->
<g id="edge3" class="edge">
<title>6&#45;&gt;1</title>
<path fill="none" stroke="grey" stroke-width="2" d="M177.61,-215.87C168.49,-191.46 151.69,-146.43 140.94,-117.64"/>
<polygon fill="grey" stroke="grey" stroke-width="2" points="144.19,-116.33 137.42,-108.19 137.63,-118.78 144.19,-116.33"/>
</g>
<!-- 6&#45;&gt;7 -->
<g id="edge12" class="edge">
<title>6&#45;&gt;7</title>
<path fill="none" stroke="grey" stroke-width="2" d="M196.11,-215.7C201.87,-207.47 208.86,-197.48 215.21,-188.42"/>
<polygon fill="grey" stroke="grey" stroke-width="2" points="218.16,-190.3 221.03,-180.1 212.42,-186.29 218.16,-190.3"/>
</g>
<!-- 7&#45;&gt;1 -->
<g id="edge5" class="edge">
<title>7&#45;&gt;1</title>
<path fill="none" stroke="grey" stroke-width="2" d="M208.05,-143.88C194.96,-134.89 178.74,-123.76 164.56,-114.03"/>
<polygon fill="grey" stroke="grey" stroke-width="2" points="166.27,-110.96 156.05,-108.19 162.31,-116.73 166.27,-110.96"/>
</g>
</g>
</svg>
