<?xml version="1.0" encoding="UTF-8" standalone="no"?>
<!DOCTYPE svg PUBLIC "-//W3C//DTD SVG 1.1//EN"
 "http://www.w3.org/Graphics/SVG/1.1/DTD/svg11.dtd">
<!-- Generated by graphviz version 2.47.1 (20210418.0311)
 -->
<!-- Title: snakemake_dag Pages: 1 -->
<svg width="541pt" height="620pt"
 viewBox="0.00 0.00 541.33 620.00" xmlns="http://www.w3.org/2000/svg" xmlns:xlink="http://www.w3.org/1999/xlink">
<g id="graph0" class="graph" transform="scale(1 1) rotate(0) translate(4 616)">
<title>snakemake_dag</title>
<polygon fill="white" stroke="transparent" points="-4,4 -4,-616 537.33,-616 537.33,4 -4,4"/>
<!-- 0 -->
<g id="node1" class="node">
<title>0</title>
<path fill="none" stroke="#d85656" stroke-width="2" d="M252.83,-36C252.83,-36 222.83,-36 222.83,-36 216.83,-36 210.83,-30 210.83,-24 210.83,-24 210.83,-12 210.83,-12 210.83,-6 216.83,0 222.83,0 222.83,0 252.83,0 252.83,0 258.83,0 264.83,-6 264.83,-12 264.83,-12 264.83,-24 264.83,-24 264.83,-30 258.83,-36 252.83,-36"/>
<text text-anchor="middle" x="237.83" y="-15.5" font-family="sans" font-size="10.00">all</text>
</g>
<!-- 1 -->
<g id="node2" class="node">
<title>1</title>
<path fill="none" stroke="#56d0d8" stroke-width="2" d="M268.83,-108C268.83,-108 206.83,-108 206.83,-108 200.83,-108 194.83,-102 194.83,-96 194.83,-96 194.83,-84 194.83,-84 194.83,-78 200.83,-72 206.83,-72 206.83,-72 268.83,-72 268.83,-72 274.83,-72 280.83,-78 280.83,-84 280.83,-84 280.83,-96 280.83,-96 280.83,-102 274.83,-108 268.83,-108"/>
<text text-anchor="middle" x="237.83" y="-87.5" font-family="sans" font-size="10.00">collect_output</text>
</g>
<!-- 1&#45;&gt;0 -->
<g id="edge1" class="edge">
<title>1&#45;&gt;0</title>
<path fill="none" stroke="grey" stroke-width="2" d="M237.83,-71.7C237.83,-63.98 237.83,-54.71 237.83,-46.11"/>
<polygon fill="grey" stroke="grey" stroke-width="2" points="241.33,-46.1 237.83,-36.1 234.33,-46.1 241.33,-46.1"/>
</g>
<!-- 2 -->
<g id="node3" class="node">
<title>2</title>
<path fill="none" stroke="#d8d356" stroke-width="2" d="M61.83,-396C61.83,-396 31.83,-396 31.83,-396 25.83,-396 19.83,-390 19.83,-384 19.83,-384 19.83,-372 19.83,-372 19.83,-366 25.83,-360 31.83,-360 31.83,-360 61.83,-360 61.83,-360 67.83,-360 73.83,-366 73.83,-372 73.83,-372 73.83,-384 73.83,-384 73.83,-390 67.83,-396 61.83,-396"/>
<text text-anchor="middle" x="46.83" y="-375.5" font-family="sans" font-size="10.00">umap</text>
</g>
<!-- 2&#45;&gt;1 -->
<g id="edge5" class="edge">
<title>2&#45;&gt;1</title>
<path fill="none" stroke="grey" stroke-width="2" d="M37.89,-359.84C17.45,-317.95 -27.15,-209.14 23.83,-144 43.42,-118.96 127.73,-104.1 184.5,-96.75"/>
<polygon fill="grey" stroke="grey" stroke-width="2" points="185.26,-100.18 194.75,-95.46 184.39,-93.23 185.26,-100.18"/>
</g>
<!-- 3 -->
<g id="node4" class="node">
<title>3</title>
<path fill="none" stroke="#5673d8" stroke-width="2" d="M194.33,-612C194.33,-612 103.33,-612 103.33,-612 97.33,-612 91.33,-606 91.33,-600 91.33,-600 91.33,-588 91.33,-588 91.33,-582 97.33,-576 103.33,-576 103.33,-576 194.33,-576 194.33,-576 200.33,-576 206.33,-582 206.33,-588 206.33,-588 206.33,-600 206.33,-600 206.33,-606 200.33,-612 194.33,-612"/>
<text text-anchor="middle" x="148.83" y="-591.5" font-family="sans" font-size="10.00">merge_gene_counts</text>
</g>
<!-- 3&#45;&gt;2 -->
<g id="edge9" class="edge">
<title>3&#45;&gt;2</title>
<path fill="none" stroke="grey" stroke-width="2" d="M140.65,-575.85C122.89,-538.6 80.7,-450.07 59.47,-405.54"/>
<polygon fill="grey" stroke="grey" stroke-width="2" points="62.5,-403.75 55.04,-396.23 56.18,-406.77 62.5,-403.75"/>
</g>
<!-- 5 -->
<g id="node6" class="node">
<title>5</title>
<path fill="none" stroke="#56b1d8" stroke-width="2" d="M247.33,-540C247.33,-540 194.33,-540 194.33,-540 188.33,-540 182.33,-534 182.33,-528 182.33,-528 182.33,-516 182.33,-516 182.33,-510 188.33,-504 194.33,-504 194.33,-504 247.33,-504 247.33,-504 253.33,-504 259.33,-510 259.33,-516 259.33,-516 259.33,-528 259.33,-528 259.33,-534 253.33,-540 247.33,-540"/>
<text text-anchor="middle" x="220.83" y="-519.5" font-family="sans" font-size="10.00">filter_counts</text>
</g>
<!-- 3&#45;&gt;5 -->
<g id="edge11" class="edge">
<title>3&#45;&gt;5</title>
<path fill="none" stroke="grey" stroke-width="2" d="M166.62,-575.7C175.43,-567.14 186.21,-556.66 195.83,-547.3"/>
<polygon fill="grey" stroke="grey" stroke-width="2" points="198.5,-549.58 203.23,-540.1 193.62,-544.57 198.5,-549.58"/>
</g>
<!-- 4 -->
<g id="node5" class="node">
<title>4</title>
<path fill="none" stroke="#d89556" stroke-width="2" d="M521.33,-180C521.33,-180 442.33,-180 442.33,-180 436.33,-180 430.33,-174 430.33,-168 430.33,-168 430.33,-156 430.33,-156 430.33,-150 436.33,-144 442.33,-144 442.33,-144 521.33,-144 521.33,-144 527.33,-144 533.33,-150 533.33,-156 533.33,-156 533.33,-168 533.33,-168 533.33,-174 527.33,-180 521.33,-180"/>
<text text-anchor="middle" x="481.83" y="-159.5" font-family="sans" font-size="10.00">umap_sizefactors</text>
</g>
<!-- 4&#45;&gt;1 -->
<g id="edge3" class="edge">
<title>4&#45;&gt;1</title>
<path fill="none" stroke="grey" stroke-width="2" d="M430.08,-146.15C389.03,-134.38 331.87,-117.98 290.56,-106.13"/>
<polygon fill="grey" stroke="grey" stroke-width="2" points="291.52,-102.76 280.95,-103.37 289.59,-109.49 291.52,-102.76"/>
</g>
<!-- 5&#45;&gt;4 -->
<g id="edge10" class="edge">
<title>5&#45;&gt;4</title>
<path fill="none" stroke="grey" stroke-width="2" d="M259.5,-518.51C335.03,-511.32 494.83,-483.75 494.83,-379 494.83,-379 494.83,-379 494.83,-305 494.83,-264.83 489.6,-218.53 485.78,-190.01"/>
<polygon fill="grey" stroke="grey" stroke-width="2" points="489.23,-189.43 484.39,-180 482.3,-190.39 489.23,-189.43"/>
</g>
<!-- 8 -->
<g id="node9" class="node">
<title>8</title>
<path fill="none" stroke="#56d8a2" stroke-width="2" d="M266.83,-468C266.83,-468 174.83,-468 174.83,-468 168.83,-468 162.83,-462 162.83,-456 162.83,-456 162.83,-444 162.83,-444 162.83,-438 168.83,-432 174.83,-432 174.83,-432 266.83,-432 266.83,-432 272.83,-432 278.83,-438 278.83,-444 278.83,-444 278.83,-456 278.83,-456 278.83,-462 272.83,-468 266.83,-468"/>
<text text-anchor="middle" x="220.83" y="-447.5" font-family="sans" font-size="10.00">outrider_dim_search</text>
</g>
<!-- 5&#45;&gt;8 -->
<g id="edge14" class="edge">
<title>5&#45;&gt;8</title>
<path fill="none" stroke="grey" stroke-width="2" d="M220.83,-503.7C220.83,-495.98 220.83,-486.71 220.83,-478.11"/>
<polygon fill="grey" stroke="grey" stroke-width="2" points="224.33,-478.1 220.83,-468.1 217.33,-478.1 224.33,-478.1"/>
</g>
<!-- 6 -->
<g id="node7" class="node">
<title>6</title>
<path fill="none" stroke="#d8b456" stroke-width="2" d="M142.83,-252C142.83,-252 82.83,-252 82.83,-252 76.83,-252 70.83,-246 70.83,-240 70.83,-240 70.83,-228 70.83,-228 70.83,-222 76.83,-216 82.83,-216 82.83,-216 142.83,-216 142.83,-216 148.83,-216 154.83,-222 154.83,-228 154.83,-228 154.83,-240 154.83,-240 154.83,-246 148.83,-252 142.83,-252"/>
<text text-anchor="middle" x="112.83" y="-231.5" font-family="sans" font-size="10.00">outrider_plots</text>
</g>
<!-- 6&#45;&gt;1 -->
<g id="edge4" class="edge">
<title>6&#45;&gt;1</title>
<path fill="none" stroke="grey" stroke-width="2" d="M125.32,-215.71C138.83,-197.35 161.33,-167.77 182.83,-144 191.72,-134.16 202.06,-123.93 211.35,-115.1"/>
<polygon fill="grey" stroke="grey" stroke-width="2" points="213.96,-117.45 218.86,-108.06 209.17,-112.35 213.96,-117.45"/>
</g>
<!-- 7 -->
<g id="node8" class="node">
<title>7</title>
<path fill="none" stroke="#bed856" stroke-width="2" d="M236.33,-396C236.33,-396 205.33,-396 205.33,-396 199.33,-396 193.33,-390 193.33,-384 193.33,-384 193.33,-372 193.33,-372 193.33,-366 199.33,-360 205.33,-360 205.33,-360 236.33,-360 236.33,-360 242.33,-360 248.33,-366 248.33,-372 248.33,-372 248.33,-384 248.33,-384 248.33,-390 242.33,-396 236.33,-396"/>
<text text-anchor="middle" x="220.83" y="-375.5" font-family="sans" font-size="10.00">outrider</text>
</g>
<!-- 7&#45;&gt;6 -->
<g id="edge12" class="edge">
<title>7&#45;&gt;6</title>
<path fill="none" stroke="grey" stroke-width="2" d="M207.8,-359.87C188.99,-335.14 154.08,-289.24 132.23,-260.51"/>
<polygon fill="grey" stroke="grey" stroke-width="2" points="134.74,-258.03 125.9,-252.19 129.17,-262.27 134.74,-258.03"/>
</g>
<!-- 9 -->
<g id="node10" class="node">
<title>9</title>
<path fill="none" stroke="#88d856" stroke-width="2" d="M324.83,-324C324.83,-324 260.83,-324 260.83,-324 254.83,-324 248.83,-318 248.83,-312 248.83,-312 248.83,-300 248.83,-300 248.83,-294 254.83,-288 260.83,-288 260.83,-288 324.83,-288 324.83,-288 330.83,-288 336.83,-294 336.83,-300 336.83,-300 336.83,-312 336.83,-312 336.83,-318 330.83,-324 324.83,-324"/>
<text text-anchor="middle" x="292.83" y="-303.5" font-family="sans" font-size="10.00">outliers_genes</text>
</g>
<!-- 7&#45;&gt;9 -->
<g id="edge15" class="edge">
<title>7&#45;&gt;9</title>
<path fill="none" stroke="grey" stroke-width="2" d="M238.62,-359.7C247.43,-351.14 258.21,-340.66 267.83,-331.3"/>
<polygon fill="grey" stroke="grey" stroke-width="2" points="270.5,-333.58 275.23,-324.1 265.62,-328.57 270.5,-333.58"/>
</g>
<!-- 10 -->
<g id="node11" class="node">
<title>10</title>
<path fill="none" stroke="#56d8c1" stroke-width="2" d="M454.83,-252C454.83,-252 368.83,-252 368.83,-252 362.83,-252 356.83,-246 356.83,-240 356.83,-240 356.83,-228 356.83,-228 356.83,-222 362.83,-216 368.83,-216 368.83,-216 454.83,-216 454.83,-216 460.83,-216 466.83,-222 466.83,-228 466.83,-228 466.83,-240 466.83,-240 466.83,-246 460.83,-252 454.83,-252"/>
<text text-anchor="middle" x="411.83" y="-231.5" font-family="sans" font-size="10.00">compare_literature</text>
</g>
<!-- 7&#45;&gt;10 -->
<g id="edge16" class="edge">
<title>7&#45;&gt;10</title>
<path fill="none" stroke="grey" stroke-width="2" d="M248.38,-369.92C275.29,-362.01 316.38,-347.18 345.83,-324 367.75,-306.74 386.01,-280.47 397.73,-260.94"/>
<polygon fill="grey" stroke="grey" stroke-width="2" points="400.79,-262.64 402.79,-252.23 394.74,-259.12 400.79,-262.64"/>
</g>
<!-- 13 -->
<g id="node14" class="node">
<title>13</title>
<path fill="none" stroke="#56d863" stroke-width="2" d="M288.83,-252C288.83,-252 184.83,-252 184.83,-252 178.83,-252 172.83,-246 172.83,-240 172.83,-240 172.83,-228 172.83,-228 172.83,-222 178.83,-216 184.83,-216 184.83,-216 288.83,-216 288.83,-216 294.83,-216 300.83,-222 300.83,-228 300.83,-228 300.83,-240 300.83,-240 300.83,-246 294.83,-252 288.83,-252"/>
<text text-anchor="middle" x="236.83" y="-231.5" font-family="sans" font-size="10.00">prioritize_vep_variants</text>
</g>
<!-- 7&#45;&gt;13 -->
<g id="edge20" class="edge">
<title>7&#45;&gt;13</title>
<path fill="none" stroke="grey" stroke-width="2" d="M222.76,-359.87C225.48,-335.67 230.49,-291.21 233.74,-262.39"/>
<polygon fill="grey" stroke="grey" stroke-width="2" points="237.25,-262.52 234.89,-252.19 230.29,-261.73 237.25,-262.52"/>
</g>
<!-- 14 -->
<g id="node15" class="node">
<title>14</title>
<path fill="none" stroke="#9fd856" stroke-width="2" d="M122.83,-180C122.83,-180 44.83,-180 44.83,-180 38.83,-180 32.83,-174 32.83,-168 32.83,-168 32.83,-156 32.83,-156 32.83,-150 38.83,-144 44.83,-144 44.83,-144 122.83,-144 122.83,-144 128.83,-144 134.83,-150 134.83,-156 134.83,-156 134.83,-168 134.83,-168 134.83,-174 128.83,-180 122.83,-180"/>
<text text-anchor="middle" x="83.83" y="-159.5" font-family="sans" font-size="10.00">network_analysis</text>
</g>
<!-- 7&#45;&gt;14 -->
<g id="edge22" class="edge">
<title>7&#45;&gt;14</title>
<path fill="none" stroke="grey" stroke-width="2" d="M193.31,-365.14C155.38,-347.07 88.67,-308.64 61.83,-252 52.31,-231.91 59.72,-207.26 68.43,-188.99"/>
<polygon fill="grey" stroke="grey" stroke-width="2" points="71.55,-190.58 73.01,-180.08 65.32,-187.37 71.55,-190.58"/>
</g>
<!-- 8&#45;&gt;7 -->
<g id="edge13" class="edge">
<title>8&#45;&gt;7</title>
<path fill="none" stroke="grey" stroke-width="2" d="M220.83,-431.7C220.83,-423.98 220.83,-414.71 220.83,-406.11"/>
<polygon fill="grey" stroke="grey" stroke-width="2" points="224.33,-406.1 220.83,-396.1 217.33,-406.1 224.33,-406.1"/>
</g>
<!-- 9&#45;&gt;1 -->
<g id="edge6" class="edge">
<title>9&#45;&gt;1</title>
<path fill="none" stroke="grey" stroke-width="2" d="M299.89,-287.67C303.66,-277.47 307.91,-264.22 309.83,-252 317.33,-204.06 317.76,-186.21 293.83,-144 287.64,-133.08 278.47,-123.05 269.34,-114.73"/>
<polygon fill="grey" stroke="grey" stroke-width="2" points="271.59,-112.05 261.74,-108.15 267.01,-117.34 271.59,-112.05"/>
</g>
<!-- 9&#45;&gt;10 -->
<g id="edge17" class="edge">
<title>9&#45;&gt;10</title>
<path fill="none" stroke="grey" stroke-width="2" d="M321.94,-287.88C337.5,-278.72 356.84,-267.34 373.6,-257.48"/>
<polygon fill="grey" stroke="grey" stroke-width="2" points="375.76,-260.28 382.6,-252.19 372.21,-254.24 375.76,-260.28"/>
</g>
<!-- 9&#45;&gt;13 -->
<g id="edge21" class="edge">
<title>9&#45;&gt;13</title>
<path fill="none" stroke="grey" stroke-width="2" d="M278.98,-287.7C272.34,-279.39 264.25,-269.28 256.94,-260.14"/>
<polygon fill="grey" stroke="grey" stroke-width="2" points="259.49,-257.73 250.51,-252.1 254.02,-262.1 259.49,-257.73"/>
</g>
<!-- 10&#45;&gt;1 -->
<g id="edge7" class="edge">
<title>10&#45;&gt;1</title>
<path fill="none" stroke="grey" stroke-width="2" d="M401.74,-215.74C389.71,-196.31 368.02,-164.77 342.83,-144 327.19,-131.11 307.91,-120.26 290.15,-111.79"/>
<polygon fill="grey" stroke="grey" stroke-width="2" points="291.58,-108.59 281.03,-107.58 288.64,-114.95 291.58,-108.59"/>
</g>
<!-- 11 -->
<g id="node12" class="node">
<title>11</title>
<path fill="none" stroke="#68d856" stroke-width="2" d="M442.83,-324C442.83,-324 404.83,-324 404.83,-324 398.83,-324 392.83,-318 392.83,-312 392.83,-312 392.83,-300 392.83,-300 392.83,-294 398.83,-288 404.83,-288 404.83,-288 442.83,-288 442.83,-288 448.83,-288 454.83,-294 454.83,-300 454.83,-300 454.83,-312 454.83,-312 454.83,-318 448.83,-324 442.83,-324"/>
<text text-anchor="middle" x="423.83" y="-303.5" font-family="sans" font-size="10.00">literature</text>
</g>
<!-- 11&#45;&gt;10 -->
<g id="edge18" class="edge">
<title>11&#45;&gt;10</title>
<path fill="none" stroke="grey" stroke-width="2" d="M420.86,-287.7C419.54,-279.98 417.95,-270.71 416.47,-262.11"/>
<polygon fill="grey" stroke="grey" stroke-width="2" points="419.9,-261.37 414.76,-252.1 413,-262.55 419.9,-261.37"/>
</g>
<!-- 12 -->
<g id="node13" class="node">
<title>12</title>
<path fill="none" stroke="#d87556" stroke-width="2" d="M272.33,-180C272.33,-180 203.33,-180 203.33,-180 197.33,-180 191.33,-174 191.33,-168 191.33,-168 191.33,-156 191.33,-156 191.33,-150 197.33,-144 203.33,-144 203.33,-144 272.33,-144 272.33,-144 278.33,-144 284.33,-150 284.33,-156 284.33,-156 284.33,-168 284.33,-168 284.33,-174 278.33,-180 272.33,-180"/>
<text text-anchor="middle" x="237.83" y="-159.5" font-family="sans" font-size="10.00">merge_variants</text>
</g>
<!-- 12&#45;&gt;1 -->
<g id="edge2" class="edge">
<title>12&#45;&gt;1</title>
<path fill="none" stroke="grey" stroke-width="2" d="M237.83,-143.7C237.83,-135.98 237.83,-126.71 237.83,-118.11"/>
<polygon fill="grey" stroke="grey" stroke-width="2" points="241.33,-118.1 237.83,-108.1 234.33,-118.1 241.33,-118.1"/>
</g>
<!-- 13&#45;&gt;12 -->
<g id="edge19" class="edge">
<title>13&#45;&gt;12</title>
<path fill="none" stroke="grey" stroke-width="2" d="M237.07,-215.7C237.18,-207.98 237.32,-198.71 237.44,-190.11"/>
<polygon fill="grey" stroke="grey" stroke-width="2" points="240.94,-190.15 237.58,-180.1 233.94,-190.05 240.94,-190.15"/>
</g>
<!-- 14&#45;&gt;1 -->
<g id="edge8" class="edge">
<title>14&#45;&gt;1</title>
<path fill="none" stroke="grey" stroke-width="2" d="M121.5,-143.88C142.46,-134.35 168.73,-122.41 191,-112.28"/>
<polygon fill="grey" stroke="grey" stroke-width="2" points="192.62,-115.39 200.27,-108.07 189.72,-109.02 192.62,-115.39"/>
</g>
</g>
</svg>
