<?xml version="1.0" encoding="UTF-8" standalone="no"?>
<!DOCTYPE svg PUBLIC "-//W3C//DTD SVG 1.1//EN"
 "http://www.w3.org/Graphics/SVG/1.1/DTD/svg11.dtd">
<!-- Generated by graphviz version 2.47.1 (20210418.0311)
 -->
<!-- Title: snakemake_dag Pages: 1 -->
<svg width="537pt" height="548pt"
 viewBox="0.00 0.00 536.76 548.00" xmlns="http://www.w3.org/2000/svg" xmlns:xlink="http://www.w3.org/1999/xlink">
<g id="graph0" class="graph" transform="scale(1 1) rotate(0) translate(4 544)">
<title>snakemake_dag</title>
<polygon fill="white" stroke="transparent" points="-4,4 -4,-544 532.76,-544 532.76,4 -4,4"/>
<!-- 0 -->
<g id="node1" class="node">
<title>0</title>
<path fill="none" stroke="#569ad8" stroke-width="2" d="M246.76,-36C246.76,-36 216.76,-36 216.76,-36 210.76,-36 204.76,-30 204.76,-24 204.76,-24 204.76,-12 204.76,-12 204.76,-6 210.76,0 216.76,0 216.76,0 246.76,0 246.76,0 252.76,0 258.76,-6 258.76,-12 258.76,-12 258.76,-24 258.76,-24 258.76,-30 252.76,-36 246.76,-36"/>
<text text-anchor="middle" x="231.76" y="-15.5" font-family="sans" font-size="10.00">all</text>
</g>
<!-- 1 -->
<g id="node2" class="node">
<title>1</title>
<path fill="none" stroke="#56d8a9" stroke-width="2" d="M262.76,-108C262.76,-108 200.76,-108 200.76,-108 194.76,-108 188.76,-102 188.76,-96 188.76,-96 188.76,-84 188.76,-84 188.76,-78 194.76,-72 200.76,-72 200.76,-72 262.76,-72 262.76,-72 268.76,-72 274.76,-78 274.76,-84 274.76,-84 274.76,-96 274.76,-96 274.76,-102 268.76,-108 262.76,-108"/>
<text text-anchor="middle" x="231.76" y="-87.5" font-family="sans" font-size="10.00">collect_output</text>
</g>
<!-- 1&#45;&gt;0 -->
<g id="edge1" class="edge">
<title>1&#45;&gt;0</title>
<path fill="none" stroke="grey" stroke-width="2" d="M231.76,-71.7C231.76,-63.98 231.76,-54.71 231.76,-46.11"/>
<polygon fill="grey" stroke="grey" stroke-width="2" points="235.26,-46.1 231.76,-36.1 228.26,-46.1 235.26,-46.1"/>
</g>
<!-- 2 -->
<g id="node3" class="node">
<title>2</title>
<path fill="none" stroke="#88d856" stroke-width="2" d="M117.76,-396C117.76,-396 87.76,-396 87.76,-396 81.76,-396 75.76,-390 75.76,-384 75.76,-384 75.76,-372 75.76,-372 75.76,-366 81.76,-360 87.76,-360 87.76,-360 117.76,-360 117.76,-360 123.76,-360 129.76,-366 129.76,-372 129.76,-372 129.76,-384 129.76,-384 129.76,-390 123.76,-396 117.76,-396"/>
<text text-anchor="middle" x="102.76" y="-375.5" font-family="sans" font-size="10.00">umap</text>
</g>
<!-- 2&#45;&gt;1 -->
<g id="edge5" class="edge">
<title>2&#45;&gt;1</title>
<path fill="none" stroke="grey" stroke-width="2" d="M86.13,-359.72C48.48,-318.49 -35.98,-212.67 17.76,-144 37.35,-118.96 121.66,-104.1 178.43,-96.75"/>
<polygon fill="grey" stroke="grey" stroke-width="2" points="179.2,-100.18 188.68,-95.46 178.32,-93.23 179.2,-100.18"/>
</g>
<!-- 3 -->
<g id="node4" class="node">
<title>3</title>
<path fill="none" stroke="#d85656" stroke-width="2" d="M237.26,-540C237.26,-540 146.26,-540 146.26,-540 140.26,-540 134.26,-534 134.26,-528 134.26,-528 134.26,-516 134.26,-516 134.26,-510 140.26,-504 146.26,-504 146.26,-504 237.26,-504 237.26,-504 243.26,-504 249.26,-510 249.26,-516 249.26,-516 249.26,-528 249.26,-528 249.26,-534 243.26,-540 237.26,-540"/>
<text text-anchor="middle" x="191.76" y="-519.5" font-family="sans" font-size="10.00">merge_gene_counts</text>
</g>
<!-- 3&#45;&gt;2 -->
<g id="edge9" class="edge">
<title>3&#45;&gt;2</title>
<path fill="none" stroke="grey" stroke-width="2" d="M181.02,-503.87C165.58,-479.24 137,-433.64 118.98,-404.88"/>
<polygon fill="grey" stroke="grey" stroke-width="2" points="121.81,-402.8 113.53,-396.19 115.87,-406.52 121.81,-402.8"/>
</g>
<!-- 5 -->
<g id="node6" class="node">
<title>5</title>
<path fill="none" stroke="#d89c56" stroke-width="2" d="M255.26,-468C255.26,-468 202.26,-468 202.26,-468 196.26,-468 190.26,-462 190.26,-456 190.26,-456 190.26,-444 190.26,-444 190.26,-438 196.26,-432 202.26,-432 202.26,-432 255.26,-432 255.26,-432 261.26,-432 267.26,-438 267.26,-444 267.26,-444 267.26,-456 267.26,-456 267.26,-462 261.26,-468 255.26,-468"/>
<text text-anchor="middle" x="228.76" y="-447.5" font-family="sans" font-size="10.00">filter_counts</text>
</g>
<!-- 3&#45;&gt;5 -->
<g id="edge12" class="edge">
<title>3&#45;&gt;5</title>
<path fill="none" stroke="grey" stroke-width="2" d="M200.9,-503.7C205.16,-495.64 210.31,-485.89 215.02,-476.98"/>
<polygon fill="grey" stroke="grey" stroke-width="2" points="218.14,-478.58 219.71,-468.1 211.95,-475.31 218.14,-478.58"/>
</g>
<!-- 4 -->
<g id="node5" class="node">
<title>4</title>
<path fill="none" stroke="#ced856" stroke-width="2" d="M516.76,-324C516.76,-324 456.76,-324 456.76,-324 450.76,-324 444.76,-318 444.76,-312 444.76,-312 444.76,-300 444.76,-300 444.76,-294 450.76,-288 456.76,-288 456.76,-288 516.76,-288 516.76,-288 522.76,-288 528.76,-294 528.76,-300 528.76,-300 528.76,-312 528.76,-312 528.76,-318 522.76,-324 516.76,-324"/>
<text text-anchor="middle" x="486.76" y="-303.5" font-family="sans" font-size="10.00">outrider_plots</text>
</g>
<!-- 4&#45;&gt;1 -->
<g id="edge4" class="edge">
<title>4&#45;&gt;1</title>
<path fill="none" stroke="grey" stroke-width="2" d="M485.38,-287.79C483.11,-268.7 477.18,-237.73 461.76,-216 419.16,-155.99 338.43,-121.89 284.85,-104.92"/>
<polygon fill="grey" stroke="grey" stroke-width="2" points="285.77,-101.54 275.18,-101.95 283.71,-108.24 285.77,-101.54"/>
</g>
<!-- 5&#45;&gt;4 -->
<g id="edge10" class="edge">
<title>5&#45;&gt;4</title>
<path fill="none" stroke="grey" stroke-width="2" d="M259.88,-431.87C306.66,-406.12 395.1,-357.45 446.65,-329.07"/>
<polygon fill="grey" stroke="grey" stroke-width="2" points="448.45,-332.08 455.52,-324.19 445.08,-325.94 448.45,-332.08"/>
</g>
<!-- 6 -->
<g id="node7" class="node">
<title>6</title>
<path fill="none" stroke="#56d88a" stroke-width="2" d="M244.26,-396C244.26,-396 213.26,-396 213.26,-396 207.26,-396 201.26,-390 201.26,-384 201.26,-384 201.26,-372 201.26,-372 201.26,-366 207.26,-360 213.26,-360 213.26,-360 244.26,-360 244.26,-360 250.26,-360 256.26,-366 256.26,-372 256.26,-372 256.26,-384 256.26,-384 256.26,-390 250.26,-396 244.26,-396"/>
<text text-anchor="middle" x="228.76" y="-375.5" font-family="sans" font-size="10.00">outrider</text>
</g>
<!-- 5&#45;&gt;6 -->
<g id="edge13" class="edge">
<title>5&#45;&gt;6</title>
<path fill="none" stroke="grey" stroke-width="2" d="M228.76,-431.7C228.76,-423.98 228.76,-414.71 228.76,-406.11"/>
<polygon fill="grey" stroke="grey" stroke-width="2" points="232.26,-406.1 228.76,-396.1 225.26,-406.1 232.26,-406.1"/>
</g>
<!-- 6&#45;&gt;1 -->
<g id="edge7" class="edge">
<title>6&#45;&gt;1</title>
<path fill="none" stroke="grey" stroke-width="2" d="M213.46,-359.95C194.21,-337.23 162.18,-294.91 149.76,-252 145.31,-236.63 146.9,-231.74 149.76,-216 155.85,-182.37 157.99,-172.56 176.76,-144 183.75,-133.35 193.25,-123.23 202.38,-114.74"/>
<polygon fill="grey" stroke="grey" stroke-width="2" points="204.78,-117.29 209.9,-108.01 200.11,-112.07 204.78,-117.29"/>
</g>
<!-- 6&#45;&gt;4 -->
<g id="edge11" class="edge">
<title>6&#45;&gt;4</title>
<path fill="none" stroke="grey" stroke-width="2" d="M256.38,-370.59C294.44,-361.61 365.31,-344.39 434.74,-324.2"/>
<polygon fill="grey" stroke="grey" stroke-width="2" points="435.92,-327.5 444.53,-321.33 433.95,-320.79 435.92,-327.5"/>
</g>
<!-- 7 -->
<g id="node8" class="node">
<title>7</title>
<path fill="none" stroke="#d87556" stroke-width="2" d="M296.76,-324C296.76,-324 232.76,-324 232.76,-324 226.76,-324 220.76,-318 220.76,-312 220.76,-312 220.76,-300 220.76,-300 220.76,-294 226.76,-288 232.76,-288 232.76,-288 296.76,-288 296.76,-288 302.76,-288 308.76,-294 308.76,-300 308.76,-300 308.76,-312 308.76,-312 308.76,-318 302.76,-324 296.76,-324"/>
<text text-anchor="middle" x="264.76" y="-303.5" font-family="sans" font-size="10.00">outliers_genes</text>
</g>
<!-- 6&#45;&gt;7 -->
<g id="edge14" class="edge">
<title>6&#45;&gt;7</title>
<path fill="none" stroke="grey" stroke-width="2" d="M237.65,-359.7C241.75,-351.73 246.7,-342.1 251.25,-333.26"/>
<polygon fill="grey" stroke="grey" stroke-width="2" points="254.5,-334.6 255.96,-324.1 248.27,-331.4 254.5,-334.6"/>
</g>
<!-- 8 -->
<g id="node9" class="node">
<title>8</title>
<path fill="none" stroke="#d8bc56" stroke-width="2" d="M440.76,-252C440.76,-252 354.76,-252 354.76,-252 348.76,-252 342.76,-246 342.76,-240 342.76,-240 342.76,-228 342.76,-228 342.76,-222 348.76,-216 354.76,-216 354.76,-216 440.76,-216 440.76,-216 446.76,-216 452.76,-222 452.76,-228 452.76,-228 452.76,-240 452.76,-240 452.76,-246 446.76,-252 440.76,-252"/>
<text text-anchor="middle" x="397.76" y="-231.5" font-family="sans" font-size="10.00">compare_literature</text>
</g>
<!-- 6&#45;&gt;8 -->
<g id="edge16" class="edge">
<title>6&#45;&gt;8</title>
<path fill="none" stroke="grey" stroke-width="2" d="M256.63,-363.22C274.92,-353.52 298.86,-339.53 317.76,-324 340.97,-304.93 363.48,-279 378.68,-260.06"/>
<polygon fill="grey" stroke="grey" stroke-width="2" points="381.47,-262.16 384.93,-252.15 375.98,-257.83 381.47,-262.16"/>
</g>
<!-- 11 -->
<g id="node12" class="node">
<title>11</title>
<path fill="none" stroke="#56d8d0" stroke-width="2" d="M274.76,-252C274.76,-252 170.76,-252 170.76,-252 164.76,-252 158.76,-246 158.76,-240 158.76,-240 158.76,-228 158.76,-228 158.76,-222 164.76,-216 170.76,-216 170.76,-216 274.76,-216 274.76,-216 280.76,-216 286.76,-222 286.76,-228 286.76,-228 286.76,-240 286.76,-240 286.76,-246 280.76,-252 274.76,-252"/>
<text text-anchor="middle" x="222.76" y="-231.5" font-family="sans" font-size="10.00">prioritize_vep_variants</text>
</g>
<!-- 6&#45;&gt;11 -->
<g id="edge20" class="edge">
<title>6&#45;&gt;11</title>
<path fill="none" stroke="grey" stroke-width="2" d="M221.69,-359.67C217.92,-349.47 213.67,-336.22 211.76,-324 208.53,-303.36 211.7,-279.92 215.46,-262.27"/>
<polygon fill="grey" stroke="grey" stroke-width="2" points="218.97,-262.64 217.82,-252.11 212.15,-261.06 218.97,-262.64"/>
</g>
<!-- 12 -->
<g id="node13" class="node">
<title>12</title>
<path fill="none" stroke="#68d856" stroke-width="2" d="M116.76,-180C116.76,-180 38.76,-180 38.76,-180 32.76,-180 26.76,-174 26.76,-168 26.76,-168 26.76,-156 26.76,-156 26.76,-150 32.76,-144 38.76,-144 38.76,-144 116.76,-144 116.76,-144 122.76,-144 128.76,-150 128.76,-156 128.76,-156 128.76,-168 128.76,-168 128.76,-174 122.76,-180 116.76,-180"/>
<text text-anchor="middle" x="77.76" y="-159.5" font-family="sans" font-size="10.00">network_analysis</text>
</g>
<!-- 6&#45;&gt;12 -->
<g id="edge21" class="edge">
<title>6&#45;&gt;12</title>
<path fill="none" stroke="grey" stroke-width="2" d="M201.03,-371.1C175.37,-364.19 138.08,-350.19 116.76,-324 85.3,-285.36 78.56,-225.28 77.49,-190.48"/>
<polygon fill="grey" stroke="grey" stroke-width="2" points="80.98,-190.07 77.31,-180.13 73.98,-190.18 80.98,-190.07"/>
</g>
<!-- 7&#45;&gt;1 -->
<g id="edge2" class="edge">
<title>7&#45;&gt;1</title>
<path fill="none" stroke="grey" stroke-width="2" d="M277.9,-287.91C284.68,-278.01 292.24,-264.96 295.76,-252 302.25,-228.04 288.39,-145.27 287.76,-144 282.21,-132.86 273.31,-122.82 264.22,-114.55"/>
<polygon fill="grey" stroke="grey" stroke-width="2" points="266.48,-111.88 256.61,-108.04 261.93,-117.2 266.48,-111.88"/>
</g>
<!-- 7&#45;&gt;8 -->
<g id="edge15" class="edge">
<title>7&#45;&gt;8</title>
<path fill="none" stroke="grey" stroke-width="2" d="M297.29,-287.88C315,-278.55 337.11,-266.92 356.07,-256.94"/>
<polygon fill="grey" stroke="grey" stroke-width="2" points="357.88,-259.94 365.1,-252.19 354.62,-253.75 357.88,-259.94"/>
</g>
<!-- 7&#45;&gt;11 -->
<g id="edge19" class="edge">
<title>7&#45;&gt;11</title>
<path fill="none" stroke="grey" stroke-width="2" d="M254.37,-287.7C249.49,-279.56 243.57,-269.69 238.18,-260.7"/>
<polygon fill="grey" stroke="grey" stroke-width="2" points="241.16,-258.88 233.02,-252.1 235.16,-262.48 241.16,-258.88"/>
</g>
<!-- 8&#45;&gt;1 -->
<g id="edge3" class="edge">
<title>8&#45;&gt;1</title>
<path fill="none" stroke="grey" stroke-width="2" d="M387.55,-215.89C375.4,-196.6 353.61,-165.18 328.76,-144 314.47,-131.83 296.94,-121.22 280.73,-112.76"/>
<polygon fill="grey" stroke="grey" stroke-width="2" points="281.88,-109.42 271.38,-108.03 278.72,-115.66 281.88,-109.42"/>
</g>
<!-- 9 -->
<g id="node10" class="node">
<title>9</title>
<path fill="none" stroke="#56c1d8" stroke-width="2" d="M414.76,-324C414.76,-324 376.76,-324 376.76,-324 370.76,-324 364.76,-318 364.76,-312 364.76,-312 364.76,-300 364.76,-300 364.76,-294 370.76,-288 376.76,-288 376.76,-288 414.76,-288 414.76,-288 420.76,-288 426.76,-294 426.76,-300 426.76,-300 426.76,-312 426.76,-312 426.76,-318 420.76,-324 414.76,-324"/>
<text text-anchor="middle" x="395.76" y="-303.5" font-family="sans" font-size="10.00">literature</text>
</g>
<!-- 9&#45;&gt;8 -->
<g id="edge17" class="edge">
<title>9&#45;&gt;8</title>
<path fill="none" stroke="grey" stroke-width="2" d="M396.25,-287.7C396.47,-279.98 396.74,-270.71 396.98,-262.11"/>
<polygon fill="grey" stroke="grey" stroke-width="2" points="400.48,-262.2 397.27,-252.1 393.48,-262 400.48,-262.2"/>
</g>
<!-- 10 -->
<g id="node11" class="node">
<title>10</title>
<path fill="none" stroke="#567bd8" stroke-width="2" d="M266.26,-180C266.26,-180 197.26,-180 197.26,-180 191.26,-180 185.26,-174 185.26,-168 185.26,-168 185.26,-156 185.26,-156 185.26,-150 191.26,-144 197.26,-144 197.26,-144 266.26,-144 266.26,-144 272.26,-144 278.26,-150 278.26,-156 278.26,-156 278.26,-168 278.26,-168 278.26,-174 272.26,-180 266.26,-180"/>
<text text-anchor="middle" x="231.76" y="-159.5" font-family="sans" font-size="10.00">merge_variants</text>
</g>
<!-- 10&#45;&gt;1 -->
<g id="edge8" class="edge">
<title>10&#45;&gt;1</title>
<path fill="none" stroke="grey" stroke-width="2" d="M231.76,-143.7C231.76,-135.98 231.76,-126.71 231.76,-118.11"/>
<polygon fill="grey" stroke="grey" stroke-width="2" points="235.26,-118.1 231.76,-108.1 228.26,-118.1 235.26,-118.1"/>
</g>
<!-- 11&#45;&gt;10 -->
<g id="edge18" class="edge">
<title>11&#45;&gt;10</title>
<path fill="none" stroke="grey" stroke-width="2" d="M224.98,-215.7C225.97,-207.98 227.16,-198.71 228.27,-190.11"/>
<polygon fill="grey" stroke="grey" stroke-width="2" points="231.75,-190.47 229.56,-180.1 224.81,-189.58 231.75,-190.47"/>
</g>
<!-- 12&#45;&gt;1 -->
<g id="edge6" class="edge">
<title>12&#45;&gt;1</title>
<path fill="none" stroke="grey" stroke-width="2" d="M115.43,-143.88C136.39,-134.35 162.66,-122.41 184.93,-112.28"/>
<polygon fill="grey" stroke="grey" stroke-width="2" points="186.55,-115.39 194.21,-108.07 183.65,-109.02 186.55,-115.39"/>
</g>
</g>
</svg>
