<?xml version="1.0" encoding="UTF-8" standalone="no"?>
<!DOCTYPE svg PUBLIC "-//W3C//DTD SVG 1.1//EN"
 "http://www.w3.org/Graphics/SVG/1.1/DTD/svg11.dtd">
<!-- Generated by graphviz version 2.47.1 (20210418.0311)
 -->
<!-- Title: snakemake_dag Pages: 1 -->
<svg width="3809pt" height="692pt"
 viewBox="0.00 0.00 3809.00 692.00" xmlns="http://www.w3.org/2000/svg" xmlns:xlink="http://www.w3.org/1999/xlink">
<g id="graph0" class="graph" transform="scale(1 1) rotate(0) translate(4 688)">
<title>snakemake_dag</title>
<polygon fill="white" stroke="transparent" points="-4,4 -4,-688 3805,-688 3805,4 -4,4"/>
<!-- 0 -->
<g id="node1" class="node">
<title>0</title>
<path fill="none" stroke="#78d856" stroke-width="2" d="M342,-36C342,-36 312,-36 312,-36 306,-36 300,-30 300,-24 300,-24 300,-12 300,-12 300,-6 306,0 312,0 312,0 342,0 342,0 348,0 354,-6 354,-12 354,-12 354,-24 354,-24 354,-30 348,-36 342,-36"/>
<text text-anchor="middle" x="327" y="-15.5" font-family="sans" font-size="10.00">all</text>
</g>
<!-- 1 -->
<g id="node2" class="node">
<title>1</title>
<path fill="none" stroke="#d8bc56" stroke-width="2" d="M358,-108C358,-108 296,-108 296,-108 290,-108 284,-102 284,-96 284,-96 284,-84 284,-84 284,-78 290,-72 296,-72 296,-72 358,-72 358,-72 364,-72 370,-78 370,-84 370,-84 370,-96 370,-96 370,-102 364,-108 358,-108"/>
<text text-anchor="middle" x="327" y="-87.5" font-family="sans" font-size="10.00">collect_output</text>
</g>
<!-- 1&#45;&gt;0 -->
<g id="edge1" class="edge">
<title>1&#45;&gt;0</title>
<path fill="none" stroke="grey" stroke-width="2" d="M327,-71.7C327,-63.98 327,-54.71 327,-46.11"/>
<polygon fill="grey" stroke="grey" stroke-width="2" points="330.5,-46.1 327,-36.1 323.5,-46.1 330.5,-46.1"/>
</g>
<!-- 2 -->
<g id="node3" class="node">
<title>2</title>
<path fill="none" stroke="#56d892" stroke-width="2" stroke-dasharray="5,2" d="M85,-396C85,-396 25,-396 25,-396 19,-396 13,-390 13,-384 13,-384 13,-372 13,-372 13,-366 19,-360 25,-360 25,-360 85,-360 85,-360 91,-360 97,-366 97,-372 97,-372 97,-384 97,-384 97,-390 91,-396 85,-396"/>
<text text-anchor="middle" x="55" y="-375.5" font-family="sans" font-size="10.00">outrider_plots</text>
</g>
<!-- 2&#45;&gt;1 -->
<g id="edge2" class="edge">
<title>2&#45;&gt;1</title>
<path fill="none" stroke="grey" stroke-width="2" d="M53.99,-359.78C53.64,-340.95 55.4,-310.48 68,-288 115.95,-202.45 217.96,-142.34 278.67,-112.51"/>
<polygon fill="grey" stroke="grey" stroke-width="2" points="280.2,-115.65 287.68,-108.15 277.15,-109.35 280.2,-115.65"/>
</g>
<!-- 3 -->
<g id="node4" class="node">
<title>3</title>
<path fill="none" stroke="#61d856" stroke-width="2" stroke-dasharray="5,2" d="M1918.5,-468C1918.5,-468 1887.5,-468 1887.5,-468 1881.5,-468 1875.5,-462 1875.5,-456 1875.5,-456 1875.5,-444 1875.5,-444 1875.5,-438 1881.5,-432 1887.5,-432 1887.5,-432 1918.5,-432 1918.5,-432 1924.5,-432 1930.5,-438 1930.5,-444 1930.5,-444 1930.5,-456 1930.5,-456 1930.5,-462 1924.5,-468 1918.5,-468"/>
<text text-anchor="middle" x="1903" y="-447.5" font-family="sans" font-size="10.00">outrider</text>
</g>
<!-- 3&#45;&gt;1 -->
<g id="edge5" class="edge">
<title>3&#45;&gt;1</title>
<path fill="none" stroke="grey" stroke-width="2" d="M1930.65,-448.94C2114.54,-448.4 3163.23,-443.24 3479,-396 3625.84,-374.03 3801,-455.48 3801,-307 3801,-307 3801,-307 3801,-233 3801,-143.51 818.55,-97.95 380.46,-91.74"/>
<polygon fill="grey" stroke="grey" stroke-width="2" points="380.34,-88.24 370.3,-91.59 380.24,-95.23 380.34,-88.24"/>
</g>
<!-- 3&#45;&gt;2 -->
<g id="edge8" class="edge">
<title>3&#45;&gt;2</title>
<path fill="none" stroke="grey" stroke-width="2" d="M1875.29,-449.05C1677.59,-449.27 478.71,-448.4 119,-396 115.08,-395.43 111.06,-394.7 107.03,-393.88"/>
<polygon fill="grey" stroke="grey" stroke-width="2" points="107.58,-390.41 97.06,-391.64 106.05,-397.24 107.58,-390.41"/>
</g>
<!-- 8 -->
<g id="node9" class="node">
<title>8</title>
<path fill="none" stroke="#97d856" stroke-width="2" stroke-dasharray="5,2" d="M1863,-396C1863,-396 1799,-396 1799,-396 1793,-396 1787,-390 1787,-384 1787,-384 1787,-372 1787,-372 1787,-366 1793,-360 1799,-360 1799,-360 1863,-360 1863,-360 1869,-360 1875,-366 1875,-372 1875,-372 1875,-384 1875,-384 1875,-390 1869,-396 1863,-396"/>
<text text-anchor="middle" x="1831" y="-375.5" font-family="sans" font-size="10.00">outliers_genes</text>
</g>
<!-- 3&#45;&gt;8 -->
<g id="edge13" class="edge">
<title>3&#45;&gt;8</title>
<path fill="none" stroke="grey" stroke-width="2" d="M1885.2,-431.7C1876.4,-423.14 1865.62,-412.66 1856,-403.3"/>
<polygon fill="grey" stroke="grey" stroke-width="2" points="1858.2,-400.57 1848.59,-396.1 1853.32,-405.58 1858.2,-400.57"/>
</g>
<!-- 9 -->
<g id="node10" class="node">
<title>9</title>
<path fill="none" stroke="#56d8a9" stroke-width="2" d="M175,-324C175,-324 89,-324 89,-324 83,-324 77,-318 77,-312 77,-312 77,-300 77,-300 77,-294 83,-288 89,-288 89,-288 175,-288 175,-288 181,-288 187,-294 187,-300 187,-300 187,-312 187,-312 187,-318 181,-324 175,-324"/>
<text text-anchor="middle" x="132" y="-303.5" font-family="sans" font-size="10.00">compare_literature</text>
</g>
<!-- 3&#45;&gt;9 -->
<g id="edge16" class="edge">
<title>3&#45;&gt;9</title>
<path fill="none" stroke="grey" stroke-width="2" d="M1875.3,-449.11C1657.16,-449.89 222.61,-452.83 153,-396 135.17,-381.45 130.8,-354.84 130.36,-334.5"/>
<polygon fill="grey" stroke="grey" stroke-width="2" points="133.87,-334.27 130.45,-324.24 126.87,-334.21 133.87,-334.27"/>
</g>
<!-- 11 -->
<g id="node12" class="node">
<title>11</title>
<path fill="none" stroke="#56d8c9" stroke-width="2" d="M395,-180C395,-180 331,-180 331,-180 325,-180 319,-174 319,-168 319,-168 319,-156 319,-156 319,-150 325,-144 331,-144 331,-144 395,-144 395,-144 401,-144 407,-150 407,-156 407,-156 407,-168 407,-168 407,-174 401,-180 395,-180"/>
<text text-anchor="middle" x="363" y="-159.5" font-family="sans" font-size="10.00">variant_outlier</text>
</g>
<!-- 3&#45;&gt;11 -->
<g id="edge18" class="edge">
<title>3&#45;&gt;11</title>
<path fill="none" stroke="grey" stroke-width="2" d="M1875.3,-448.68C1710.67,-446.69 859.28,-434.61 601,-396 476.05,-377.32 403.2,-424.01 326,-324 296.67,-286 311.6,-261.79 326,-216 329.1,-206.15 334.75,-196.53 340.72,-188.25"/>
<polygon fill="grey" stroke="grey" stroke-width="2" points="343.63,-190.21 346.96,-180.15 338.09,-185.94 343.63,-190.21"/>
</g>
<!-- 13 -->
<g id="node14" class="node">
<title>13</title>
<path fill="none" stroke="#56a2d8" stroke-width="2" stroke-dasharray="5,2" d="M911,-324C911,-324 807,-324 807,-324 801,-324 795,-318 795,-312 795,-312 795,-300 795,-300 795,-294 801,-288 807,-288 807,-288 911,-288 911,-288 917,-288 923,-294 923,-300 923,-300 923,-312 923,-312 923,-318 917,-324 911,-324"/>
<text text-anchor="middle" x="859" y="-309" font-family="sans" font-size="10.00">prioritize_vep_variants</text>
<text text-anchor="middle" x="859" y="-298" font-family="sans" font-size="10.00">chrom: chr1</text>
</g>
<!-- 3&#45;&gt;13 -->
<g id="edge46" class="edge">
<title>3&#45;&gt;13</title>
<path fill="none" stroke="grey" stroke-width="2" d="M1875.49,-448.28C1790.43,-445.69 1524.4,-434.83 1308,-396 1248.15,-385.26 1235.52,-372.46 1176,-360 1071.85,-338.2 1041.46,-344.07 933.06,-324.11"/>
<polygon fill="grey" stroke="grey" stroke-width="2" points="933.5,-320.63 923.03,-322.23 932.22,-327.51 933.5,-320.63"/>
</g>
<!-- 15 -->
<g id="node16" class="node">
<title>15</title>
<path fill="none" stroke="#56a2d8" stroke-width="2" stroke-dasharray="5,2" d="M2517,-324C2517,-324 2413,-324 2413,-324 2407,-324 2401,-318 2401,-312 2401,-312 2401,-300 2401,-300 2401,-294 2407,-288 2413,-288 2413,-288 2517,-288 2517,-288 2523,-288 2529,-294 2529,-300 2529,-300 2529,-312 2529,-312 2529,-318 2523,-324 2517,-324"/>
<text text-anchor="middle" x="2465" y="-309" font-family="sans" font-size="10.00">prioritize_vep_variants</text>
<text text-anchor="middle" x="2465" y="-298" font-family="sans" font-size="10.00">chrom: chr2</text>
</g>
<!-- 3&#45;&gt;15 -->
<g id="edge49" class="edge">
<title>3&#45;&gt;15</title>
<path fill="none" stroke="grey" stroke-width="2" d="M1930.85,-444.78C1981.18,-436.92 2090.46,-418.74 2181,-396 2260.23,-376.1 2349.92,-346.84 2406.93,-327.36"/>
<polygon fill="grey" stroke="grey" stroke-width="2" points="2408.16,-330.64 2416.49,-324.08 2405.89,-324.02 2408.16,-330.64"/>
</g>
<!-- 16 -->
<g id="node17" class="node">
<title>16</title>
<path fill="none" stroke="#56a2d8" stroke-width="2" stroke-dasharray="5,2" d="M2663,-324C2663,-324 2559,-324 2559,-324 2553,-324 2547,-318 2547,-312 2547,-312 2547,-300 2547,-300 2547,-294 2553,-288 2559,-288 2559,-288 2663,-288 2663,-288 2669,-288 2675,-294 2675,-300 2675,-300 2675,-312 2675,-312 2675,-318 2669,-324 2663,-324"/>
<text text-anchor="middle" x="2611" y="-309" font-family="sans" font-size="10.00">prioritize_vep_variants</text>
<text text-anchor="middle" x="2611" y="-298" font-family="sans" font-size="10.00">chrom: chr3</text>
</g>
<!-- 3&#45;&gt;16 -->
<g id="edge52" class="edge">
<title>3&#45;&gt;16</title>
<path fill="none" stroke="grey" stroke-width="2" d="M1930.7,-445.79C1990.56,-438.64 2136.35,-420.14 2257,-396 2356.56,-376.08 2470.15,-346.24 2541.22,-326.69"/>
<polygon fill="grey" stroke="grey" stroke-width="2" points="2542.25,-330.04 2550.96,-324 2540.39,-323.29 2542.25,-330.04"/>
</g>
<!-- 17 -->
<g id="node18" class="node">
<title>17</title>
<path fill="none" stroke="#56a2d8" stroke-width="2" stroke-dasharray="5,2" d="M2809,-324C2809,-324 2705,-324 2705,-324 2699,-324 2693,-318 2693,-312 2693,-312 2693,-300 2693,-300 2693,-294 2699,-288 2705,-288 2705,-288 2809,-288 2809,-288 2815,-288 2821,-294 2821,-300 2821,-300 2821,-312 2821,-312 2821,-318 2815,-324 2809,-324"/>
<text text-anchor="middle" x="2757" y="-309" font-family="sans" font-size="10.00">prioritize_vep_variants</text>
<text text-anchor="middle" x="2757" y="-298" font-family="sans" font-size="10.00">chrom: chr4</text>
</g>
<!-- 3&#45;&gt;17 -->
<g id="edge55" class="edge">
<title>3&#45;&gt;17</title>
<path fill="none" stroke="grey" stroke-width="2" d="M1930.53,-446.63C2000.64,-440.4 2191.51,-422.22 2349,-396 2495.99,-371.52 2533.78,-357.87 2682.93,-324.23"/>
<polygon fill="grey" stroke="grey" stroke-width="2" points="2683.93,-327.6 2692.92,-321.99 2682.4,-320.77 2683.93,-327.6"/>
</g>
<!-- 18 -->
<g id="node19" class="node">
<title>18</title>
<path fill="none" stroke="#56a2d8" stroke-width="2" stroke-dasharray="5,2" d="M2955,-324C2955,-324 2851,-324 2851,-324 2845,-324 2839,-318 2839,-312 2839,-312 2839,-300 2839,-300 2839,-294 2845,-288 2851,-288 2851,-288 2955,-288 2955,-288 2961,-288 2967,-294 2967,-300 2967,-300 2967,-312 2967,-312 2967,-318 2961,-324 2955,-324"/>
<text text-anchor="middle" x="2903" y="-309" font-family="sans" font-size="10.00">prioritize_vep_variants</text>
<text text-anchor="middle" x="2903" y="-298" font-family="sans" font-size="10.00">chrom: chr5</text>
</g>
<!-- 3&#45;&gt;18 -->
<g id="edge58" class="edge">
<title>3&#45;&gt;18</title>
<path fill="none" stroke="grey" stroke-width="2" d="M1930.53,-447.24C2011.04,-441.91 2252.94,-424.5 2452,-396 2618.07,-372.22 2661.06,-359.88 2829.01,-324.18"/>
<polygon fill="grey" stroke="grey" stroke-width="2" points="2829.88,-327.57 2838.94,-322.07 2828.43,-320.73 2829.88,-327.57"/>
</g>
<!-- 19 -->
<g id="node20" class="node">
<title>19</title>
<path fill="none" stroke="#56a2d8" stroke-width="2" stroke-dasharray="5,2" d="M3247,-324C3247,-324 3143,-324 3143,-324 3137,-324 3131,-318 3131,-312 3131,-312 3131,-300 3131,-300 3131,-294 3137,-288 3143,-288 3143,-288 3247,-288 3247,-288 3253,-288 3259,-294 3259,-300 3259,-300 3259,-312 3259,-312 3259,-318 3253,-324 3247,-324"/>
<text text-anchor="middle" x="3195" y="-309" font-family="sans" font-size="10.00">prioritize_vep_variants</text>
<text text-anchor="middle" x="3195" y="-298" font-family="sans" font-size="10.00">chrom: chr6</text>
</g>
<!-- 3&#45;&gt;19 -->
<g id="edge61" class="edge">
<title>3&#45;&gt;19</title>
<path fill="none" stroke="grey" stroke-width="2" d="M1930.84,-448.15C2033.1,-444.83 2397.6,-431.1 2696,-396 2883.44,-373.95 2932.09,-362.2 3120.97,-324.16"/>
<polygon fill="grey" stroke="grey" stroke-width="2" points="3121.84,-327.55 3130.95,-322.15 3120.46,-320.69 3121.84,-327.55"/>
</g>
<!-- 20 -->
<g id="node21" class="node">
<title>20</title>
<path fill="none" stroke="#56a2d8" stroke-width="2" stroke-dasharray="5,2" d="M3539,-324C3539,-324 3435,-324 3435,-324 3429,-324 3423,-318 3423,-312 3423,-312 3423,-300 3423,-300 3423,-294 3429,-288 3435,-288 3435,-288 3539,-288 3539,-288 3545,-288 3551,-294 3551,-300 3551,-300 3551,-312 3551,-312 3551,-318 3545,-324 3539,-324"/>
<text text-anchor="middle" x="3487" y="-309" font-family="sans" font-size="10.00">prioritize_vep_variants</text>
<text text-anchor="middle" x="3487" y="-298" font-family="sans" font-size="10.00">chrom: chr7</text>
</g>
<!-- 3&#45;&gt;20 -->
<g id="edge64" class="edge">
<title>3&#45;&gt;20</title>
<path fill="none" stroke="grey" stroke-width="2" d="M1930.68,-448.75C2053.04,-447.4 2557.6,-439.37 2969,-396 3165.04,-375.33 3215.81,-363.14 3413.14,-324.11"/>
<polygon fill="grey" stroke="grey" stroke-width="2" points="3413.83,-327.55 3422.96,-322.17 3412.47,-320.68 3413.83,-327.55"/>
</g>
<!-- 21 -->
<g id="node22" class="node">
<title>21</title>
<path fill="none" stroke="#56a2d8" stroke-width="2" stroke-dasharray="5,2" d="M473,-324C473,-324 369,-324 369,-324 363,-324 357,-318 357,-312 357,-312 357,-300 357,-300 357,-294 363,-288 369,-288 369,-288 473,-288 473,-288 479,-288 485,-294 485,-300 485,-300 485,-312 485,-312 485,-318 479,-324 473,-324"/>
<text text-anchor="middle" x="421" y="-309" font-family="sans" font-size="10.00">prioritize_vep_variants</text>
<text text-anchor="middle" x="421" y="-298" font-family="sans" font-size="10.00">chrom: chr8</text>
</g>
<!-- 3&#45;&gt;21 -->
<g id="edge67" class="edge">
<title>3&#45;&gt;21</title>
<path fill="none" stroke="grey" stroke-width="2" d="M1875.27,-448.47C1723.49,-445.45 992.18,-429.4 769,-396 667.45,-380.8 552.57,-348.34 483.52,-327.1"/>
<polygon fill="grey" stroke="grey" stroke-width="2" points="484.26,-323.67 473.67,-324.06 482.19,-330.36 484.26,-323.67"/>
</g>
<!-- 22 -->
<g id="node23" class="node">
<title>22</title>
<path fill="none" stroke="#56a2d8" stroke-width="2" stroke-dasharray="5,2" d="M619,-324C619,-324 515,-324 515,-324 509,-324 503,-318 503,-312 503,-312 503,-300 503,-300 503,-294 509,-288 515,-288 515,-288 619,-288 619,-288 625,-288 631,-294 631,-300 631,-300 631,-312 631,-312 631,-318 625,-324 619,-324"/>
<text text-anchor="middle" x="567" y="-309" font-family="sans" font-size="10.00">prioritize_vep_variants</text>
<text text-anchor="middle" x="567" y="-298" font-family="sans" font-size="10.00">chrom: chr9</text>
</g>
<!-- 3&#45;&gt;22 -->
<g id="edge70" class="edge">
<title>3&#45;&gt;22</title>
<path fill="none" stroke="grey" stroke-width="2" d="M1875.33,-449.14C1761.3,-449.39 1316.76,-446.83 956,-396 843.07,-380.09 714.54,-347.84 637.16,-326.85"/>
<polygon fill="grey" stroke="grey" stroke-width="2" points="637.62,-323.34 627.05,-324.09 635.77,-330.1 637.62,-323.34"/>
</g>
<!-- 23 -->
<g id="node24" class="node">
<title>23</title>
<path fill="none" stroke="#56a2d8" stroke-width="2" stroke-dasharray="5,2" d="M765,-324C765,-324 661,-324 661,-324 655,-324 649,-318 649,-312 649,-312 649,-300 649,-300 649,-294 655,-288 661,-288 661,-288 765,-288 765,-288 771,-288 777,-294 777,-300 777,-300 777,-312 777,-312 777,-318 771,-324 765,-324"/>
<text text-anchor="middle" x="713" y="-309" font-family="sans" font-size="10.00">prioritize_vep_variants</text>
<text text-anchor="middle" x="713" y="-298" font-family="sans" font-size="10.00">chrom: chr10</text>
</g>
<!-- 3&#45;&gt;23 -->
<g id="edge73" class="edge">
<title>3&#45;&gt;23</title>
<path fill="none" stroke="grey" stroke-width="2" d="M1875.49,-448.08C1779.05,-444.64 1447.44,-430.84 1176,-396 1004.42,-373.97 960.17,-360.5 787.02,-324.18"/>
<polygon fill="grey" stroke="grey" stroke-width="2" points="787.56,-320.72 777.06,-322.09 786.13,-327.57 787.56,-320.72"/>
</g>
<!-- 24 -->
<g id="node25" class="node">
<title>24</title>
<path fill="none" stroke="#56a2d8" stroke-width="2" stroke-dasharray="5,2" d="M1641,-324C1641,-324 1537,-324 1537,-324 1531,-324 1525,-318 1525,-312 1525,-312 1525,-300 1525,-300 1525,-294 1531,-288 1537,-288 1537,-288 1641,-288 1641,-288 1647,-288 1653,-294 1653,-300 1653,-300 1653,-312 1653,-312 1653,-318 1647,-324 1641,-324"/>
<text text-anchor="middle" x="1589" y="-309" font-family="sans" font-size="10.00">prioritize_vep_variants</text>
<text text-anchor="middle" x="1589" y="-298" font-family="sans" font-size="10.00">chrom: chr11</text>
</g>
<!-- 3&#45;&gt;24 -->
<g id="edge76" class="edge">
<title>3&#45;&gt;24</title>
<path fill="none" stroke="grey" stroke-width="2" d="M1875.46,-441.13C1844.21,-431.83 1792,-415.18 1749,-396 1705.01,-376.38 1657.03,-348.8 1625.21,-329.56"/>
<polygon fill="grey" stroke="grey" stroke-width="2" points="1626.63,-326.33 1616.27,-324.12 1622.99,-332.31 1626.63,-326.33"/>
</g>
<!-- 25 -->
<g id="node26" class="node">
<title>25</title>
<path fill="none" stroke="#56a2d8" stroke-width="2" stroke-dasharray="5,2" d="M1933,-324C1933,-324 1829,-324 1829,-324 1823,-324 1817,-318 1817,-312 1817,-312 1817,-300 1817,-300 1817,-294 1823,-288 1829,-288 1829,-288 1933,-288 1933,-288 1939,-288 1945,-294 1945,-300 1945,-300 1945,-312 1945,-312 1945,-318 1939,-324 1933,-324"/>
<text text-anchor="middle" x="1881" y="-309" font-family="sans" font-size="10.00">prioritize_vep_variants</text>
<text text-anchor="middle" x="1881" y="-298" font-family="sans" font-size="10.00">chrom: chr12</text>
</g>
<!-- 3&#45;&gt;25 -->
<g id="edge79" class="edge">
<title>3&#45;&gt;25</title>
<path fill="none" stroke="grey" stroke-width="2" d="M1900.35,-431.87C1896.6,-407.67 1889.71,-363.21 1885.24,-334.39"/>
<polygon fill="grey" stroke="grey" stroke-width="2" points="1888.65,-333.54 1883.66,-324.19 1881.74,-334.61 1888.65,-333.54"/>
</g>
<!-- 26 -->
<g id="node27" class="node">
<title>26</title>
<path fill="none" stroke="#56a2d8" stroke-width="2" stroke-dasharray="5,2" d="M2225,-324C2225,-324 2121,-324 2121,-324 2115,-324 2109,-318 2109,-312 2109,-312 2109,-300 2109,-300 2109,-294 2115,-288 2121,-288 2121,-288 2225,-288 2225,-288 2231,-288 2237,-294 2237,-300 2237,-300 2237,-312 2237,-312 2237,-318 2231,-324 2225,-324"/>
<text text-anchor="middle" x="2173" y="-309" font-family="sans" font-size="10.00">prioritize_vep_variants</text>
<text text-anchor="middle" x="2173" y="-298" font-family="sans" font-size="10.00">chrom: chr13</text>
</g>
<!-- 3&#45;&gt;26 -->
<g id="edge82" class="edge">
<title>3&#45;&gt;26</title>
<path fill="none" stroke="grey" stroke-width="2" d="M1930.55,-445.91C1968.75,-440.62 2038.88,-427.22 2090,-396 2116.82,-379.62 2140.5,-352.23 2155.63,-332.15"/>
<polygon fill="grey" stroke="grey" stroke-width="2" points="2158.48,-334.18 2161.57,-324.05 2152.83,-330.04 2158.48,-334.18"/>
</g>
<!-- 27 -->
<g id="node28" class="node">
<title>27</title>
<path fill="none" stroke="#56a2d8" stroke-width="2" stroke-dasharray="5,2" d="M1057,-324C1057,-324 953,-324 953,-324 947,-324 941,-318 941,-312 941,-312 941,-300 941,-300 941,-294 947,-288 953,-288 953,-288 1057,-288 1057,-288 1063,-288 1069,-294 1069,-300 1069,-300 1069,-312 1069,-312 1069,-318 1063,-324 1057,-324"/>
<text text-anchor="middle" x="1005" y="-309" font-family="sans" font-size="10.00">prioritize_vep_variants</text>
<text text-anchor="middle" x="1005" y="-298" font-family="sans" font-size="10.00">chrom: chr14</text>
</g>
<!-- 3&#45;&gt;27 -->
<g id="edge85" class="edge">
<title>3&#45;&gt;27</title>
<path fill="none" stroke="grey" stroke-width="2" d="M1875.41,-448.98C1798,-448.34 1572.74,-442.29 1393,-396 1353.27,-385.77 1347.45,-371.26 1308,-360 1211.61,-332.5 1181.44,-343.03 1079.16,-324.12"/>
<polygon fill="grey" stroke="grey" stroke-width="2" points="1079.51,-320.62 1069.04,-322.19 1078.21,-327.5 1079.51,-320.62"/>
</g>
<!-- 28 -->
<g id="node29" class="node">
<title>28</title>
<path fill="none" stroke="#56a2d8" stroke-width="2" stroke-dasharray="5,2" d="M1203,-324C1203,-324 1099,-324 1099,-324 1093,-324 1087,-318 1087,-312 1087,-312 1087,-300 1087,-300 1087,-294 1093,-288 1099,-288 1099,-288 1203,-288 1203,-288 1209,-288 1215,-294 1215,-300 1215,-300 1215,-312 1215,-312 1215,-318 1209,-324 1203,-324"/>
<text text-anchor="middle" x="1151" y="-309" font-family="sans" font-size="10.00">prioritize_vep_variants</text>
<text text-anchor="middle" x="1151" y="-298" font-family="sans" font-size="10.00">chrom: chr15</text>
</g>
<!-- 3&#45;&gt;28 -->
<g id="edge88" class="edge">
<title>3&#45;&gt;28</title>
<path fill="none" stroke="grey" stroke-width="2" d="M1875.4,-449.57C1803.92,-450.24 1607.68,-446.92 1455,-396 1424.77,-385.92 1422.73,-371.46 1393,-360 1324.28,-333.51 1300.88,-340.09 1225.1,-324.17"/>
<polygon fill="grey" stroke="grey" stroke-width="2" points="1225.59,-320.69 1215.08,-321.99 1224.11,-327.53 1225.59,-320.69"/>
</g>
<!-- 29 -->
<g id="node30" class="node">
<title>29</title>
<path fill="none" stroke="#56a2d8" stroke-width="2" stroke-dasharray="5,2" d="M2371,-324C2371,-324 2267,-324 2267,-324 2261,-324 2255,-318 2255,-312 2255,-312 2255,-300 2255,-300 2255,-294 2261,-288 2267,-288 2267,-288 2371,-288 2371,-288 2377,-288 2383,-294 2383,-300 2383,-300 2383,-312 2383,-312 2383,-318 2377,-324 2371,-324"/>
<text text-anchor="middle" x="2319" y="-309" font-family="sans" font-size="10.00">prioritize_vep_variants</text>
<text text-anchor="middle" x="2319" y="-298" font-family="sans" font-size="10.00">chrom: chr16</text>
</g>
<!-- 3&#45;&gt;29 -->
<g id="edge91" class="edge">
<title>3&#45;&gt;29</title>
<path fill="none" stroke="grey" stroke-width="2" d="M1930.7,-444.14C1973.05,-436.31 2056.11,-419.39 2124,-396 2178.72,-377.15 2238.93,-348.35 2277.76,-328.65"/>
<polygon fill="grey" stroke="grey" stroke-width="2" points="2279.36,-331.77 2286.67,-324.1 2276.17,-325.53 2279.36,-331.77"/>
</g>
<!-- 30 -->
<g id="node31" class="node">
<title>30</title>
<path fill="none" stroke="#56a2d8" stroke-width="2" stroke-dasharray="5,2" d="M3393,-324C3393,-324 3289,-324 3289,-324 3283,-324 3277,-318 3277,-312 3277,-312 3277,-300 3277,-300 3277,-294 3283,-288 3289,-288 3289,-288 3393,-288 3393,-288 3399,-288 3405,-294 3405,-300 3405,-300 3405,-312 3405,-312 3405,-318 3399,-324 3393,-324"/>
<text text-anchor="middle" x="3341" y="-309" font-family="sans" font-size="10.00">prioritize_vep_variants</text>
<text text-anchor="middle" x="3341" y="-298" font-family="sans" font-size="10.00">chrom: chr17</text>
</g>
<!-- 3&#45;&gt;30 -->
<g id="edge94" class="edge">
<title>3&#45;&gt;30</title>
<path fill="none" stroke="grey" stroke-width="2" d="M1930.8,-448.49C2043.46,-446.2 2476.93,-435.17 2831,-396 3023.4,-374.72 3073.29,-362.74 3267.02,-324.14"/>
<polygon fill="grey" stroke="grey" stroke-width="2" points="3267.83,-327.55 3276.96,-322.16 3266.47,-320.68 3267.83,-327.55"/>
</g>
<!-- 31 -->
<g id="node32" class="node">
<title>31</title>
<path fill="none" stroke="#56a2d8" stroke-width="2" stroke-dasharray="5,2" d="M3685,-324C3685,-324 3581,-324 3581,-324 3575,-324 3569,-318 3569,-312 3569,-312 3569,-300 3569,-300 3569,-294 3575,-288 3581,-288 3581,-288 3685,-288 3685,-288 3691,-288 3697,-294 3697,-300 3697,-300 3697,-312 3697,-312 3697,-318 3691,-324 3685,-324"/>
<text text-anchor="middle" x="3633" y="-309" font-family="sans" font-size="10.00">prioritize_vep_variants</text>
<text text-anchor="middle" x="3633" y="-298" font-family="sans" font-size="10.00">chrom: chr18</text>
</g>
<!-- 3&#45;&gt;31 -->
<g id="edge97" class="edge">
<title>3&#45;&gt;31</title>
<path fill="none" stroke="grey" stroke-width="2" d="M1930.79,-448.97C2063.03,-448.59 2641.81,-444.1 3113,-396 3309.96,-375.89 3360.93,-363.26 3559.1,-324.12"/>
<polygon fill="grey" stroke="grey" stroke-width="2" points="3559.83,-327.55 3568.96,-322.18 3558.47,-320.68 3559.83,-327.55"/>
</g>
<!-- 32 -->
<g id="node33" class="node">
<title>32</title>
<path fill="none" stroke="#56a2d8" stroke-width="2" stroke-dasharray="5,2" d="M1349,-324C1349,-324 1245,-324 1245,-324 1239,-324 1233,-318 1233,-312 1233,-312 1233,-300 1233,-300 1233,-294 1239,-288 1245,-288 1245,-288 1349,-288 1349,-288 1355,-288 1361,-294 1361,-300 1361,-300 1361,-312 1361,-312 1361,-318 1355,-324 1349,-324"/>
<text text-anchor="middle" x="1297" y="-309" font-family="sans" font-size="10.00">prioritize_vep_variants</text>
<text text-anchor="middle" x="1297" y="-298" font-family="sans" font-size="10.00">chrom: chr19</text>
</g>
<!-- 3&#45;&gt;32 -->
<g id="edge100" class="edge">
<title>3&#45;&gt;32</title>
<path fill="none" stroke="grey" stroke-width="2" d="M1875.43,-446.13C1817.92,-439.81 1681.15,-423.06 1569,-396 1548.08,-390.95 1430.94,-351.99 1357.36,-327.32"/>
<polygon fill="grey" stroke="grey" stroke-width="2" points="1358.32,-323.95 1347.73,-324.08 1356.1,-330.58 1358.32,-323.95"/>
</g>
<!-- 33 -->
<g id="node34" class="node">
<title>33</title>
<path fill="none" stroke="#56a2d8" stroke-width="2" stroke-dasharray="5,2" d="M1495,-324C1495,-324 1391,-324 1391,-324 1385,-324 1379,-318 1379,-312 1379,-312 1379,-300 1379,-300 1379,-294 1385,-288 1391,-288 1391,-288 1495,-288 1495,-288 1501,-288 1507,-294 1507,-300 1507,-300 1507,-312 1507,-312 1507,-318 1501,-324 1495,-324"/>
<text text-anchor="middle" x="1443" y="-309" font-family="sans" font-size="10.00">prioritize_vep_variants</text>
<text text-anchor="middle" x="1443" y="-298" font-family="sans" font-size="10.00">chrom: chr20</text>
</g>
<!-- 3&#45;&gt;33 -->
<g id="edge103" class="edge">
<title>3&#45;&gt;33</title>
<path fill="none" stroke="grey" stroke-width="2" d="M1875.2,-443.72C1832.24,-435.29 1747.33,-417.52 1677,-396 1612.06,-376.13 1539.23,-347.37 1492.33,-327.96"/>
<polygon fill="grey" stroke="grey" stroke-width="2" points="1493.59,-324.7 1483.01,-324.09 1490.91,-331.16 1493.59,-324.7"/>
</g>
<!-- 34 -->
<g id="node35" class="node">
<title>34</title>
<path fill="none" stroke="#56a2d8" stroke-width="2" stroke-dasharray="5,2" d="M1787,-324C1787,-324 1683,-324 1683,-324 1677,-324 1671,-318 1671,-312 1671,-312 1671,-300 1671,-300 1671,-294 1677,-288 1683,-288 1683,-288 1787,-288 1787,-288 1793,-288 1799,-294 1799,-300 1799,-300 1799,-312 1799,-312 1799,-318 1793,-324 1787,-324"/>
<text text-anchor="middle" x="1735" y="-309" font-family="sans" font-size="10.00">prioritize_vep_variants</text>
<text text-anchor="middle" x="1735" y="-298" font-family="sans" font-size="10.00">chrom: chr21</text>
</g>
<!-- 3&#45;&gt;34 -->
<g id="edge106" class="edge">
<title>3&#45;&gt;34</title>
<path fill="none" stroke="grey" stroke-width="2" d="M1875.49,-443.33C1847.84,-436.38 1805.48,-422.17 1778,-396 1760.3,-379.15 1748.99,-353.51 1742.43,-334.07"/>
<polygon fill="grey" stroke="grey" stroke-width="2" points="1745.69,-332.76 1739.35,-324.27 1739.01,-334.86 1745.69,-332.76"/>
</g>
<!-- 35 -->
<g id="node36" class="node">
<title>35</title>
<path fill="none" stroke="#56a2d8" stroke-width="2" stroke-dasharray="5,2" d="M2079,-324C2079,-324 1975,-324 1975,-324 1969,-324 1963,-318 1963,-312 1963,-312 1963,-300 1963,-300 1963,-294 1969,-288 1975,-288 1975,-288 2079,-288 2079,-288 2085,-288 2091,-294 2091,-300 2091,-300 2091,-312 2091,-312 2091,-318 2085,-324 2079,-324"/>
<text text-anchor="middle" x="2027" y="-309" font-family="sans" font-size="10.00">prioritize_vep_variants</text>
<text text-anchor="middle" x="2027" y="-298" font-family="sans" font-size="10.00">chrom: chr22</text>
</g>
<!-- 3&#45;&gt;35 -->
<g id="edge109" class="edge">
<title>3&#45;&gt;35</title>
<path fill="none" stroke="grey" stroke-width="2" d="M1917.96,-431.87C1939.74,-406.92 1980.33,-360.45 2005.37,-331.77"/>
<polygon fill="grey" stroke="grey" stroke-width="2" points="2008.05,-334.02 2011.99,-324.19 2002.78,-329.42 2008.05,-334.02"/>
</g>
<!-- 36 -->
<g id="node37" class="node">
<title>36</title>
<path fill="none" stroke="#56a2d8" stroke-width="2" stroke-dasharray="5,2" d="M3101,-324C3101,-324 2997,-324 2997,-324 2991,-324 2985,-318 2985,-312 2985,-312 2985,-300 2985,-300 2985,-294 2991,-288 2997,-288 2997,-288 3101,-288 3101,-288 3107,-288 3113,-294 3113,-300 3113,-300 3113,-312 3113,-312 3113,-318 3107,-324 3101,-324"/>
<text text-anchor="middle" x="3049" y="-309" font-family="sans" font-size="10.00">prioritize_vep_variants</text>
<text text-anchor="middle" x="3049" y="-298" font-family="sans" font-size="10.00">chrom: chrX</text>
</g>
<!-- 3&#45;&gt;36 -->
<g id="edge112" class="edge">
<title>3&#45;&gt;36</title>
<path fill="none" stroke="grey" stroke-width="2" d="M1930.74,-447.75C2022.3,-443.44 2323.14,-427.62 2570,-396 2748.58,-373.12 2794.86,-361.22 2975.14,-324.13"/>
<polygon fill="grey" stroke="grey" stroke-width="2" points="2975.86,-327.56 2984.95,-322.12 2974.45,-320.7 2975.86,-327.56"/>
</g>
<!-- 38 -->
<g id="node39" class="node">
<title>38</title>
<path fill="none" stroke="#d8d356" stroke-width="2" d="M2138,-180C2138,-180 2060,-180 2060,-180 2054,-180 2048,-174 2048,-168 2048,-168 2048,-156 2048,-156 2048,-150 2054,-144 2060,-144 2060,-144 2138,-144 2138,-144 2144,-144 2150,-150 2150,-156 2150,-156 2150,-168 2150,-168 2150,-174 2144,-180 2138,-180"/>
<text text-anchor="middle" x="2099" y="-159.5" font-family="sans" font-size="10.00">network_analysis</text>
</g>
<!-- 3&#45;&gt;38 -->
<g id="edge115" class="edge">
<title>3&#45;&gt;38</title>
<path fill="none" stroke="grey" stroke-width="2" d="M1930.75,-449.09C2072.09,-449.3 2726.06,-447.33 3258,-396 3466.6,-375.87 3567.36,-463.22 3724,-324 3748.82,-301.94 3739.51,-284.91 3744,-252 3746.16,-236.15 3755.13,-227.49 3744,-216 3687.95,-158.12 2453.32,-161.09 2160.76,-162.62"/>
<polygon fill="grey" stroke="grey" stroke-width="2" points="2160.33,-159.12 2150.35,-162.67 2160.37,-166.12 2160.33,-159.12"/>
</g>
<!-- 4 -->
<g id="node5" class="node">
<title>4</title>
<path fill="none" stroke="#56d0d8" stroke-width="2" stroke-dasharray="5,2" d="M1949,-540C1949,-540 1857,-540 1857,-540 1851,-540 1845,-534 1845,-528 1845,-528 1845,-516 1845,-516 1845,-510 1851,-504 1857,-504 1857,-504 1949,-504 1949,-504 1955,-504 1961,-510 1961,-516 1961,-516 1961,-528 1961,-528 1961,-534 1955,-540 1949,-540"/>
<text text-anchor="middle" x="1903" y="-519.5" font-family="sans" font-size="10.00">outrider_dim_search</text>
</g>
<!-- 4&#45;&gt;3 -->
<g id="edge10" class="edge">
<title>4&#45;&gt;3</title>
<path fill="none" stroke="grey" stroke-width="2" d="M1903,-503.7C1903,-495.98 1903,-486.71 1903,-478.11"/>
<polygon fill="grey" stroke="grey" stroke-width="2" points="1906.5,-478.1 1903,-468.1 1899.5,-478.1 1906.5,-478.1"/>
</g>
<!-- 5 -->
<g id="node6" class="node">
<title>5</title>
<path fill="none" stroke="#d86e56" stroke-width="2" stroke-dasharray="5,2" d="M1929.5,-612C1929.5,-612 1876.5,-612 1876.5,-612 1870.5,-612 1864.5,-606 1864.5,-600 1864.5,-600 1864.5,-588 1864.5,-588 1864.5,-582 1870.5,-576 1876.5,-576 1876.5,-576 1929.5,-576 1929.5,-576 1935.5,-576 1941.5,-582 1941.5,-588 1941.5,-588 1941.5,-600 1941.5,-600 1941.5,-606 1935.5,-612 1929.5,-612"/>
<text text-anchor="middle" x="1903" y="-591.5" font-family="sans" font-size="10.00">filter_counts</text>
</g>
<!-- 5&#45;&gt;4 -->
<g id="edge11" class="edge">
<title>5&#45;&gt;4</title>
<path fill="none" stroke="grey" stroke-width="2" d="M1903,-575.7C1903,-567.98 1903,-558.71 1903,-550.11"/>
<polygon fill="grey" stroke="grey" stroke-width="2" points="1906.5,-550.1 1903,-540.1 1899.5,-550.1 1906.5,-550.1"/>
</g>
<!-- 6 -->
<g id="node7" class="node">
<title>6</title>
<path fill="none" stroke="#afd856" stroke-width="2" stroke-dasharray="5,2" d="M1948.5,-684C1948.5,-684 1857.5,-684 1857.5,-684 1851.5,-684 1845.5,-678 1845.5,-672 1845.5,-672 1845.5,-660 1845.5,-660 1845.5,-654 1851.5,-648 1857.5,-648 1857.5,-648 1948.5,-648 1948.5,-648 1954.5,-648 1960.5,-654 1960.5,-660 1960.5,-660 1960.5,-672 1960.5,-672 1960.5,-678 1954.5,-684 1948.5,-684"/>
<text text-anchor="middle" x="1903" y="-663.5" font-family="sans" font-size="10.00">merge_gene_counts</text>
</g>
<!-- 6&#45;&gt;5 -->
<g id="edge12" class="edge">
<title>6&#45;&gt;5</title>
<path fill="none" stroke="grey" stroke-width="2" d="M1903,-647.7C1903,-639.98 1903,-630.71 1903,-622.11"/>
<polygon fill="grey" stroke="grey" stroke-width="2" points="1906.5,-622.1 1903,-612.1 1899.5,-622.1 1906.5,-622.1"/>
</g>
<!-- 7 -->
<g id="node8" class="node">
<title>7</title>
<path fill="none" stroke="#56d863" stroke-width="2" stroke-dasharray="5,2" d="M98,-468C98,-468 12,-468 12,-468 6,-468 0,-462 0,-456 0,-456 0,-444 0,-444 0,-438 6,-432 12,-432 12,-432 98,-432 98,-432 104,-432 110,-438 110,-444 110,-444 110,-456 110,-456 110,-462 104,-468 98,-468"/>
<text text-anchor="middle" x="55" y="-447.5" font-family="sans" font-size="10.00">sample_annotation</text>
</g>
<!-- 7&#45;&gt;2 -->
<g id="edge9" class="edge">
<title>7&#45;&gt;2</title>
<path fill="none" stroke="grey" stroke-width="2" d="M55,-431.7C55,-423.98 55,-414.71 55,-406.11"/>
<polygon fill="grey" stroke="grey" stroke-width="2" points="58.5,-406.1 55,-396.1 51.5,-406.1 58.5,-406.1"/>
</g>
<!-- 8&#45;&gt;1 -->
<g id="edge3" class="edge">
<title>8&#45;&gt;1</title>
<path fill="none" stroke="grey" stroke-width="2" d="M1786.94,-377.05C1544.39,-377.15 380.94,-374.94 326,-324 269.09,-271.23 298.04,-166.69 316.12,-117.62"/>
<polygon fill="grey" stroke="grey" stroke-width="2" points="319.49,-118.62 319.78,-108.03 312.95,-116.12 319.49,-118.62"/>
</g>
<!-- 8&#45;&gt;9 -->
<g id="edge15" class="edge">
<title>8&#45;&gt;9</title>
<path fill="none" stroke="grey" stroke-width="2" d="M1786.74,-376.83C1601.9,-375.83 873.57,-369.07 277,-324 250.9,-322.03 222.26,-318.88 197.38,-315.83"/>
<polygon fill="grey" stroke="grey" stroke-width="2" points="197.68,-312.34 187.32,-314.57 196.81,-319.28 197.68,-312.34"/>
</g>
<!-- 8&#45;&gt;11 -->
<g id="edge19" class="edge">
<title>8&#45;&gt;11</title>
<path fill="none" stroke="grey" stroke-width="2" d="M1786.7,-377.13C1545.48,-377.6 399.21,-377.07 348,-324 313.52,-288.27 333.85,-225.06 349.7,-189.4"/>
<polygon fill="grey" stroke="grey" stroke-width="2" points="352.98,-190.66 354.01,-180.11 346.63,-187.71 352.98,-190.66"/>
</g>
<!-- 8&#45;&gt;13 -->
<g id="edge47" class="edge">
<title>8&#45;&gt;13</title>
<path fill="none" stroke="grey" stroke-width="2" d="M1787,-375.4C1633.15,-369.65 1119.12,-349.11 933.29,-324.01"/>
<polygon fill="grey" stroke="grey" stroke-width="2" points="933.76,-320.54 923.37,-322.62 932.79,-327.47 933.76,-320.54"/>
</g>
<!-- 8&#45;&gt;15 -->
<g id="edge50" class="edge">
<title>8&#45;&gt;15</title>
<path fill="none" stroke="grey" stroke-width="2" d="M1875.12,-372.7C1910.71,-369.24 1962.08,-364.27 2007,-360 2174.83,-344.05 2220.63,-351.26 2390.57,-324.11"/>
<polygon fill="grey" stroke="grey" stroke-width="2" points="2391.29,-327.54 2400.61,-322.49 2390.18,-320.63 2391.29,-327.54"/>
</g>
<!-- 8&#45;&gt;16 -->
<g id="edge53" class="edge">
<title>8&#45;&gt;16</title>
<path fill="none" stroke="grey" stroke-width="2" d="M1875.09,-372.39C1910.67,-368.75 1962.03,-363.7 2007,-360 2239.41,-340.9 2302.28,-358.43 2536.43,-324.1"/>
<polygon fill="grey" stroke="grey" stroke-width="2" points="2537.24,-327.51 2546.62,-322.59 2536.22,-320.59 2537.24,-327.51"/>
</g>
<!-- 8&#45;&gt;17 -->
<g id="edge56" class="edge">
<title>8&#45;&gt;17</title>
<path fill="none" stroke="grey" stroke-width="2" d="M1875.08,-372.21C1910.65,-368.47 1962,-363.37 2007,-360 2304.1,-337.76 2383.89,-365.69 2682.37,-324.08"/>
<polygon fill="grey" stroke="grey" stroke-width="2" points="2683.22,-327.5 2692.63,-322.64 2682.24,-320.57 2683.22,-327.5"/>
</g>
<!-- 8&#45;&gt;18 -->
<g id="edge59" class="edge">
<title>8&#45;&gt;18</title>
<path fill="none" stroke="grey" stroke-width="2" d="M1875.07,-372.1C1910.63,-368.29 1961.98,-363.16 2007,-360 2368.93,-334.62 2465.53,-373.03 2828.64,-324.03"/>
<polygon fill="grey" stroke="grey" stroke-width="2" points="2829.2,-327.49 2838.63,-322.67 2828.25,-320.55 2829.2,-327.49"/>
</g>
<!-- 8&#45;&gt;19 -->
<g id="edge62" class="edge">
<title>8&#45;&gt;19</title>
<path fill="none" stroke="grey" stroke-width="2" d="M1875.06,-371.96C1910.62,-368.07 1961.97,-362.9 2007,-360 2498.41,-328.37 2628.63,-387.72 3120.43,-324.04"/>
<polygon fill="grey" stroke="grey" stroke-width="2" points="3121.18,-327.48 3130.64,-322.71 3120.27,-320.53 3121.18,-327.48"/>
</g>
<!-- 8&#45;&gt;20 -->
<g id="edge65" class="edge">
<title>8&#45;&gt;20</title>
<path fill="none" stroke="grey" stroke-width="2" d="M1875.05,-371.87C1910.61,-367.95 1961.96,-362.75 2007,-360 2315.99,-341.15 3087.72,-363.21 3412.69,-323.97"/>
<polygon fill="grey" stroke="grey" stroke-width="2" points="3413.15,-327.44 3422.64,-322.73 3412.29,-320.5 3413.15,-327.44"/>
</g>
<!-- 8&#45;&gt;21 -->
<g id="edge68" class="edge">
<title>8&#45;&gt;21</title>
<path fill="none" stroke="grey" stroke-width="2" d="M1786.99,-376.37C1588.27,-373.38 772.66,-359.24 495.39,-324"/>
<polygon fill="grey" stroke="grey" stroke-width="2" points="495.73,-320.52 485.36,-322.68 494.82,-327.46 495.73,-320.52"/>
</g>
<!-- 8&#45;&gt;22 -->
<g id="edge71" class="edge">
<title>8&#45;&gt;22</title>
<path fill="none" stroke="grey" stroke-width="2" d="M1786.87,-376.13C1601.95,-372.3 888.01,-355.82 641.35,-324"/>
<polygon fill="grey" stroke="grey" stroke-width="2" points="641.74,-320.52 631.37,-322.67 640.82,-327.46 641.74,-320.52"/>
</g>
<!-- 8&#45;&gt;23 -->
<g id="edge74" class="edge">
<title>8&#45;&gt;23</title>
<path fill="none" stroke="grey" stroke-width="2" d="M1786.85,-375.81C1616.83,-371.07 1003.57,-352.44 787.36,-324.01"/>
<polygon fill="grey" stroke="grey" stroke-width="2" points="787.75,-320.53 777.37,-322.65 786.81,-327.46 787.75,-320.53"/>
</g>
<!-- 8&#45;&gt;24 -->
<g id="edge77" class="edge">
<title>8&#45;&gt;24</title>
<path fill="none" stroke="grey" stroke-width="2" d="M1786.89,-364.24C1750.8,-353.8 1699.11,-338.85 1657.61,-326.85"/>
<polygon fill="grey" stroke="grey" stroke-width="2" points="1658.42,-323.44 1647.84,-324.02 1656.48,-330.16 1658.42,-323.44"/>
</g>
<!-- 8&#45;&gt;25 -->
<g id="edge80" class="edge">
<title>8&#45;&gt;25</title>
<path fill="none" stroke="grey" stroke-width="2" d="M1843.36,-359.7C1849.23,-351.47 1856.37,-341.48 1862.84,-332.42"/>
<polygon fill="grey" stroke="grey" stroke-width="2" points="1865.82,-334.28 1868.78,-324.1 1860.12,-330.21 1865.82,-334.28"/>
</g>
<!-- 8&#45;&gt;26 -->
<g id="edge83" class="edge">
<title>8&#45;&gt;26</title>
<path fill="none" stroke="grey" stroke-width="2" d="M1875.36,-368.74C1926.79,-359.06 2014.32,-342.26 2099.14,-324.15"/>
<polygon fill="grey" stroke="grey" stroke-width="2" points="2099.89,-327.57 2108.93,-322.05 2098.42,-320.72 2099.89,-327.57"/>
</g>
<!-- 8&#45;&gt;27 -->
<g id="edge86" class="edge">
<title>8&#45;&gt;27</title>
<path fill="none" stroke="grey" stroke-width="2" d="M1786.6,-376.33C1671.29,-374.06 1352.86,-364.46 1079.49,-324.09"/>
<polygon fill="grey" stroke="grey" stroke-width="2" points="1079.79,-320.59 1069.38,-322.58 1078.75,-327.52 1079.79,-320.59"/>
</g>
<!-- 8&#45;&gt;28 -->
<g id="edge89" class="edge">
<title>8&#45;&gt;28</title>
<path fill="none" stroke="grey" stroke-width="2" d="M1786.94,-375.29C1688.04,-371.01 1440.83,-357.73 1225.3,-324.08"/>
<polygon fill="grey" stroke="grey" stroke-width="2" points="1225.81,-320.62 1215.39,-322.52 1224.72,-327.53 1225.81,-320.62"/>
</g>
<!-- 8&#45;&gt;29 -->
<g id="edge92" class="edge">
<title>8&#45;&gt;29</title>
<path fill="none" stroke="grey" stroke-width="2" d="M1875.14,-372.85C1949.43,-365.55 2104.3,-348.94 2244.89,-324.1"/>
<polygon fill="grey" stroke="grey" stroke-width="2" points="2245.75,-327.5 2254.98,-322.3 2244.52,-320.61 2245.75,-327.5"/>
</g>
<!-- 8&#45;&gt;30 -->
<g id="edge95" class="edge">
<title>8&#45;&gt;30</title>
<path fill="none" stroke="grey" stroke-width="2" d="M1875.06,-371.91C1910.62,-368 1961.96,-362.81 2007,-360 2563.17,-325.24 2710.17,-395.08 3266.35,-324.05"/>
<polygon fill="grey" stroke="grey" stroke-width="2" points="3267.17,-327.47 3276.64,-322.72 3266.28,-320.53 3267.17,-327.47"/>
</g>
<!-- 8&#45;&gt;31 -->
<g id="edge98" class="edge">
<title>8&#45;&gt;31</title>
<path fill="none" stroke="grey" stroke-width="2" d="M1875.05,-371.84C1910.61,-367.9 1961.95,-362.69 2007,-360 2348.31,-339.59 3201.09,-366.85 3558.48,-324"/>
<polygon fill="grey" stroke="grey" stroke-width="2" points="3559.15,-327.44 3568.64,-322.74 3558.29,-320.49 3559.15,-327.44"/>
</g>
<!-- 8&#45;&gt;32 -->
<g id="edge101" class="edge">
<title>8&#45;&gt;32</title>
<path fill="none" stroke="grey" stroke-width="2" d="M1786.9,-373.62C1706.25,-367.07 1529.45,-351.03 1370.94,-324.05"/>
<polygon fill="grey" stroke="grey" stroke-width="2" points="1371.46,-320.59 1361.01,-322.34 1370.27,-327.49 1371.46,-320.59"/>
</g>
<!-- 8&#45;&gt;33 -->
<g id="edge104" class="edge">
<title>8&#45;&gt;33</title>
<path fill="none" stroke="grey" stroke-width="2" d="M1786.76,-370.44C1727.57,-361.48 1619.15,-344.37 1516.92,-324.12"/>
<polygon fill="grey" stroke="grey" stroke-width="2" points="1517.54,-320.68 1507.05,-322.15 1516.17,-327.54 1517.54,-320.68"/>
</g>
<!-- 8&#45;&gt;34 -->
<g id="edge107" class="edge">
<title>8&#45;&gt;34</title>
<path fill="none" stroke="grey" stroke-width="2" d="M1807.27,-359.7C1795.06,-350.8 1780.01,-339.82 1766.82,-330.2"/>
<polygon fill="grey" stroke="grey" stroke-width="2" points="1768.6,-327.17 1758.46,-324.1 1764.48,-332.82 1768.6,-327.17"/>
</g>
<!-- 8&#45;&gt;35 -->
<g id="edge110" class="edge">
<title>8&#45;&gt;35</title>
<path fill="none" stroke="grey" stroke-width="2" d="M1875.48,-361.12C1903.4,-351.14 1939.69,-338.18 1969.75,-327.45"/>
<polygon fill="grey" stroke="grey" stroke-width="2" points="1971.04,-330.7 1979.28,-324.04 1968.68,-324.11 1971.04,-330.7"/>
</g>
<!-- 8&#45;&gt;36 -->
<g id="edge113" class="edge">
<title>8&#45;&gt;36</title>
<path fill="none" stroke="grey" stroke-width="2" d="M1875.06,-372.01C1910.63,-368.17 1961.97,-363.01 2007,-360 2433.65,-331.49 2547.07,-380.36 2974.48,-324.04"/>
<polygon fill="grey" stroke="grey" stroke-width="2" points="2975.19,-327.48 2984.64,-322.69 2974.26,-320.54 2975.19,-327.48"/>
</g>
<!-- 9&#45;&gt;1 -->
<g id="edge4" class="edge">
<title>9&#45;&gt;1</title>
<path fill="none" stroke="grey" stroke-width="2" d="M147.11,-287.96C173.32,-258.44 229.04,-195.97 277,-144 285.63,-134.65 295.19,-124.47 303.62,-115.56"/>
<polygon fill="grey" stroke="grey" stroke-width="2" points="306.35,-117.76 310.69,-108.1 301.27,-112.95 306.35,-117.76"/>
</g>
<!-- 10 -->
<g id="node11" class="node">
<title>10</title>
<path fill="none" stroke="#d8a456" stroke-width="2" stroke-dasharray="5,2" d="M212,-396C212,-396 174,-396 174,-396 168,-396 162,-390 162,-384 162,-384 162,-372 162,-372 162,-366 168,-360 174,-360 174,-360 212,-360 212,-360 218,-360 224,-366 224,-372 224,-372 224,-384 224,-384 224,-390 218,-396 212,-396"/>
<text text-anchor="middle" x="193" y="-375.5" font-family="sans" font-size="10.00">literature</text>
</g>
<!-- 10&#45;&gt;9 -->
<g id="edge14" class="edge">
<title>10&#45;&gt;9</title>
<path fill="none" stroke="grey" stroke-width="2" d="M177.92,-359.7C170.61,-351.3 161.69,-341.07 153.66,-331.86"/>
<polygon fill="grey" stroke="grey" stroke-width="2" points="156.11,-329.34 146.91,-324.1 150.84,-333.94 156.11,-329.34"/>
</g>
<!-- 10&#45;&gt;11 -->
<g id="edge20" class="edge">
<title>10&#45;&gt;11</title>
<path fill="none" stroke="grey" stroke-width="2" d="M193.27,-359.69C194.67,-327.5 202.09,-257.87 239,-216 257.18,-195.38 284.77,-182.53 309.31,-174.65"/>
<polygon fill="grey" stroke="grey" stroke-width="2" points="310.32,-178 318.89,-171.77 308.31,-171.3 310.32,-178"/>
</g>
<!-- 11&#45;&gt;1 -->
<g id="edge6" class="edge">
<title>11&#45;&gt;1</title>
<path fill="none" stroke="grey" stroke-width="2" d="M354.1,-143.7C350,-135.73 345.05,-126.1 340.51,-117.26"/>
<polygon fill="grey" stroke="grey" stroke-width="2" points="343.48,-115.4 335.8,-108.1 337.26,-118.6 343.48,-115.4"/>
</g>
<!-- 12 -->
<g id="node13" class="node">
<title>12</title>
<path fill="none" stroke="#56b9d8" stroke-width="2" stroke-dasharray="5,2" d="M1988.5,-252C1988.5,-252 1919.5,-252 1919.5,-252 1913.5,-252 1907.5,-246 1907.5,-240 1907.5,-240 1907.5,-228 1907.5,-228 1907.5,-222 1913.5,-216 1919.5,-216 1919.5,-216 1988.5,-216 1988.5,-216 1994.5,-216 2000.5,-222 2000.5,-228 2000.5,-228 2000.5,-240 2000.5,-240 2000.5,-246 1994.5,-252 1988.5,-252"/>
<text text-anchor="middle" x="1954" y="-231.5" font-family="sans" font-size="10.00">merge_variants</text>
</g>
<!-- 12&#45;&gt;11 -->
<g id="edge17" class="edge">
<title>12&#45;&gt;11</title>
<path fill="none" stroke="grey" stroke-width="2" d="M1907.25,-230.94C1676.89,-220.81 663.82,-176.24 417.24,-165.39"/>
<polygon fill="grey" stroke="grey" stroke-width="2" points="417.24,-161.88 407.1,-164.94 416.93,-168.88 417.24,-161.88"/>
</g>
<!-- 13&#45;&gt;12 -->
<g id="edge23" class="edge">
<title>13&#45;&gt;12</title>
<path fill="none" stroke="grey" stroke-width="2" d="M923.37,-289.36C926.28,-288.86 929.17,-288.4 932,-288 1297.01,-236.45 1741.68,-233.65 1897.12,-234.43"/>
<polygon fill="grey" stroke="grey" stroke-width="2" points="1897.35,-237.94 1907.37,-234.49 1897.39,-230.94 1897.35,-237.94"/>
</g>
<!-- 14 -->
<g id="node15" class="node">
<title>14</title>
<path fill="none" stroke="#c6d856" stroke-width="2" stroke-dasharray="5,2" d="M2068.5,-396C2068.5,-396 2027.5,-396 2027.5,-396 2021.5,-396 2015.5,-390 2015.5,-384 2015.5,-384 2015.5,-372 2015.5,-372 2015.5,-366 2021.5,-360 2027.5,-360 2027.5,-360 2068.5,-360 2068.5,-360 2074.5,-360 2080.5,-366 2080.5,-372 2080.5,-372 2080.5,-384 2080.5,-384 2080.5,-390 2074.5,-396 2068.5,-396"/>
<text text-anchor="middle" x="2048" y="-375.5" font-family="sans" font-size="10.00">mmsplice</text>
</g>
<!-- 14&#45;&gt;11 -->
<g id="edge21" class="edge">
<title>14&#45;&gt;11</title>
<path fill="none" stroke="grey" stroke-width="2" d="M2080.87,-376.58C2311.32,-373.54 3676.65,-354.3 3706,-324 3717.13,-312.51 3717.07,-299.55 3706,-288 3646.61,-226.03 844.83,-171.89 417.43,-163.99"/>
<polygon fill="grey" stroke="grey" stroke-width="2" points="417.26,-160.49 407.2,-163.8 417.13,-167.49 417.26,-160.49"/>
</g>
<!-- 14&#45;&gt;13 -->
<g id="edge48" class="edge">
<title>14&#45;&gt;13</title>
<path fill="none" stroke="grey" stroke-width="2" d="M2015.38,-372.98C1982.33,-369.06 1929.69,-363.23 1884,-360 1464.94,-330.39 1353.39,-379.49 933.34,-324.02"/>
<polygon fill="grey" stroke="grey" stroke-width="2" points="933.74,-320.54 923.36,-322.69 932.81,-327.48 933.74,-320.54"/>
</g>
<!-- 14&#45;&gt;15 -->
<g id="edge51" class="edge">
<title>14&#45;&gt;15</title>
<path fill="none" stroke="grey" stroke-width="2" d="M2080.87,-372.78C2140.58,-364.94 2270.99,-346.97 2390.88,-324.14"/>
<polygon fill="grey" stroke="grey" stroke-width="2" points="2391.8,-327.53 2400.96,-322.2 2390.48,-320.65 2391.8,-327.53"/>
</g>
<!-- 14&#45;&gt;16 -->
<g id="edge54" class="edge">
<title>14&#45;&gt;16</title>
<path fill="none" stroke="grey" stroke-width="2" d="M2080.58,-374.85C2158.03,-369.43 2359.31,-353.66 2536.95,-324.06"/>
<polygon fill="grey" stroke="grey" stroke-width="2" points="2537.72,-327.48 2546.99,-322.37 2536.55,-320.58 2537.72,-327.48"/>
</g>
<!-- 14&#45;&gt;17 -->
<g id="edge57" class="edge">
<title>14&#45;&gt;17</title>
<path fill="none" stroke="grey" stroke-width="2" d="M2080.63,-375.96C2173.43,-372.64 2446.8,-360.41 2682.48,-324.11"/>
<polygon fill="grey" stroke="grey" stroke-width="2" points="2683.27,-327.53 2692.61,-322.53 2682.19,-320.61 2683.27,-327.53"/>
</g>
<!-- 14&#45;&gt;18 -->
<g id="edge60" class="edge">
<title>14&#45;&gt;18</title>
<path fill="none" stroke="grey" stroke-width="2" d="M2080.61,-376.67C2187.01,-375.18 2533.75,-367.24 2828.6,-324.07"/>
<polygon fill="grey" stroke="grey" stroke-width="2" points="2829.24,-327.51 2838.62,-322.59 2828.22,-320.59 2829.24,-327.51"/>
</g>
<!-- 14&#45;&gt;19 -->
<g id="edge63" class="edge">
<title>14&#45;&gt;19</title>
<path fill="none" stroke="grey" stroke-width="2" d="M2080.7,-376.18C2235.13,-372.18 2892.97,-353.78 3120.45,-324.03"/>
<polygon fill="grey" stroke="grey" stroke-width="2" points="3121.19,-327.46 3130.63,-322.65 3120.25,-320.53 3121.19,-327.46"/>
</g>
<!-- 14&#45;&gt;20 -->
<g id="edge66" class="edge">
<title>14&#45;&gt;20</title>
<path fill="none" stroke="grey" stroke-width="2" d="M2080.5,-376.58C2259.13,-374.13 3123.64,-360.63 3412.6,-324"/>
<polygon fill="grey" stroke="grey" stroke-width="2" points="3413.17,-327.46 3422.64,-322.69 3412.27,-320.51 3413.17,-327.46"/>
</g>
<!-- 14&#45;&gt;21 -->
<g id="edge69" class="edge">
<title>14&#45;&gt;21</title>
<path fill="none" stroke="grey" stroke-width="2" d="M2015.39,-372.87C1982.34,-368.86 1929.7,-362.96 1884,-360 1270.62,-320.33 1108.72,-401.6 495.33,-324"/>
<polygon fill="grey" stroke="grey" stroke-width="2" points="495.72,-320.53 485.36,-322.73 494.84,-327.47 495.72,-320.53"/>
</g>
<!-- 14&#45;&gt;22 -->
<g id="edge72" class="edge">
<title>14&#45;&gt;22</title>
<path fill="none" stroke="grey" stroke-width="2" d="M2015.39,-372.9C1982.34,-368.91 1929.7,-363.03 1884,-360 1335.46,-323.68 1190.3,-394.21 641.52,-324.03"/>
<polygon fill="grey" stroke="grey" stroke-width="2" points="641.72,-320.53 631.36,-322.72 640.83,-327.47 641.72,-320.53"/>
</g>
<!-- 14&#45;&gt;23 -->
<g id="edge75" class="edge">
<title>14&#45;&gt;23</title>
<path fill="none" stroke="grey" stroke-width="2" d="M2015.39,-372.93C1982.33,-368.98 1929.69,-363.11 1884,-360 1400.2,-327.03 1271.84,-386.85 787.41,-324.02"/>
<polygon fill="grey" stroke="grey" stroke-width="2" points="787.73,-320.54 777.36,-322.71 786.82,-327.48 787.73,-320.54"/>
</g>
<!-- 14&#45;&gt;24 -->
<g id="edge78" class="edge">
<title>14&#45;&gt;24</title>
<path fill="none" stroke="grey" stroke-width="2" d="M2015.3,-373.54C1950.21,-366.44 1799.63,-348.9 1663.24,-324.14"/>
<polygon fill="grey" stroke="grey" stroke-width="2" points="1663.49,-320.62 1653.02,-322.26 1662.23,-327.51 1663.49,-320.62"/>
</g>
<!-- 14&#45;&gt;25 -->
<g id="edge81" class="edge">
<title>14&#45;&gt;25</title>
<path fill="none" stroke="grey" stroke-width="2" d="M2015.4,-363.34C1991.46,-353.3 1958.48,-339.48 1931.19,-328.04"/>
<polygon fill="grey" stroke="grey" stroke-width="2" points="1932.37,-324.74 1921.79,-324.1 1929.66,-331.19 1932.37,-324.74"/>
</g>
<!-- 14&#45;&gt;26 -->
<g id="edge84" class="edge">
<title>14&#45;&gt;26</title>
<path fill="none" stroke="grey" stroke-width="2" d="M2078.58,-359.88C2095.07,-350.64 2115.62,-339.13 2133.34,-329.21"/>
<polygon fill="grey" stroke="grey" stroke-width="2" points="2135.29,-332.13 2142.3,-324.19 2131.87,-326.02 2135.29,-332.13"/>
</g>
<!-- 14&#45;&gt;27 -->
<g id="edge87" class="edge">
<title>14&#45;&gt;27</title>
<path fill="none" stroke="grey" stroke-width="2" d="M2015.38,-373.05C1982.32,-369.18 1929.67,-363.38 1884,-360 1529.72,-333.75 1434.98,-372.15 1079.42,-324.04"/>
<polygon fill="grey" stroke="grey" stroke-width="2" points="1079.75,-320.55 1069.37,-322.67 1078.8,-327.49 1079.75,-320.55"/>
</g>
<!-- 14&#45;&gt;28 -->
<g id="edge90" class="edge">
<title>14&#45;&gt;28</title>
<path fill="none" stroke="grey" stroke-width="2" d="M2015.37,-373.14C1982.31,-369.35 1929.66,-363.61 1884,-360 1594.43,-337.11 1516.57,-364.84 1225.38,-324.05"/>
<polygon fill="grey" stroke="grey" stroke-width="2" points="1225.76,-320.57 1215.37,-322.63 1224.78,-327.5 1225.76,-320.57"/>
</g>
<!-- 14&#45;&gt;29 -->
<g id="edge93" class="edge">
<title>14&#45;&gt;29</title>
<path fill="none" stroke="grey" stroke-width="2" d="M2080.69,-368.56C2121.18,-358.1 2191.37,-339.97 2245.13,-326.08"/>
<polygon fill="grey" stroke="grey" stroke-width="2" points="2246.15,-329.43 2254.96,-323.54 2244.4,-322.65 2246.15,-329.43"/>
</g>
<!-- 14&#45;&gt;30 -->
<g id="edge96" class="edge">
<title>14&#45;&gt;30</title>
<path fill="none" stroke="grey" stroke-width="2" d="M2080.55,-376.4C2247.38,-373.22 3008.37,-357.19 3266.56,-324.01"/>
<polygon fill="grey" stroke="grey" stroke-width="2" points="3267.18,-327.46 3276.63,-322.67 3266.26,-320.52 3267.18,-327.46"/>
</g>
<!-- 14&#45;&gt;31 -->
<g id="edge99" class="edge">
<title>14&#45;&gt;31</title>
<path fill="none" stroke="grey" stroke-width="2" d="M2080.77,-376.72C2271.3,-374.93 3238.65,-364.08 3558.45,-324.02"/>
<polygon fill="grey" stroke="grey" stroke-width="2" points="3559.17,-327.45 3568.64,-322.7 3558.27,-320.51 3559.17,-327.45"/>
</g>
<!-- 14&#45;&gt;32 -->
<g id="edge102" class="edge">
<title>14&#45;&gt;32</title>
<path fill="none" stroke="grey" stroke-width="2" d="M2015.36,-373.29C1982.28,-369.61 1929.63,-363.96 1884,-360 1659.2,-340.48 1598.23,-357.56 1371.6,-324.1"/>
<polygon fill="grey" stroke="grey" stroke-width="2" points="1371.79,-320.59 1361.38,-322.58 1370.75,-327.52 1371.79,-320.59"/>
</g>
<!-- 14&#45;&gt;33 -->
<g id="edge105" class="edge">
<title>14&#45;&gt;33</title>
<path fill="none" stroke="grey" stroke-width="2" d="M2015.33,-373.56C1982.24,-370.08 1929.57,-364.59 1884,-360 1723.84,-343.87 1679.94,-350.41 1517.74,-324.17"/>
<polygon fill="grey" stroke="grey" stroke-width="2" points="1517.83,-320.64 1507.39,-322.48 1516.7,-327.55 1517.83,-320.64"/>
</g>
<!-- 14&#45;&gt;34 -->
<g id="edge108" class="edge">
<title>14&#45;&gt;34</title>
<path fill="none" stroke="grey" stroke-width="2" d="M2015.37,-369.92C1971.06,-360.28 1889.15,-342.35 1809.31,-324.29"/>
<polygon fill="grey" stroke="grey" stroke-width="2" points="1809.61,-320.76 1799.08,-321.97 1808.06,-327.59 1809.61,-320.76"/>
</g>
<!-- 14&#45;&gt;35 -->
<g id="edge111" class="edge">
<title>14&#45;&gt;35</title>
<path fill="none" stroke="grey" stroke-width="2" d="M2042.81,-359.7C2040.47,-351.9 2037.65,-342.51 2035.05,-333.83"/>
<polygon fill="grey" stroke="grey" stroke-width="2" points="2038.36,-332.68 2032.13,-324.1 2031.65,-334.69 2038.36,-332.68"/>
</g>
<!-- 14&#45;&gt;36 -->
<g id="edge114" class="edge">
<title>14&#45;&gt;36</title>
<path fill="none" stroke="grey" stroke-width="2" d="M2080.67,-377.16C2199.55,-377.3 2620.29,-374.11 2974.69,-324.04"/>
<polygon fill="grey" stroke="grey" stroke-width="2" points="2975.22,-327.5 2984.63,-322.62 2974.23,-320.57 2975.22,-327.5"/>
</g>
<!-- 15&#45;&gt;12 -->
<g id="edge24" class="edge">
<title>15&#45;&gt;12</title>
<path fill="none" stroke="grey" stroke-width="2" d="M2400.99,-289.68C2397.95,-289.08 2394.95,-288.52 2392,-288 2256.05,-264.02 2094.42,-247.53 2010.66,-239.88"/>
<polygon fill="grey" stroke="grey" stroke-width="2" points="2010.87,-236.38 2000.6,-238.97 2010.24,-243.35 2010.87,-236.38"/>
</g>
<!-- 16&#45;&gt;12 -->
<g id="edge25" class="edge">
<title>16&#45;&gt;12</title>
<path fill="none" stroke="grey" stroke-width="2" d="M2546.61,-289.5C2543.71,-288.96 2540.83,-288.46 2538,-288 2346.13,-257.1 2115.68,-242.82 2010.88,-237.55"/>
<polygon fill="grey" stroke="grey" stroke-width="2" points="2010.99,-234.05 2000.83,-237.05 2010.65,-241.04 2010.99,-234.05"/>
</g>
<!-- 17&#45;&gt;12 -->
<g id="edge26" class="edge">
<title>17&#45;&gt;12</title>
<path fill="none" stroke="grey" stroke-width="2" d="M2692.62,-289.43C2689.71,-288.91 2686.83,-288.43 2684,-288 2435.28,-250.25 2134.66,-239.19 2011.17,-236.12"/>
<polygon fill="grey" stroke="grey" stroke-width="2" points="2010.91,-232.61 2000.83,-235.87 2010.74,-239.61 2010.91,-232.61"/>
</g>
<!-- 18&#45;&gt;12 -->
<g id="edge27" class="edge">
<title>18&#45;&gt;12</title>
<path fill="none" stroke="grey" stroke-width="2" d="M2838.63,-289.39C2835.72,-288.88 2832.83,-288.41 2830,-288 2523.32,-243.34 2150.94,-236.19 2010.89,-235.14"/>
<polygon fill="grey" stroke="grey" stroke-width="2" points="2010.84,-231.64 2000.82,-235.07 2010.79,-238.64 2010.84,-231.64"/>
</g>
<!-- 19&#45;&gt;12 -->
<g id="edge28" class="edge">
<title>19&#45;&gt;12</title>
<path fill="none" stroke="grey" stroke-width="2" d="M3130.63,-289.34C3127.72,-288.84 3124.84,-288.39 3122,-288 2903.48,-257.86 2214.1,-240.69 2010.9,-236.2"/>
<polygon fill="grey" stroke="grey" stroke-width="2" points="2010.82,-232.7 2000.75,-235.98 2010.67,-239.69 2010.82,-232.7"/>
</g>
<!-- 20&#45;&gt;12 -->
<g id="edge29" class="edge">
<title>20&#45;&gt;12</title>
<path fill="none" stroke="grey" stroke-width="2" d="M3422.64,-289.3C3419.73,-288.82 3416.84,-288.38 3414,-288 3135.44,-250.86 2245.19,-238.31 2010.93,-235.6"/>
<polygon fill="grey" stroke="grey" stroke-width="2" points="2010.64,-232.1 2000.6,-235.48 2010.56,-239.1 2010.64,-232.1"/>
</g>
<!-- 21&#45;&gt;12 -->
<g id="edge30" class="edge">
<title>21&#45;&gt;12</title>
<path fill="none" stroke="grey" stroke-width="2" d="M485.36,-289.3C488.27,-288.82 491.16,-288.38 494,-288 772.56,-250.86 1662.81,-238.31 1897.07,-235.6"/>
<polygon fill="grey" stroke="grey" stroke-width="2" points="1897.44,-239.1 1907.4,-235.48 1897.36,-232.1 1897.44,-239.1"/>
</g>
<!-- 22&#45;&gt;12 -->
<g id="edge31" class="edge">
<title>22&#45;&gt;12</title>
<path fill="none" stroke="grey" stroke-width="2" d="M631.36,-289.32C634.27,-288.83 637.16,-288.38 640,-288 888.48,-254.36 1677.92,-239.43 1897.08,-235.87"/>
<polygon fill="grey" stroke="grey" stroke-width="2" points="1897.44,-239.36 1907.39,-235.7 1897.33,-232.36 1897.44,-239.36"/>
</g>
<!-- 23&#45;&gt;12 -->
<g id="edge32" class="edge">
<title>23&#45;&gt;12</title>
<path fill="none" stroke="grey" stroke-width="2" d="M777.37,-289.34C780.28,-288.84 783.16,-288.39 786,-288 1004.52,-257.86 1693.9,-240.69 1897.1,-236.2"/>
<polygon fill="grey" stroke="grey" stroke-width="2" points="1897.33,-239.69 1907.25,-235.98 1897.18,-232.7 1897.33,-239.69"/>
</g>
<!-- 24&#45;&gt;12 -->
<g id="edge33" class="edge">
<title>24&#45;&gt;12</title>
<path fill="none" stroke="grey" stroke-width="2" d="M1653.05,-289.9C1656.08,-289.24 1659.07,-288.61 1662,-288 1743.39,-271.15 1838.15,-254.49 1897.11,-244.47"/>
<polygon fill="grey" stroke="grey" stroke-width="2" points="1898.06,-247.86 1907.34,-242.74 1896.89,-240.96 1898.06,-247.86"/>
</g>
<!-- 25&#45;&gt;12 -->
<g id="edge34" class="edge">
<title>25&#45;&gt;12</title>
<path fill="none" stroke="grey" stroke-width="2" d="M1899.04,-287.7C1908.06,-279.05 1919.12,-268.45 1928.94,-259.03"/>
<polygon fill="grey" stroke="grey" stroke-width="2" points="1931.37,-261.55 1936.16,-252.1 1926.52,-256.5 1931.37,-261.55"/>
</g>
<!-- 26&#45;&gt;12 -->
<g id="edge35" class="edge">
<title>26&#45;&gt;12</title>
<path fill="none" stroke="grey" stroke-width="2" d="M2119.71,-287.97C2086.63,-277.39 2044.18,-263.82 2010.52,-253.07"/>
<polygon fill="grey" stroke="grey" stroke-width="2" points="2011.42,-249.68 2000.83,-249.97 2009.28,-256.35 2011.42,-249.68"/>
</g>
<!-- 27&#45;&gt;12 -->
<g id="edge36" class="edge">
<title>27&#45;&gt;12</title>
<path fill="none" stroke="grey" stroke-width="2" d="M1069.37,-289.39C1072.28,-288.88 1075.17,-288.41 1078,-288 1384.68,-243.34 1757.06,-236.19 1897.11,-235.14"/>
<polygon fill="grey" stroke="grey" stroke-width="2" points="1897.21,-238.64 1907.18,-235.07 1897.16,-231.64 1897.21,-238.64"/>
</g>
<!-- 28&#45;&gt;12 -->
<g id="edge37" class="edge">
<title>28&#45;&gt;12</title>
<path fill="none" stroke="grey" stroke-width="2" d="M1215.38,-289.43C1218.29,-288.91 1221.17,-288.43 1224,-288 1472.72,-250.25 1773.34,-239.19 1896.83,-236.12"/>
<polygon fill="grey" stroke="grey" stroke-width="2" points="1897.26,-239.61 1907.17,-235.87 1897.09,-232.61 1897.26,-239.61"/>
</g>
<!-- 29&#45;&gt;12 -->
<g id="edge38" class="edge">
<title>29&#45;&gt;12</title>
<path fill="none" stroke="grey" stroke-width="2" d="M2254.95,-289.9C2251.92,-289.24 2248.93,-288.61 2246,-288 2164.61,-271.15 2069.85,-254.49 2010.89,-244.47"/>
<polygon fill="grey" stroke="grey" stroke-width="2" points="2011.11,-240.96 2000.66,-242.74 2009.94,-247.86 2011.11,-240.96"/>
</g>
<!-- 30&#45;&gt;12 -->
<g id="edge39" class="edge">
<title>30&#45;&gt;12</title>
<path fill="none" stroke="grey" stroke-width="2" d="M3276.64,-289.32C3273.73,-288.83 3270.84,-288.38 3268,-288 3019.52,-254.36 2230.08,-239.43 2010.92,-235.87"/>
<polygon fill="grey" stroke="grey" stroke-width="2" points="2010.67,-232.36 2000.61,-235.7 2010.56,-239.36 2010.67,-232.36"/>
</g>
<!-- 31&#45;&gt;12 -->
<g id="edge40" class="edge">
<title>31&#45;&gt;12</title>
<path fill="none" stroke="grey" stroke-width="2" d="M3568.64,-289.29C3565.73,-288.81 3562.84,-288.37 3560,-288 3251.2,-247.35 2259.25,-237.29 2010.83,-235.38"/>
<polygon fill="grey" stroke="grey" stroke-width="2" points="2010.61,-231.88 2000.58,-235.31 2010.56,-238.88 2010.61,-231.88"/>
</g>
<!-- 32&#45;&gt;12 -->
<g id="edge41" class="edge">
<title>32&#45;&gt;12</title>
<path fill="none" stroke="grey" stroke-width="2" d="M1361.39,-289.5C1364.29,-288.96 1367.17,-288.46 1370,-288 1561.87,-257.1 1792.32,-242.82 1897.12,-237.55"/>
<polygon fill="grey" stroke="grey" stroke-width="2" points="1897.35,-241.04 1907.17,-237.05 1897.01,-234.05 1897.35,-241.04"/>
</g>
<!-- 33&#45;&gt;12 -->
<g id="edge42" class="edge">
<title>33&#45;&gt;12</title>
<path fill="none" stroke="grey" stroke-width="2" d="M1507.01,-289.68C1510.05,-289.08 1513.05,-288.52 1516,-288 1651.95,-264.02 1813.58,-247.53 1897.34,-239.88"/>
<polygon fill="grey" stroke="grey" stroke-width="2" points="1897.76,-243.35 1907.4,-238.97 1897.13,-236.38 1897.76,-243.35"/>
</g>
<!-- 34&#45;&gt;12 -->
<g id="edge43" class="edge">
<title>34&#45;&gt;12</title>
<path fill="none" stroke="grey" stroke-width="2" d="M1788.29,-287.97C1821.37,-277.39 1863.82,-263.82 1897.48,-253.07"/>
<polygon fill="grey" stroke="grey" stroke-width="2" points="1898.72,-256.35 1907.17,-249.97 1896.58,-249.68 1898.72,-256.35"/>
</g>
<!-- 35&#45;&gt;12 -->
<g id="edge44" class="edge">
<title>35&#45;&gt;12</title>
<path fill="none" stroke="grey" stroke-width="2" d="M2008.96,-287.7C1999.94,-279.05 1988.88,-268.45 1979.06,-259.03"/>
<polygon fill="grey" stroke="grey" stroke-width="2" points="1981.48,-256.5 1971.84,-252.1 1976.63,-261.55 1981.48,-256.5"/>
</g>
<!-- 36&#45;&gt;12 -->
<g id="edge45" class="edge">
<title>36&#45;&gt;12</title>
<path fill="none" stroke="grey" stroke-width="2" d="M2984.63,-289.36C2981.72,-288.86 2978.83,-288.4 2976,-288 2610.99,-236.45 2166.32,-233.65 2010.88,-234.43"/>
<polygon fill="grey" stroke="grey" stroke-width="2" points="2010.61,-230.94 2000.63,-234.49 2010.65,-237.94 2010.61,-230.94"/>
</g>
<!-- 37 -->
<g id="node38" class="node">
<title>37</title>
<path fill="none" stroke="#56d87b" stroke-width="2" stroke-dasharray="5,2" d="M3723,-252C3723,-252 3667,-252 3667,-252 3661,-252 3655,-246 3655,-240 3655,-240 3655,-228 3655,-228 3655,-222 3661,-216 3667,-216 3667,-216 3723,-216 3723,-216 3729,-216 3735,-222 3735,-228 3735,-228 3735,-240 3735,-240 3735,-246 3729,-252 3723,-252"/>
<text text-anchor="middle" x="3695" y="-231.5" font-family="sans" font-size="10.00">parse_ALSoD</text>
</g>
<!-- 37&#45;&gt;11 -->
<g id="edge22" class="edge">
<title>37&#45;&gt;11</title>
<path fill="none" stroke="grey" stroke-width="2" d="M3654.91,-218.99C3650.27,-217.78 3645.56,-216.74 3641,-216 3558.05,-202.56 837.39,-168.8 417.25,-163.66"/>
<polygon fill="grey" stroke="grey" stroke-width="2" points="417.23,-160.16 407.19,-163.54 417.14,-167.16 417.23,-160.16"/>
</g>
<!-- 38&#45;&gt;1 -->
<g id="edge7" class="edge">
<title>38&#45;&gt;1</title>
<path fill="none" stroke="grey" stroke-width="2" d="M2047.88,-158.98C1790.85,-148.83 641.77,-103.43 380.14,-93.1"/>
<polygon fill="grey" stroke="grey" stroke-width="2" points="380.26,-89.6 370.13,-92.7 379.98,-96.6 380.26,-89.6"/>
</g>
</g>
</svg>
