<?xml version="1.0" encoding="UTF-8" standalone="no"?>
<!DOCTYPE svg PUBLIC "-//W3C//DTD SVG 1.1//EN"
 "http://www.w3.org/Graphics/SVG/1.1/DTD/svg11.dtd">
<!-- Generated by graphviz version 2.47.1 (20210418.0311)
 -->
<!-- Title: snakemake_dag Pages: 1 -->
<svg width="3796pt" height="692pt"
 viewBox="0.00 0.00 3796.00 692.00" xmlns="http://www.w3.org/2000/svg" xmlns:xlink="http://www.w3.org/1999/xlink">
<g id="graph0" class="graph" transform="scale(1 1) rotate(0) translate(4 688)">
<title>snakemake_dag</title>
<polygon fill="white" stroke="transparent" points="-4,4 -4,-688 3792,-688 3792,4 -4,4"/>
<!-- 0 -->
<g id="node1" class="node">
<title>0</title>
<path fill="none" stroke="#56d8a9" stroke-width="2" d="M2790,-36C2790,-36 2760,-36 2760,-36 2754,-36 2748,-30 2748,-24 2748,-24 2748,-12 2748,-12 2748,-6 2754,0 2760,0 2760,0 2790,0 2790,0 2796,0 2802,-6 2802,-12 2802,-12 2802,-24 2802,-24 2802,-30 2796,-36 2790,-36"/>
<text text-anchor="middle" x="2775" y="-15.5" font-family="sans" font-size="10.00">all</text>
</g>
<!-- 1 -->
<g id="node2" class="node">
<title>1</title>
<path fill="none" stroke="#d8bc56" stroke-width="2" d="M2806,-108C2806,-108 2744,-108 2744,-108 2738,-108 2732,-102 2732,-96 2732,-96 2732,-84 2732,-84 2732,-78 2738,-72 2744,-72 2744,-72 2806,-72 2806,-72 2812,-72 2818,-78 2818,-84 2818,-84 2818,-96 2818,-96 2818,-102 2812,-108 2806,-108"/>
<text text-anchor="middle" x="2775" y="-87.5" font-family="sans" font-size="10.00">collect_output</text>
</g>
<!-- 1&#45;&gt;0 -->
<g id="edge1" class="edge">
<title>1&#45;&gt;0</title>
<path fill="none" stroke="grey" stroke-width="2" d="M2775,-71.7C2775,-63.98 2775,-54.71 2775,-46.11"/>
<polygon fill="grey" stroke="grey" stroke-width="2" points="2778.5,-46.1 2775,-36.1 2771.5,-46.1 2778.5,-46.1"/>
</g>
<!-- 2 -->
<g id="node3" class="node">
<title>2</title>
<path fill="none" stroke="#56d0d8" stroke-width="2" stroke-dasharray="5,2" d="M3748,-252C3748,-252 3688,-252 3688,-252 3682,-252 3676,-246 3676,-240 3676,-240 3676,-228 3676,-228 3676,-222 3682,-216 3688,-216 3688,-216 3748,-216 3748,-216 3754,-216 3760,-222 3760,-228 3760,-228 3760,-240 3760,-240 3760,-246 3754,-252 3748,-252"/>
<text text-anchor="middle" x="3718" y="-231.5" font-family="sans" font-size="10.00">outrider_plots</text>
</g>
<!-- 2&#45;&gt;1 -->
<g id="edge2" class="edge">
<title>2&#45;&gt;1</title>
<path fill="none" stroke="grey" stroke-width="2" d="M3675.99,-219.48C3671.3,-218.2 3666.56,-217.01 3662,-216 3350.09,-147.11 2967.69,-108.3 2828.71,-95.65"/>
<polygon fill="grey" stroke="grey" stroke-width="2" points="2828.62,-92.12 2818.34,-94.71 2827.99,-99.1 2828.62,-92.12"/>
</g>
<!-- 3 -->
<g id="node4" class="node">
<title>3</title>
<path fill="none" stroke="#61d856" stroke-width="2" stroke-dasharray="5,2" d="M2073.5,-468C2073.5,-468 2042.5,-468 2042.5,-468 2036.5,-468 2030.5,-462 2030.5,-456 2030.5,-456 2030.5,-444 2030.5,-444 2030.5,-438 2036.5,-432 2042.5,-432 2042.5,-432 2073.5,-432 2073.5,-432 2079.5,-432 2085.5,-438 2085.5,-444 2085.5,-444 2085.5,-456 2085.5,-456 2085.5,-462 2079.5,-468 2073.5,-468"/>
<text text-anchor="middle" x="2058" y="-447.5" font-family="sans" font-size="10.00">outrider</text>
</g>
<!-- 3&#45;&gt;1 -->
<g id="edge5" class="edge">
<title>3&#45;&gt;1</title>
<path fill="none" stroke="grey" stroke-width="2" d="M2085.57,-448.65C2293.73,-445.91 3612.57,-427.36 3690,-396 3744.53,-373.91 3788,-365.84 3788,-307 3788,-307 3788,-307 3788,-233 3788,-135.15 3037.12,-100.53 2828.31,-92.8"/>
<polygon fill="grey" stroke="grey" stroke-width="2" points="2828.32,-89.3 2818.2,-92.43 2828.07,-96.29 2828.32,-89.3"/>
</g>
<!-- 3&#45;&gt;2 -->
<g id="edge8" class="edge">
<title>3&#45;&gt;2</title>
<path fill="none" stroke="grey" stroke-width="2" d="M2085.61,-448.97C2292.64,-448.64 3595.91,-444.65 3662,-396 3704.3,-364.86 3714.86,-299.52 3717.37,-262.36"/>
<polygon fill="grey" stroke="grey" stroke-width="2" points="3720.87,-262.41 3717.89,-252.24 3713.88,-262.04 3720.87,-262.41"/>
</g>
<!-- 7 -->
<g id="node8" class="node">
<title>7</title>
<path fill="none" stroke="#d88556" stroke-width="2" stroke-dasharray="5,2" d="M1798,-396C1798,-396 1734,-396 1734,-396 1728,-396 1722,-390 1722,-384 1722,-384 1722,-372 1722,-372 1722,-366 1728,-360 1734,-360 1734,-360 1798,-360 1798,-360 1804,-360 1810,-366 1810,-372 1810,-372 1810,-384 1810,-384 1810,-390 1804,-396 1798,-396"/>
<text text-anchor="middle" x="1766" y="-375.5" font-family="sans" font-size="10.00">outliers_genes</text>
</g>
<!-- 3&#45;&gt;7 -->
<g id="edge12" class="edge">
<title>3&#45;&gt;7</title>
<path fill="none" stroke="grey" stroke-width="2" d="M2030.27,-442.35C1982.12,-430.81 1882.29,-406.88 1820.05,-391.96"/>
<polygon fill="grey" stroke="grey" stroke-width="2" points="1820.56,-388.48 1810.02,-389.55 1818.93,-395.29 1820.56,-388.48"/>
</g>
<!-- 8 -->
<g id="node9" class="node">
<title>8</title>
<path fill="none" stroke="#78d856" stroke-width="2" stroke-dasharray="5,2" d="M98,-324C98,-324 12,-324 12,-324 6,-324 0,-318 0,-312 0,-312 0,-300 0,-300 0,-294 6,-288 12,-288 12,-288 98,-288 98,-288 104,-288 110,-294 110,-300 110,-300 110,-312 110,-312 110,-318 104,-324 98,-324"/>
<text text-anchor="middle" x="55" y="-303.5" font-family="sans" font-size="10.00">compare_literature</text>
</g>
<!-- 3&#45;&gt;8 -->
<g id="edge15" class="edge">
<title>3&#45;&gt;8</title>
<path fill="none" stroke="grey" stroke-width="2" d="M2030.25,-449.15C1796.86,-450.28 168.12,-456.04 86,-396 66.65,-381.86 59.3,-354.76 56.54,-334.17"/>
<polygon fill="grey" stroke="grey" stroke-width="2" points="60.01,-333.67 55.48,-324.09 53.05,-334.41 60.01,-333.67"/>
</g>
<!-- 10 -->
<g id="node11" class="node">
<title>10</title>
<path fill="none" stroke="#56d863" stroke-width="2" d="M1944,-180C1944,-180 1880,-180 1880,-180 1874,-180 1868,-174 1868,-168 1868,-168 1868,-156 1868,-156 1868,-150 1874,-144 1880,-144 1880,-144 1944,-144 1944,-144 1950,-144 1956,-150 1956,-156 1956,-156 1956,-168 1956,-168 1956,-174 1950,-180 1944,-180"/>
<text text-anchor="middle" x="1912" y="-159.5" font-family="sans" font-size="10.00">variant_outlier</text>
</g>
<!-- 3&#45;&gt;10 -->
<g id="edge17" class="edge">
<title>3&#45;&gt;10</title>
<path fill="none" stroke="grey" stroke-width="2" d="M2085.6,-448.74C2208.71,-447.36 2720.05,-439.17 3137,-396 3343.31,-374.64 3732.11,-440.01 3591,-288 3477.98,-166.25 2241.73,-162.16 1966.22,-162.77"/>
<polygon fill="grey" stroke="grey" stroke-width="2" points="1966.06,-159.27 1956.07,-162.8 1966.08,-166.27 1966.06,-159.27"/>
</g>
<!-- 12 -->
<g id="node13" class="node">
<title>12</title>
<path fill="none" stroke="#5673d8" stroke-width="2" stroke-dasharray="5,2" d="M2694,-324C2694,-324 2590,-324 2590,-324 2584,-324 2578,-318 2578,-312 2578,-312 2578,-300 2578,-300 2578,-294 2584,-288 2590,-288 2590,-288 2694,-288 2694,-288 2700,-288 2706,-294 2706,-300 2706,-300 2706,-312 2706,-312 2706,-318 2700,-324 2694,-324"/>
<text text-anchor="middle" x="2642" y="-309" font-family="sans" font-size="10.00">prioritize_vep_variants</text>
<text text-anchor="middle" x="2642" y="-298" font-family="sans" font-size="10.00">chrom: chr1</text>
</g>
<!-- 3&#45;&gt;12 -->
<g id="edge43" class="edge">
<title>3&#45;&gt;12</title>
<path fill="none" stroke="grey" stroke-width="2" d="M2085.67,-442.94C2129.36,-433.31 2216.99,-413.8 2291,-396 2386.89,-372.94 2497.06,-344.72 2568,-326.33"/>
<polygon fill="grey" stroke="grey" stroke-width="2" points="2568.95,-329.7 2577.75,-323.8 2567.19,-322.92 2568.95,-329.7"/>
</g>
<!-- 13 -->
<g id="node14" class="node">
<title>13</title>
<path fill="none" stroke="#5673d8" stroke-width="2" stroke-dasharray="5,2" d="M2840,-324C2840,-324 2736,-324 2736,-324 2730,-324 2724,-318 2724,-312 2724,-312 2724,-300 2724,-300 2724,-294 2730,-288 2736,-288 2736,-288 2840,-288 2840,-288 2846,-288 2852,-294 2852,-300 2852,-300 2852,-312 2852,-312 2852,-318 2846,-324 2840,-324"/>
<text text-anchor="middle" x="2788" y="-309" font-family="sans" font-size="10.00">prioritize_vep_variants</text>
<text text-anchor="middle" x="2788" y="-298" font-family="sans" font-size="10.00">chrom: chr2</text>
</g>
<!-- 3&#45;&gt;13 -->
<g id="edge45" class="edge">
<title>3&#45;&gt;13</title>
<path fill="none" stroke="grey" stroke-width="2" d="M2085.81,-444.81C2141.31,-436.36 2269.71,-416.33 2377,-396 2524.67,-368.02 2563.44,-357.86 2713.85,-324.24"/>
<polygon fill="grey" stroke="grey" stroke-width="2" points="2714.92,-327.59 2723.92,-321.99 2713.4,-320.76 2714.92,-327.59"/>
</g>
<!-- 14 -->
<g id="node15" class="node">
<title>14</title>
<path fill="none" stroke="#5673d8" stroke-width="2" stroke-dasharray="5,2" d="M2986,-324C2986,-324 2882,-324 2882,-324 2876,-324 2870,-318 2870,-312 2870,-312 2870,-300 2870,-300 2870,-294 2876,-288 2882,-288 2882,-288 2986,-288 2986,-288 2992,-288 2998,-294 2998,-300 2998,-300 2998,-312 2998,-312 2998,-318 2992,-324 2986,-324"/>
<text text-anchor="middle" x="2934" y="-309" font-family="sans" font-size="10.00">prioritize_vep_variants</text>
<text text-anchor="middle" x="2934" y="-298" font-family="sans" font-size="10.00">chrom: chr3</text>
</g>
<!-- 3&#45;&gt;14 -->
<g id="edge47" class="edge">
<title>3&#45;&gt;14</title>
<path fill="none" stroke="grey" stroke-width="2" d="M2085.6,-446.1C2152.88,-438.9 2330.61,-419.13 2478,-396 2645.93,-369.64 2689.89,-360.01 2860.15,-324.14"/>
<polygon fill="grey" stroke="grey" stroke-width="2" points="2860.88,-327.57 2869.94,-322.08 2859.43,-320.72 2860.88,-327.57"/>
</g>
<!-- 15 -->
<g id="node16" class="node">
<title>15</title>
<path fill="none" stroke="#5673d8" stroke-width="2" stroke-dasharray="5,2" d="M3132,-324C3132,-324 3028,-324 3028,-324 3022,-324 3016,-318 3016,-312 3016,-312 3016,-300 3016,-300 3016,-294 3022,-288 3028,-288 3028,-288 3132,-288 3132,-288 3138,-288 3144,-294 3144,-300 3144,-300 3144,-312 3144,-312 3144,-318 3138,-324 3132,-324"/>
<text text-anchor="middle" x="3080" y="-309" font-family="sans" font-size="10.00">prioritize_vep_variants</text>
<text text-anchor="middle" x="3080" y="-298" font-family="sans" font-size="10.00">chrom: chr4</text>
</g>
<!-- 3&#45;&gt;15 -->
<g id="edge49" class="edge">
<title>3&#45;&gt;15</title>
<path fill="none" stroke="grey" stroke-width="2" d="M2085.7,-446.99C2165.08,-441.07 2400.13,-422.45 2594,-396 2775.37,-371.26 2822.76,-361.49 3005.98,-324.16"/>
<polygon fill="grey" stroke="grey" stroke-width="2" points="3006.85,-327.56 3015.95,-322.13 3005.45,-320.7 3006.85,-327.56"/>
</g>
<!-- 16 -->
<g id="node17" class="node">
<title>16</title>
<path fill="none" stroke="#5673d8" stroke-width="2" stroke-dasharray="5,2" d="M3278,-324C3278,-324 3174,-324 3174,-324 3168,-324 3162,-318 3162,-312 3162,-312 3162,-300 3162,-300 3162,-294 3168,-288 3174,-288 3174,-288 3278,-288 3278,-288 3284,-288 3290,-294 3290,-300 3290,-300 3290,-312 3290,-312 3290,-318 3284,-324 3278,-324"/>
<text text-anchor="middle" x="3226" y="-309" font-family="sans" font-size="10.00">prioritize_vep_variants</text>
<text text-anchor="middle" x="3226" y="-298" font-family="sans" font-size="10.00">chrom: chr5</text>
</g>
<!-- 3&#45;&gt;16 -->
<g id="edge51" class="edge">
<title>3&#45;&gt;16</title>
<path fill="none" stroke="grey" stroke-width="2" d="M2085.56,-447.64C2176.53,-442.98 2475.46,-426.22 2721,-396 2910.98,-372.62 2960.48,-362.43 3152.13,-324.12"/>
<polygon fill="grey" stroke="grey" stroke-width="2" points="3152.84,-327.55 3161.96,-322.16 3151.46,-320.69 3152.84,-327.55"/>
</g>
<!-- 17 -->
<g id="node18" class="node">
<title>17</title>
<path fill="none" stroke="#5673d8" stroke-width="2" stroke-dasharray="5,2" d="M3424,-324C3424,-324 3320,-324 3320,-324 3314,-324 3308,-318 3308,-312 3308,-312 3308,-300 3308,-300 3308,-294 3314,-288 3320,-288 3320,-288 3424,-288 3424,-288 3430,-288 3436,-294 3436,-300 3436,-300 3436,-312 3436,-312 3436,-318 3430,-324 3424,-324"/>
<text text-anchor="middle" x="3372" y="-309" font-family="sans" font-size="10.00">prioritize_vep_variants</text>
<text text-anchor="middle" x="3372" y="-298" font-family="sans" font-size="10.00">chrom: chr6</text>
</g>
<!-- 3&#45;&gt;17 -->
<g id="edge53" class="edge">
<title>3&#45;&gt;17</title>
<path fill="none" stroke="grey" stroke-width="2" d="M2085.69,-448.12C2188.21,-444.66 2555.9,-430.43 2857,-396 3051.46,-373.76 3102.08,-362.95 3297.91,-324.16"/>
<polygon fill="grey" stroke="grey" stroke-width="2" points="3298.83,-327.55 3307.96,-322.17 3297.47,-320.68 3298.83,-327.55"/>
</g>
<!-- 18 -->
<g id="node19" class="node">
<title>18</title>
<path fill="none" stroke="#5673d8" stroke-width="2" stroke-dasharray="5,2" d="M3570,-324C3570,-324 3466,-324 3466,-324 3460,-324 3454,-318 3454,-312 3454,-312 3454,-300 3454,-300 3454,-294 3460,-288 3466,-288 3466,-288 3570,-288 3570,-288 3576,-288 3582,-294 3582,-300 3582,-300 3582,-312 3582,-312 3582,-318 3576,-324 3570,-324"/>
<text text-anchor="middle" x="3518" y="-309" font-family="sans" font-size="10.00">prioritize_vep_variants</text>
<text text-anchor="middle" x="3518" y="-298" font-family="sans" font-size="10.00">chrom: chr7</text>
</g>
<!-- 3&#45;&gt;18 -->
<g id="edge55" class="edge">
<title>3&#45;&gt;18</title>
<path fill="none" stroke="grey" stroke-width="2" d="M2085.71,-448.47C2198.96,-446.1 2637.62,-434.76 2996,-396 3193.7,-374.62 3245.04,-363.31 3444.06,-324.13"/>
<polygon fill="grey" stroke="grey" stroke-width="2" points="3444.82,-327.54 3453.96,-322.18 3443.47,-320.68 3444.82,-327.54"/>
</g>
<!-- 19 -->
<g id="node20" class="node">
<title>19</title>
<path fill="none" stroke="#5673d8" stroke-width="2" stroke-dasharray="5,2" d="M282,-324C282,-324 178,-324 178,-324 172,-324 166,-318 166,-312 166,-312 166,-300 166,-300 166,-294 172,-288 178,-288 178,-288 282,-288 282,-288 288,-288 294,-294 294,-300 294,-300 294,-312 294,-312 294,-318 288,-324 282,-324"/>
<text text-anchor="middle" x="230" y="-309" font-family="sans" font-size="10.00">prioritize_vep_variants</text>
<text text-anchor="middle" x="230" y="-298" font-family="sans" font-size="10.00">chrom: chr8</text>
</g>
<!-- 3&#45;&gt;19 -->
<g id="edge57" class="edge">
<title>3&#45;&gt;19</title>
<path fill="none" stroke="grey" stroke-width="2" d="M2030.35,-448.99C1849.81,-448.78 836.69,-445.37 532,-396 443.32,-381.63 344.03,-349.03 284.31,-327.53"/>
<polygon fill="grey" stroke="grey" stroke-width="2" points="285.3,-324.17 274.71,-324.05 282.92,-330.75 285.3,-324.17"/>
</g>
<!-- 20 -->
<g id="node21" class="node">
<title>20</title>
<path fill="none" stroke="#5673d8" stroke-width="2" stroke-dasharray="5,2" d="M428,-324C428,-324 324,-324 324,-324 318,-324 312,-318 312,-312 312,-312 312,-300 312,-300 312,-294 318,-288 324,-288 324,-288 428,-288 428,-288 434,-288 440,-294 440,-300 440,-300 440,-312 440,-312 440,-318 434,-324 428,-324"/>
<text text-anchor="middle" x="376" y="-309" font-family="sans" font-size="10.00">prioritize_vep_variants</text>
<text text-anchor="middle" x="376" y="-298" font-family="sans" font-size="10.00">chrom: chr9</text>
</g>
<!-- 3&#45;&gt;20 -->
<g id="edge59" class="edge">
<title>3&#45;&gt;20</title>
<path fill="none" stroke="grey" stroke-width="2" d="M2030.3,-448.87C1859.9,-447.94 952.01,-440.92 678,-396 589.48,-381.49 490.34,-349.01 430.58,-327.56"/>
<polygon fill="grey" stroke="grey" stroke-width="2" points="431.57,-324.19 420.97,-324.08 429.18,-330.78 431.57,-324.19"/>
</g>
<!-- 21 -->
<g id="node22" class="node">
<title>21</title>
<path fill="none" stroke="#5673d8" stroke-width="2" stroke-dasharray="5,2" d="M574,-324C574,-324 470,-324 470,-324 464,-324 458,-318 458,-312 458,-312 458,-300 458,-300 458,-294 464,-288 470,-288 470,-288 574,-288 574,-288 580,-288 586,-294 586,-300 586,-300 586,-312 586,-312 586,-318 580,-324 574,-324"/>
<text text-anchor="middle" x="522" y="-309" font-family="sans" font-size="10.00">prioritize_vep_variants</text>
<text text-anchor="middle" x="522" y="-298" font-family="sans" font-size="10.00">chrom: chr10</text>
</g>
<!-- 3&#45;&gt;21 -->
<g id="edge61" class="edge">
<title>3&#45;&gt;21</title>
<path fill="none" stroke="grey" stroke-width="2" d="M2030.43,-448.73C1871.07,-447.05 1066.7,-436.63 823,-396 734.79,-381.29 635.97,-348.87 576.4,-327.48"/>
<polygon fill="grey" stroke="grey" stroke-width="2" points="577.42,-324.13 566.83,-324.02 575.04,-330.71 577.42,-324.13"/>
</g>
<!-- 22 -->
<g id="node23" class="node">
<title>22</title>
<path fill="none" stroke="#5673d8" stroke-width="2" stroke-dasharray="5,2" d="M720,-324C720,-324 616,-324 616,-324 610,-324 604,-318 604,-312 604,-312 604,-300 604,-300 604,-294 610,-288 616,-288 616,-288 720,-288 720,-288 726,-288 732,-294 732,-300 732,-300 732,-312 732,-312 732,-318 726,-324 720,-324"/>
<text text-anchor="middle" x="668" y="-309" font-family="sans" font-size="10.00">prioritize_vep_variants</text>
<text text-anchor="middle" x="668" y="-298" font-family="sans" font-size="10.00">chrom: chr11</text>
</g>
<!-- 3&#45;&gt;22 -->
<g id="edge63" class="edge">
<title>3&#45;&gt;22</title>
<path fill="none" stroke="grey" stroke-width="2" d="M2030.36,-448.55C1882.24,-446.02 1181.39,-432.3 968,-396 880.23,-381.07 781.9,-348.78 722.49,-327.48"/>
<polygon fill="grey" stroke="grey" stroke-width="2" points="723.53,-324.14 712.94,-324.03 721.15,-330.72 723.53,-324.14"/>
</g>
<!-- 23 -->
<g id="node24" class="node">
<title>23</title>
<path fill="none" stroke="#5673d8" stroke-width="2" stroke-dasharray="5,2" d="M866,-324C866,-324 762,-324 762,-324 756,-324 750,-318 750,-312 750,-312 750,-300 750,-300 750,-294 756,-288 762,-288 762,-288 866,-288 866,-288 872,-288 878,-294 878,-300 878,-300 878,-312 878,-312 878,-318 872,-324 866,-324"/>
<text text-anchor="middle" x="814" y="-309" font-family="sans" font-size="10.00">prioritize_vep_variants</text>
<text text-anchor="middle" x="814" y="-298" font-family="sans" font-size="10.00">chrom: chr12</text>
</g>
<!-- 3&#45;&gt;23 -->
<g id="edge65" class="edge">
<title>3&#45;&gt;23</title>
<path fill="none" stroke="grey" stroke-width="2" d="M2030.49,-448.33C1894.65,-444.91 1294.68,-428.2 1111,-396 1024.36,-380.81 927.32,-348.75 868.46,-327.55"/>
<polygon fill="grey" stroke="grey" stroke-width="2" points="869.58,-324.23 858.99,-324.11 867.2,-330.81 869.58,-324.23"/>
</g>
<!-- 24 -->
<g id="node25" class="node">
<title>24</title>
<path fill="none" stroke="#5673d8" stroke-width="2" stroke-dasharray="5,2" d="M1012,-324C1012,-324 908,-324 908,-324 902,-324 896,-318 896,-312 896,-312 896,-300 896,-300 896,-294 902,-288 908,-288 908,-288 1012,-288 1012,-288 1018,-288 1024,-294 1024,-300 1024,-300 1024,-312 1024,-312 1024,-318 1018,-324 1012,-324"/>
<text text-anchor="middle" x="960" y="-309" font-family="sans" font-size="10.00">prioritize_vep_variants</text>
<text text-anchor="middle" x="960" y="-298" font-family="sans" font-size="10.00">chrom: chr13</text>
</g>
<!-- 3&#45;&gt;24 -->
<g id="edge67" class="edge">
<title>3&#45;&gt;24</title>
<path fill="none" stroke="grey" stroke-width="2" d="M2030.23,-449.47C1926.61,-450.75 1553.07,-451.02 1252,-396 1167.23,-380.51 1072.35,-348.79 1014.4,-327.71"/>
<polygon fill="grey" stroke="grey" stroke-width="2" points="1015.31,-324.32 1004.72,-324.17 1012.91,-330.89 1015.31,-324.32"/>
</g>
<!-- 25 -->
<g id="node26" class="node">
<title>25</title>
<path fill="none" stroke="#5673d8" stroke-width="2" stroke-dasharray="5,2" d="M1158,-324C1158,-324 1054,-324 1054,-324 1048,-324 1042,-318 1042,-312 1042,-312 1042,-300 1042,-300 1042,-294 1048,-288 1054,-288 1054,-288 1158,-288 1158,-288 1164,-288 1170,-294 1170,-300 1170,-300 1170,-312 1170,-312 1170,-318 1164,-324 1158,-324"/>
<text text-anchor="middle" x="1106" y="-309" font-family="sans" font-size="10.00">prioritize_vep_variants</text>
<text text-anchor="middle" x="1106" y="-298" font-family="sans" font-size="10.00">chrom: chr14</text>
</g>
<!-- 3&#45;&gt;25 -->
<g id="edge69" class="edge">
<title>3&#45;&gt;25</title>
<path fill="none" stroke="grey" stroke-width="2" d="M2030.26,-449.04C1938.03,-448.72 1633.67,-443.84 1388,-396 1306.23,-380.08 1214.83,-348.59 1158.85,-327.66"/>
<polygon fill="grey" stroke="grey" stroke-width="2" points="1159.76,-324.26 1149.16,-324.01 1157.29,-330.81 1159.76,-324.26"/>
</g>
<!-- 26 -->
<g id="node27" class="node">
<title>26</title>
<path fill="none" stroke="#5673d8" stroke-width="2" stroke-dasharray="5,2" d="M1304,-324C1304,-324 1200,-324 1200,-324 1194,-324 1188,-318 1188,-312 1188,-312 1188,-300 1188,-300 1188,-294 1194,-288 1200,-288 1200,-288 1304,-288 1304,-288 1310,-288 1316,-294 1316,-300 1316,-300 1316,-312 1316,-312 1316,-318 1310,-324 1304,-324"/>
<text text-anchor="middle" x="1252" y="-309" font-family="sans" font-size="10.00">prioritize_vep_variants</text>
<text text-anchor="middle" x="1252" y="-298" font-family="sans" font-size="10.00">chrom: chr15</text>
</g>
<!-- 3&#45;&gt;26 -->
<g id="edge71" class="edge">
<title>3&#45;&gt;26</title>
<path fill="none" stroke="grey" stroke-width="2" d="M2030.31,-448.51C1949.91,-446.61 1709.9,-437.59 1516,-396 1439.65,-379.62 1354.6,-348.5 1302.19,-327.75"/>
<polygon fill="grey" stroke="grey" stroke-width="2" points="1303.38,-324.46 1292.79,-324 1300.78,-330.96 1303.38,-324.46"/>
</g>
<!-- 27 -->
<g id="node28" class="node">
<title>27</title>
<path fill="none" stroke="#5673d8" stroke-width="2" stroke-dasharray="5,2" d="M1450,-324C1450,-324 1346,-324 1346,-324 1340,-324 1334,-318 1334,-312 1334,-312 1334,-300 1334,-300 1334,-294 1340,-288 1346,-288 1346,-288 1450,-288 1450,-288 1456,-288 1462,-294 1462,-300 1462,-300 1462,-312 1462,-312 1462,-318 1456,-324 1450,-324"/>
<text text-anchor="middle" x="1398" y="-309" font-family="sans" font-size="10.00">prioritize_vep_variants</text>
<text text-anchor="middle" x="1398" y="-298" font-family="sans" font-size="10.00">chrom: chr16</text>
</g>
<!-- 3&#45;&gt;27 -->
<g id="edge73" class="edge">
<title>3&#45;&gt;27</title>
<path fill="none" stroke="grey" stroke-width="2" d="M2030.4,-447.95C1961.52,-444.83 1776.83,-433.36 1628,-396 1561.7,-379.36 1488.65,-348.86 1443.05,-328.26"/>
<polygon fill="grey" stroke="grey" stroke-width="2" points="1444.3,-324.98 1433.74,-324.02 1441.39,-331.36 1444.3,-324.98"/>
</g>
<!-- 28 -->
<g id="node29" class="node">
<title>28</title>
<path fill="none" stroke="#5673d8" stroke-width="2" stroke-dasharray="5,2" d="M1596,-324C1596,-324 1492,-324 1492,-324 1486,-324 1480,-318 1480,-312 1480,-312 1480,-300 1480,-300 1480,-294 1486,-288 1492,-288 1492,-288 1596,-288 1596,-288 1602,-288 1608,-294 1608,-300 1608,-300 1608,-312 1608,-312 1608,-318 1602,-324 1596,-324"/>
<text text-anchor="middle" x="1544" y="-309" font-family="sans" font-size="10.00">prioritize_vep_variants</text>
<text text-anchor="middle" x="1544" y="-298" font-family="sans" font-size="10.00">chrom: chr17</text>
</g>
<!-- 3&#45;&gt;28 -->
<g id="edge75" class="edge">
<title>3&#45;&gt;28</title>
<path fill="none" stroke="grey" stroke-width="2" d="M2030.44,-447.86C1971.01,-444.73 1826.95,-433.58 1713,-396 1663.78,-379.77 1611.66,-350.18 1578.53,-329.59"/>
<polygon fill="grey" stroke="grey" stroke-width="2" points="1580.04,-326.41 1569.71,-324.05 1576.31,-332.33 1580.04,-326.41"/>
</g>
<!-- 29 -->
<g id="node30" class="node">
<title>29</title>
<path fill="none" stroke="#5673d8" stroke-width="2" stroke-dasharray="5,2" d="M1818,-324C1818,-324 1714,-324 1714,-324 1708,-324 1702,-318 1702,-312 1702,-312 1702,-300 1702,-300 1702,-294 1708,-288 1714,-288 1714,-288 1818,-288 1818,-288 1824,-288 1830,-294 1830,-300 1830,-300 1830,-312 1830,-312 1830,-318 1824,-324 1818,-324"/>
<text text-anchor="middle" x="1766" y="-309" font-family="sans" font-size="10.00">prioritize_vep_variants</text>
<text text-anchor="middle" x="1766" y="-298" font-family="sans" font-size="10.00">chrom: chr18</text>
</g>
<!-- 3&#45;&gt;29 -->
<g id="edge77" class="edge">
<title>3&#45;&gt;29</title>
<path fill="none" stroke="grey" stroke-width="2" d="M2030.27,-435.51C1979.49,-410.82 1871.2,-358.16 1810.18,-328.48"/>
<polygon fill="grey" stroke="grey" stroke-width="2" points="1811.69,-325.33 1801.17,-324.1 1808.63,-331.62 1811.69,-325.33"/>
</g>
<!-- 30 -->
<g id="node31" class="node">
<title>30</title>
<path fill="none" stroke="#5673d8" stroke-width="2" stroke-dasharray="5,2" d="M1964,-324C1964,-324 1860,-324 1860,-324 1854,-324 1848,-318 1848,-312 1848,-312 1848,-300 1848,-300 1848,-294 1854,-288 1860,-288 1860,-288 1964,-288 1964,-288 1970,-288 1976,-294 1976,-300 1976,-300 1976,-312 1976,-312 1976,-318 1970,-324 1964,-324"/>
<text text-anchor="middle" x="1912" y="-309" font-family="sans" font-size="10.00">prioritize_vep_variants</text>
<text text-anchor="middle" x="1912" y="-298" font-family="sans" font-size="10.00">chrom: chr19</text>
</g>
<!-- 3&#45;&gt;30 -->
<g id="edge79" class="edge">
<title>3&#45;&gt;30</title>
<path fill="none" stroke="grey" stroke-width="2" d="M2040.39,-431.87C2014.63,-406.82 1966.55,-360.05 1937.09,-331.41"/>
<polygon fill="grey" stroke="grey" stroke-width="2" points="1939.28,-328.65 1929.67,-324.19 1934.4,-333.67 1939.28,-328.65"/>
</g>
<!-- 31 -->
<g id="node32" class="node">
<title>31</title>
<path fill="none" stroke="#5673d8" stroke-width="2" stroke-dasharray="5,2" d="M2110,-324C2110,-324 2006,-324 2006,-324 2000,-324 1994,-318 1994,-312 1994,-312 1994,-300 1994,-300 1994,-294 2000,-288 2006,-288 2006,-288 2110,-288 2110,-288 2116,-288 2122,-294 2122,-300 2122,-300 2122,-312 2122,-312 2122,-318 2116,-324 2110,-324"/>
<text text-anchor="middle" x="2058" y="-309" font-family="sans" font-size="10.00">prioritize_vep_variants</text>
<text text-anchor="middle" x="2058" y="-298" font-family="sans" font-size="10.00">chrom: chr20</text>
</g>
<!-- 3&#45;&gt;31 -->
<g id="edge81" class="edge">
<title>3&#45;&gt;31</title>
<path fill="none" stroke="grey" stroke-width="2" d="M2058,-431.87C2058,-407.67 2058,-363.21 2058,-334.39"/>
<polygon fill="grey" stroke="grey" stroke-width="2" points="2061.5,-334.19 2058,-324.19 2054.5,-334.19 2061.5,-334.19"/>
</g>
<!-- 32 -->
<g id="node33" class="node">
<title>32</title>
<path fill="none" stroke="#5673d8" stroke-width="2" stroke-dasharray="5,2" d="M2256,-324C2256,-324 2152,-324 2152,-324 2146,-324 2140,-318 2140,-312 2140,-312 2140,-300 2140,-300 2140,-294 2146,-288 2152,-288 2152,-288 2256,-288 2256,-288 2262,-288 2268,-294 2268,-300 2268,-300 2268,-312 2268,-312 2268,-318 2262,-324 2256,-324"/>
<text text-anchor="middle" x="2204" y="-309" font-family="sans" font-size="10.00">prioritize_vep_variants</text>
<text text-anchor="middle" x="2204" y="-298" font-family="sans" font-size="10.00">chrom: chr21</text>
</g>
<!-- 3&#45;&gt;32 -->
<g id="edge83" class="edge">
<title>3&#45;&gt;32</title>
<path fill="none" stroke="grey" stroke-width="2" d="M2075.61,-431.87C2101.37,-406.82 2149.45,-360.05 2178.91,-331.41"/>
<polygon fill="grey" stroke="grey" stroke-width="2" points="2181.6,-333.67 2186.33,-324.19 2176.72,-328.65 2181.6,-333.67"/>
</g>
<!-- 33 -->
<g id="node34" class="node">
<title>33</title>
<path fill="none" stroke="#5673d8" stroke-width="2" stroke-dasharray="5,2" d="M2402,-324C2402,-324 2298,-324 2298,-324 2292,-324 2286,-318 2286,-312 2286,-312 2286,-300 2286,-300 2286,-294 2292,-288 2298,-288 2298,-288 2402,-288 2402,-288 2408,-288 2414,-294 2414,-300 2414,-300 2414,-312 2414,-312 2414,-318 2408,-324 2402,-324"/>
<text text-anchor="middle" x="2350" y="-309" font-family="sans" font-size="10.00">prioritize_vep_variants</text>
<text text-anchor="middle" x="2350" y="-298" font-family="sans" font-size="10.00">chrom: chr22</text>
</g>
<!-- 3&#45;&gt;33 -->
<g id="edge85" class="edge">
<title>3&#45;&gt;33</title>
<path fill="none" stroke="grey" stroke-width="2" d="M2085.73,-435.51C2136.51,-410.82 2244.8,-358.16 2305.82,-328.48"/>
<polygon fill="grey" stroke="grey" stroke-width="2" points="2307.37,-331.62 2314.83,-324.1 2304.31,-325.33 2307.37,-331.62"/>
</g>
<!-- 34 -->
<g id="node35" class="node">
<title>34</title>
<path fill="none" stroke="#5673d8" stroke-width="2" stroke-dasharray="5,2" d="M2548,-324C2548,-324 2444,-324 2444,-324 2438,-324 2432,-318 2432,-312 2432,-312 2432,-300 2432,-300 2432,-294 2438,-288 2444,-288 2444,-288 2548,-288 2548,-288 2554,-288 2560,-294 2560,-300 2560,-300 2560,-312 2560,-312 2560,-318 2554,-324 2548,-324"/>
<text text-anchor="middle" x="2496" y="-309" font-family="sans" font-size="10.00">prioritize_vep_variants</text>
<text text-anchor="middle" x="2496" y="-298" font-family="sans" font-size="10.00">chrom: chrX</text>
</g>
<!-- 3&#45;&gt;34 -->
<g id="edge87" class="edge">
<title>3&#45;&gt;34</title>
<path fill="none" stroke="grey" stroke-width="2" d="M2085.73,-440.01C2155,-417.55 2336.95,-358.56 2433.59,-327.23"/>
<polygon fill="grey" stroke="grey" stroke-width="2" points="2434.81,-330.52 2443.24,-324.1 2432.65,-323.86 2434.81,-330.52"/>
</g>
<!-- 35 -->
<g id="node36" class="node">
<title>35</title>
<path fill="none" stroke="#c6d856" stroke-width="2" stroke-dasharray="5,2" d="M3030,-180C3030,-180 2952,-180 2952,-180 2946,-180 2940,-174 2940,-168 2940,-168 2940,-156 2940,-156 2940,-150 2946,-144 2952,-144 2952,-144 3030,-144 3030,-144 3036,-144 3042,-150 3042,-156 3042,-156 3042,-168 3042,-168 3042,-174 3036,-180 3030,-180"/>
<text text-anchor="middle" x="2991" y="-159.5" font-family="sans" font-size="10.00">network_analysis</text>
</g>
<!-- 3&#45;&gt;35 -->
<g id="edge89" class="edge">
<title>3&#45;&gt;35</title>
<path fill="none" stroke="grey" stroke-width="2" d="M2085.53,-448.9C2251.99,-448.14 3125.59,-441.99 3389,-396 3493.68,-377.72 3554.18,-409.71 3617,-324 3696.62,-215.37 3610.02,-260.37 3434,-216 3300.48,-182.34 3138.77,-169.87 3052.41,-165.39"/>
<polygon fill="grey" stroke="grey" stroke-width="2" points="3052.42,-161.89 3042.26,-164.89 3052.07,-168.88 3052.42,-161.89"/>
</g>
<!-- 4 -->
<g id="node5" class="node">
<title>4</title>
<path fill="none" stroke="#d8d356" stroke-width="2" stroke-dasharray="5,2" d="M2104,-540C2104,-540 2012,-540 2012,-540 2006,-540 2000,-534 2000,-528 2000,-528 2000,-516 2000,-516 2000,-510 2006,-504 2012,-504 2012,-504 2104,-504 2104,-504 2110,-504 2116,-510 2116,-516 2116,-516 2116,-528 2116,-528 2116,-534 2110,-540 2104,-540"/>
<text text-anchor="middle" x="2058" y="-519.5" font-family="sans" font-size="10.00">outrider_dim_search</text>
</g>
<!-- 4&#45;&gt;3 -->
<g id="edge9" class="edge">
<title>4&#45;&gt;3</title>
<path fill="none" stroke="grey" stroke-width="2" d="M2058,-503.7C2058,-495.98 2058,-486.71 2058,-478.11"/>
<polygon fill="grey" stroke="grey" stroke-width="2" points="2061.5,-478.1 2058,-468.1 2054.5,-478.1 2061.5,-478.1"/>
</g>
<!-- 5 -->
<g id="node6" class="node">
<title>5</title>
<path fill="none" stroke="#d85656" stroke-width="2" stroke-dasharray="5,2" d="M2084.5,-612C2084.5,-612 2031.5,-612 2031.5,-612 2025.5,-612 2019.5,-606 2019.5,-600 2019.5,-600 2019.5,-588 2019.5,-588 2019.5,-582 2025.5,-576 2031.5,-576 2031.5,-576 2084.5,-576 2084.5,-576 2090.5,-576 2096.5,-582 2096.5,-588 2096.5,-588 2096.5,-600 2096.5,-600 2096.5,-606 2090.5,-612 2084.5,-612"/>
<text text-anchor="middle" x="2058" y="-591.5" font-family="sans" font-size="10.00">filter_counts</text>
</g>
<!-- 5&#45;&gt;4 -->
<g id="edge10" class="edge">
<title>5&#45;&gt;4</title>
<path fill="none" stroke="grey" stroke-width="2" d="M2058,-575.7C2058,-567.98 2058,-558.71 2058,-550.11"/>
<polygon fill="grey" stroke="grey" stroke-width="2" points="2061.5,-550.1 2058,-540.1 2054.5,-550.1 2061.5,-550.1"/>
</g>
<!-- 6 -->
<g id="node7" class="node">
<title>6</title>
<path fill="none" stroke="#97d856" stroke-width="2" stroke-dasharray="5,2" d="M2103.5,-684C2103.5,-684 2012.5,-684 2012.5,-684 2006.5,-684 2000.5,-678 2000.5,-672 2000.5,-672 2000.5,-660 2000.5,-660 2000.5,-654 2006.5,-648 2012.5,-648 2012.5,-648 2103.5,-648 2103.5,-648 2109.5,-648 2115.5,-654 2115.5,-660 2115.5,-660 2115.5,-672 2115.5,-672 2115.5,-678 2109.5,-684 2103.5,-684"/>
<text text-anchor="middle" x="2058" y="-663.5" font-family="sans" font-size="10.00">merge_gene_counts</text>
</g>
<!-- 6&#45;&gt;5 -->
<g id="edge11" class="edge">
<title>6&#45;&gt;5</title>
<path fill="none" stroke="grey" stroke-width="2" d="M2058,-647.7C2058,-639.98 2058,-630.71 2058,-622.11"/>
<polygon fill="grey" stroke="grey" stroke-width="2" points="2061.5,-622.1 2058,-612.1 2054.5,-622.1 2061.5,-622.1"/>
</g>
<!-- 7&#45;&gt;1 -->
<g id="edge3" class="edge">
<title>7&#45;&gt;1</title>
<path fill="none" stroke="grey" stroke-width="2" d="M1723.38,-359.99C1708.13,-351.58 1692.59,-339.78 1684,-324 1676.35,-309.95 1680.41,-303.59 1684,-288 1706.59,-189.84 1761.83,-170.52 1859,-144 2023.16,-99.2 2551.32,-92.26 2721.57,-91.19"/>
<polygon fill="grey" stroke="grey" stroke-width="2" points="2721.81,-94.69 2731.79,-91.13 2721.77,-87.69 2721.81,-94.69"/>
</g>
<!-- 7&#45;&gt;8 -->
<g id="edge14" class="edge">
<title>7&#45;&gt;8</title>
<path fill="none" stroke="grey" stroke-width="2" d="M1721.64,-376.33C1495.88,-372.82 473.02,-355.4 157,-324 145.07,-322.81 132.42,-321.09 120.24,-319.19"/>
<polygon fill="grey" stroke="grey" stroke-width="2" points="120.57,-315.7 110.14,-317.56 119.45,-322.61 120.57,-315.7"/>
</g>
<!-- 7&#45;&gt;10 -->
<g id="edge18" class="edge">
<title>7&#45;&gt;10</title>
<path fill="none" stroke="grey" stroke-width="2" d="M1729.49,-359.92C1715.4,-351.29 1700.82,-339.35 1693,-324 1685.73,-309.75 1684.97,-301.84 1693,-288 1728.21,-227.36 1805.1,-193.67 1857.72,-176.94"/>
<polygon fill="grey" stroke="grey" stroke-width="2" points="1859.04,-180.2 1867.57,-173.92 1856.99,-173.5 1859.04,-180.2"/>
</g>
<!-- 7&#45;&gt;12 -->
<g id="edge44" class="edge">
<title>7&#45;&gt;12</title>
<path fill="none" stroke="grey" stroke-width="2" d="M1810.23,-376.6C1930.57,-374.99 2274.06,-366.8 2567.64,-324.06"/>
<polygon fill="grey" stroke="grey" stroke-width="2" points="2568.24,-327.51 2577.62,-322.59 2567.22,-320.59 2568.24,-327.51"/>
</g>
<!-- 7&#45;&gt;13 -->
<g id="edge46" class="edge">
<title>7&#45;&gt;13</title>
<path fill="none" stroke="grey" stroke-width="2" d="M1810.26,-377.24C1944.85,-377.39 2361.09,-373.63 2713.48,-324.07"/>
<polygon fill="grey" stroke="grey" stroke-width="2" points="2714.22,-327.5 2723.63,-322.63 2713.23,-320.57 2714.22,-327.5"/>
</g>
<!-- 7&#45;&gt;14 -->
<g id="edge48" class="edge">
<title>7&#45;&gt;14</title>
<path fill="none" stroke="grey" stroke-width="2" d="M1810.13,-375.93C1985.3,-371.51 2632.69,-353.61 2859.48,-324.03"/>
<polygon fill="grey" stroke="grey" stroke-width="2" points="2860.19,-327.46 2869.63,-322.65 2859.25,-320.52 2860.19,-327.46"/>
</g>
<!-- 7&#45;&gt;15 -->
<g id="edge50" class="edge">
<title>7&#45;&gt;15</title>
<path fill="none" stroke="grey" stroke-width="2" d="M1810.02,-376.22C1999.65,-372.69 2748.39,-357 3005.59,-324.01"/>
<polygon fill="grey" stroke="grey" stroke-width="2" points="3006.18,-327.46 3015.63,-322.67 3005.26,-320.52 3006.18,-327.46"/>
</g>
<!-- 7&#45;&gt;16 -->
<g id="edge52" class="edge">
<title>7&#45;&gt;16</title>
<path fill="none" stroke="grey" stroke-width="2" d="M1810.27,-376.44C2014.09,-373.71 2864.07,-360.4 3151.65,-323.99"/>
<polygon fill="grey" stroke="grey" stroke-width="2" points="3152.17,-327.46 3161.64,-322.69 3151.27,-320.51 3152.17,-327.46"/>
</g>
<!-- 7&#45;&gt;17 -->
<g id="edge54" class="edge">
<title>7&#45;&gt;17</title>
<path fill="none" stroke="grey" stroke-width="2" d="M1810.11,-376.63C2026.62,-374.65 2979.08,-363.86 3297.49,-324.01"/>
<polygon fill="grey" stroke="grey" stroke-width="2" points="3298.17,-327.45 3307.64,-322.7 3297.27,-320.51 3298.17,-327.45"/>
</g>
<!-- 7&#45;&gt;18 -->
<g id="edge56" class="edge">
<title>7&#45;&gt;18</title>
<path fill="none" stroke="grey" stroke-width="2" d="M1810.03,-376.79C2038.83,-375.49 3094.44,-367.32 3443.52,-324.01"/>
<polygon fill="grey" stroke="grey" stroke-width="2" points="3444.16,-327.45 3453.64,-322.71 3443.28,-320.51 3444.16,-327.45"/>
</g>
<!-- 7&#45;&gt;19 -->
<g id="edge58" class="edge">
<title>7&#45;&gt;19</title>
<path fill="none" stroke="grey" stroke-width="2" d="M1721.81,-376.55C1511.29,-374.21 608.13,-362.2 304.48,-324.01"/>
<polygon fill="grey" stroke="grey" stroke-width="2" points="304.73,-320.51 294.36,-322.7 303.83,-327.45 304.73,-320.51"/>
</g>
<!-- 7&#45;&gt;20 -->
<g id="edge60" class="edge">
<title>7&#45;&gt;20</title>
<path fill="none" stroke="grey" stroke-width="2" d="M1721.98,-376.34C1525.18,-373.24 723.96,-358.78 450.64,-324.03"/>
<polygon fill="grey" stroke="grey" stroke-width="2" points="450.74,-320.52 440.36,-322.68 449.82,-327.46 450.74,-320.52"/>
</g>
<!-- 7&#45;&gt;21 -->
<g id="edge62" class="edge">
<title>7&#45;&gt;21</title>
<path fill="none" stroke="grey" stroke-width="2" d="M1721.99,-376.09C1539.29,-372.15 839.24,-355.37 596.54,-324.02"/>
<polygon fill="grey" stroke="grey" stroke-width="2" points="596.74,-320.52 586.37,-322.66 595.81,-327.46 596.74,-320.52"/>
</g>
<!-- 7&#45;&gt;22 -->
<g id="edge64" class="edge">
<title>7&#45;&gt;22</title>
<path fill="none" stroke="grey" stroke-width="2" d="M1721.78,-377.5C1580.25,-378.51 1125.78,-377.2 742.55,-324.07"/>
<polygon fill="grey" stroke="grey" stroke-width="2" points="742.76,-320.56 732.37,-322.64 741.79,-327.5 742.76,-320.56"/>
</g>
<!-- 7&#45;&gt;23 -->
<g id="edge66" class="edge">
<title>7&#45;&gt;23</title>
<path fill="none" stroke="grey" stroke-width="2" d="M1721.83,-376.96C1593.99,-376.29 1212.63,-370.36 888.43,-324.06"/>
<polygon fill="grey" stroke="grey" stroke-width="2" points="888.77,-320.58 878.37,-322.61 887.77,-327.5 888.77,-320.58"/>
</g>
<!-- 7&#45;&gt;24 -->
<g id="edge68" class="edge">
<title>7&#45;&gt;24</title>
<path fill="none" stroke="grey" stroke-width="2" d="M1721.95,-376.22C1609.06,-373.69 1300.21,-363.57 1034.6,-324.11"/>
<polygon fill="grey" stroke="grey" stroke-width="2" points="1034.79,-320.59 1024.38,-322.57 1033.75,-327.52 1034.79,-320.59"/>
</g>
<!-- 7&#45;&gt;25 -->
<g id="edge70" class="edge">
<title>7&#45;&gt;25</title>
<path fill="none" stroke="grey" stroke-width="2" d="M1721.93,-375.11C1625.42,-370.53 1388.11,-356.82 1180.56,-324.13"/>
<polygon fill="grey" stroke="grey" stroke-width="2" points="1180.82,-320.62 1170.39,-322.51 1179.71,-327.54 1180.82,-320.62"/>
</g>
<!-- 7&#45;&gt;26 -->
<g id="edge72" class="edge">
<title>7&#45;&gt;26</title>
<path fill="none" stroke="grey" stroke-width="2" d="M1721.95,-373.31C1644.04,-366.44 1476.69,-350.12 1325.92,-324.05"/>
<polygon fill="grey" stroke="grey" stroke-width="2" points="1326.47,-320.6 1316.01,-322.32 1325.26,-327.49 1326.47,-320.6"/>
</g>
<!-- 7&#45;&gt;27 -->
<g id="edge74" class="edge">
<title>7&#45;&gt;27</title>
<path fill="none" stroke="grey" stroke-width="2" d="M1721.88,-369.8C1666.07,-360.52 1566.76,-343.49 1472.09,-324.17"/>
<polygon fill="grey" stroke="grey" stroke-width="2" points="1472.55,-320.69 1462.05,-322.11 1471.15,-327.55 1472.55,-320.69"/>
</g>
<!-- 7&#45;&gt;28 -->
<g id="edge76" class="edge">
<title>7&#45;&gt;28</title>
<path fill="none" stroke="grey" stroke-width="2" d="M1721.87,-363.09C1689.26,-352.8 1644.36,-338.64 1607.83,-327.13"/>
<polygon fill="grey" stroke="grey" stroke-width="2" points="1608.84,-323.78 1598.25,-324.11 1606.74,-330.45 1608.84,-323.78"/>
</g>
<!-- 7&#45;&gt;29 -->
<g id="edge78" class="edge">
<title>7&#45;&gt;29</title>
<path fill="none" stroke="grey" stroke-width="2" d="M1766,-359.7C1766,-351.98 1766,-342.71 1766,-334.11"/>
<polygon fill="grey" stroke="grey" stroke-width="2" points="1769.5,-334.1 1766,-324.1 1762.5,-334.1 1769.5,-334.1"/>
</g>
<!-- 7&#45;&gt;30 -->
<g id="edge80" class="edge">
<title>7&#45;&gt;30</title>
<path fill="none" stroke="grey" stroke-width="2" d="M1801.72,-359.88C1821.5,-350.39 1846.27,-338.51 1867.33,-328.42"/>
<polygon fill="grey" stroke="grey" stroke-width="2" points="1868.9,-331.55 1876.4,-324.07 1865.87,-325.24 1868.9,-331.55"/>
</g>
<!-- 7&#45;&gt;31 -->
<g id="edge82" class="edge">
<title>7&#45;&gt;31</title>
<path fill="none" stroke="grey" stroke-width="2" d="M1810.03,-366.44C1856,-355.42 1928.91,-337.95 1983.8,-324.79"/>
<polygon fill="grey" stroke="grey" stroke-width="2" points="1984.92,-328.12 1993.83,-322.38 1983.29,-321.31 1984.92,-328.12"/>
</g>
<!-- 7&#45;&gt;32 -->
<g id="edge84" class="edge">
<title>7&#45;&gt;32</title>
<path fill="none" stroke="grey" stroke-width="2" d="M1810.02,-371.83C1877,-363.69 2008.67,-346.66 2130.13,-324.08"/>
<polygon fill="grey" stroke="grey" stroke-width="2" points="2130.79,-327.52 2139.97,-322.23 2129.5,-320.64 2130.79,-327.52"/>
</g>
<!-- 7&#45;&gt;33 -->
<g id="edge86" class="edge">
<title>7&#45;&gt;33</title>
<path fill="none" stroke="grey" stroke-width="2" d="M1810.34,-374.28C1897.64,-368.52 2098.07,-353.29 2275.93,-324.06"/>
<polygon fill="grey" stroke="grey" stroke-width="2" points="2276.71,-327.48 2286,-322.38 2275.56,-320.57 2276.71,-327.48"/>
</g>
<!-- 7&#45;&gt;34 -->
<g id="edge88" class="edge">
<title>7&#45;&gt;34</title>
<path fill="none" stroke="grey" stroke-width="2" d="M1810.09,-375.7C1914.71,-372.13 2186.2,-360.04 2421.5,-324.1"/>
<polygon fill="grey" stroke="grey" stroke-width="2" points="2422.27,-327.53 2431.61,-322.54 2421.2,-320.61 2422.27,-327.53"/>
</g>
<!-- 8&#45;&gt;1 -->
<g id="edge4" class="edge">
<title>8&#45;&gt;1</title>
<path fill="none" stroke="grey" stroke-width="2" d="M84.91,-287.85C123.65,-266.61 193.94,-231.38 259,-216 750.33,-99.88 2401.85,-91.54 2721.26,-91.02"/>
<polygon fill="grey" stroke="grey" stroke-width="2" points="2721.63,-94.52 2731.63,-91.01 2721.62,-87.52 2721.63,-94.52"/>
</g>
<!-- 9 -->
<g id="node10" class="node">
<title>9</title>
<path fill="none" stroke="#d8a456" stroke-width="2" stroke-dasharray="5,2" d="M145,-396C145,-396 107,-396 107,-396 101,-396 95,-390 95,-384 95,-384 95,-372 95,-372 95,-366 101,-360 107,-360 107,-360 145,-360 145,-360 151,-360 157,-366 157,-372 157,-372 157,-384 157,-384 157,-390 151,-396 145,-396"/>
<text text-anchor="middle" x="126" y="-375.5" font-family="sans" font-size="10.00">literature</text>
</g>
<!-- 9&#45;&gt;8 -->
<g id="edge13" class="edge">
<title>9&#45;&gt;8</title>
<path fill="none" stroke="grey" stroke-width="2" d="M108.45,-359.7C99.77,-351.14 89.14,-340.66 79.65,-331.3"/>
<polygon fill="grey" stroke="grey" stroke-width="2" points="81.93,-328.63 72.35,-324.1 77.01,-333.62 81.93,-328.63"/>
</g>
<!-- 9&#45;&gt;10 -->
<g id="edge19" class="edge">
<title>9&#45;&gt;10</title>
<path fill="none" stroke="grey" stroke-width="2" d="M126.64,-359.71C128.42,-339 134.78,-305.01 157,-288 295.07,-182.3 1575.92,-165.74 1857.45,-163.37"/>
<polygon fill="grey" stroke="grey" stroke-width="2" points="1857.84,-166.87 1867.81,-163.29 1857.78,-159.87 1857.84,-166.87"/>
</g>
<!-- 10&#45;&gt;1 -->
<g id="edge6" class="edge">
<title>10&#45;&gt;1</title>
<path fill="none" stroke="grey" stroke-width="2" d="M1956.28,-157.41C2101.6,-145.62 2563.66,-108.14 2721.53,-95.34"/>
<polygon fill="grey" stroke="grey" stroke-width="2" points="2722.24,-98.79 2731.92,-94.49 2721.67,-91.81 2722.24,-98.79"/>
</g>
<!-- 11 -->
<g id="node12" class="node">
<title>11</title>
<path fill="none" stroke="#56a2d8" stroke-width="2" stroke-dasharray="5,2" d="M1946.5,-252C1946.5,-252 1877.5,-252 1877.5,-252 1871.5,-252 1865.5,-246 1865.5,-240 1865.5,-240 1865.5,-228 1865.5,-228 1865.5,-222 1871.5,-216 1877.5,-216 1877.5,-216 1946.5,-216 1946.5,-216 1952.5,-216 1958.5,-222 1958.5,-228 1958.5,-228 1958.5,-240 1958.5,-240 1958.5,-246 1952.5,-252 1946.5,-252"/>
<text text-anchor="middle" x="1912" y="-231.5" font-family="sans" font-size="10.00">merge_variants</text>
</g>
<!-- 11&#45;&gt;10 -->
<g id="edge16" class="edge">
<title>11&#45;&gt;10</title>
<path fill="none" stroke="grey" stroke-width="2" d="M1912,-215.7C1912,-207.98 1912,-198.71 1912,-190.11"/>
<polygon fill="grey" stroke="grey" stroke-width="2" points="1915.5,-190.1 1912,-180.1 1908.5,-190.1 1915.5,-190.1"/>
</g>
<!-- 12&#45;&gt;11 -->
<g id="edge20" class="edge">
<title>12&#45;&gt;11</title>
<path fill="none" stroke="grey" stroke-width="2" d="M2577.61,-289.46C2574.71,-288.93 2571.83,-288.44 2569,-288 2348.89,-253.69 2083.62,-240.91 1969.15,-236.76"/>
<polygon fill="grey" stroke="grey" stroke-width="2" points="1969,-233.25 1958.88,-236.4 1968.75,-240.25 1969,-233.25"/>
</g>
<!-- 13&#45;&gt;11 -->
<g id="edge21" class="edge">
<title>13&#45;&gt;11</title>
<path fill="none" stroke="grey" stroke-width="2" d="M2723.62,-289.41C2720.72,-288.89 2717.83,-288.42 2715,-288 2437.48,-246.81 2101.25,-237.63 1969.17,-235.58"/>
<polygon fill="grey" stroke="grey" stroke-width="2" points="1968.95,-232.08 1958.9,-235.43 1968.85,-239.08 1968.95,-232.08"/>
</g>
<!-- 14&#45;&gt;11 -->
<g id="edge22" class="edge">
<title>14&#45;&gt;11</title>
<path fill="none" stroke="grey" stroke-width="2" d="M2869.63,-289.37C2866.72,-288.87 2863.83,-288.41 2861,-288 2525.22,-239.89 2116.78,-234.87 1968.89,-234.76"/>
<polygon fill="grey" stroke="grey" stroke-width="2" points="1968.69,-231.26 1958.69,-234.76 1968.69,-238.26 1968.69,-231.26"/>
</g>
<!-- 15&#45;&gt;11 -->
<g id="edge23" class="edge">
<title>15&#45;&gt;11</title>
<path fill="none" stroke="grey" stroke-width="2" d="M3015.63,-289.35C3012.72,-288.85 3009.84,-288.4 3007,-288 2803.29,-259.59 2163.05,-241.37 1968.58,-236.39"/>
<polygon fill="grey" stroke="grey" stroke-width="2" points="1968.66,-232.89 1958.57,-236.13 1968.48,-239.89 1968.66,-232.89"/>
</g>
<!-- 16&#45;&gt;11 -->
<g id="edge24" class="edge">
<title>16&#45;&gt;11</title>
<path fill="none" stroke="grey" stroke-width="2" d="M3161.63,-289.33C3158.72,-288.83 3155.84,-288.39 3153,-288 2919.51,-256.11 2180.15,-240.04 1968.88,-236.02"/>
<polygon fill="grey" stroke="grey" stroke-width="2" points="1968.71,-232.52 1958.64,-235.83 1968.57,-239.52 1968.71,-232.52"/>
</g>
<!-- 17&#45;&gt;11 -->
<g id="edge25" class="edge">
<title>17&#45;&gt;11</title>
<path fill="none" stroke="grey" stroke-width="2" d="M3307.64,-289.31C3304.73,-288.82 3301.84,-288.38 3299,-288 3035.41,-252.6 2195.21,-238.84 1968.71,-235.73"/>
<polygon fill="grey" stroke="grey" stroke-width="2" points="1968.75,-232.23 1958.71,-235.59 1968.66,-239.22 1968.75,-232.23"/>
</g>
<!-- 18&#45;&gt;11 -->
<g id="edge26" class="edge">
<title>18&#45;&gt;11</title>
<path fill="none" stroke="grey" stroke-width="2" d="M3453.64,-289.3C3450.73,-288.81 3447.84,-288.38 3445,-288 3151.38,-249.11 2210.58,-237.79 1968.98,-235.49"/>
<polygon fill="grey" stroke="grey" stroke-width="2" points="1968.71,-231.99 1958.67,-235.39 1968.64,-238.99 1968.71,-231.99"/>
</g>
<!-- 19&#45;&gt;11 -->
<g id="edge27" class="edge">
<title>19&#45;&gt;11</title>
<path fill="none" stroke="grey" stroke-width="2" d="M294.36,-289.29C297.27,-288.81 300.16,-288.37 303,-288 612.37,-247.28 1606.18,-237.27 1855.07,-235.38"/>
<polygon fill="grey" stroke="grey" stroke-width="2" points="1855.35,-238.88 1865.33,-235.3 1855.3,-231.88 1855.35,-238.88"/>
</g>
<!-- 20&#45;&gt;11 -->
<g id="edge28" class="edge">
<title>20&#45;&gt;11</title>
<path fill="none" stroke="grey" stroke-width="2" d="M440.36,-289.3C443.27,-288.82 446.16,-288.38 449,-288 728.27,-250.78 1621.09,-238.28 1855.3,-235.59"/>
<polygon fill="grey" stroke="grey" stroke-width="2" points="1855.35,-239.09 1865.3,-235.48 1855.27,-232.09 1855.35,-239.09"/>
</g>
<!-- 21&#45;&gt;11 -->
<g id="edge29" class="edge">
<title>21&#45;&gt;11</title>
<path fill="none" stroke="grey" stroke-width="2" d="M586.36,-289.32C589.27,-288.83 592.16,-288.38 595,-288 844.17,-254.28 1636.08,-239.4 1855.28,-235.86"/>
<polygon fill="grey" stroke="grey" stroke-width="2" points="1855.34,-239.36 1865.28,-235.7 1855.23,-232.36 1855.34,-239.36"/>
</g>
<!-- 22&#45;&gt;11 -->
<g id="edge30" class="edge">
<title>22&#45;&gt;11</title>
<path fill="none" stroke="grey" stroke-width="2" d="M732.37,-289.34C735.28,-288.84 738.16,-288.39 741,-288 960.21,-257.78 1652.02,-240.66 1855.3,-236.19"/>
<polygon fill="grey" stroke="grey" stroke-width="2" points="1855.53,-239.68 1865.46,-235.96 1855.38,-232.68 1855.53,-239.68"/>
</g>
<!-- 23&#45;&gt;11 -->
<g id="edge31" class="edge">
<title>23&#45;&gt;11</title>
<path fill="none" stroke="grey" stroke-width="2" d="M878.37,-289.36C881.28,-288.86 884.17,-288.4 887,-288 1253.3,-236.29 1699.58,-233.6 1855.23,-234.42"/>
<polygon fill="grey" stroke="grey" stroke-width="2" points="1855.47,-237.92 1865.49,-234.48 1855.51,-230.92 1855.47,-237.92"/>
</g>
<!-- 24&#45;&gt;11 -->
<g id="edge32" class="edge">
<title>24&#45;&gt;11</title>
<path fill="none" stroke="grey" stroke-width="2" d="M1024.37,-289.39C1027.28,-288.88 1030.17,-288.41 1033,-288 1341.1,-243.16 1715.28,-236.12 1855.42,-235.12"/>
<polygon fill="grey" stroke="grey" stroke-width="2" points="1855.52,-238.62 1865.5,-235.05 1855.47,-231.62 1855.52,-238.62"/>
</g>
<!-- 25&#45;&gt;11 -->
<g id="edge33" class="edge">
<title>25&#45;&gt;11</title>
<path fill="none" stroke="grey" stroke-width="2" d="M1170.38,-289.43C1173.29,-288.91 1176.17,-288.43 1179,-288 1429.05,-250.08 1731.34,-239.11 1855.05,-236.09"/>
<polygon fill="grey" stroke="grey" stroke-width="2" points="1855.49,-239.58 1865.41,-235.84 1855.33,-232.58 1855.49,-239.58"/>
</g>
<!-- 26&#45;&gt;11 -->
<g id="edge34" class="edge">
<title>26&#45;&gt;11</title>
<path fill="none" stroke="grey" stroke-width="2" d="M1316.39,-289.49C1319.29,-288.96 1322.17,-288.45 1325,-288 1518.1,-256.95 1750.07,-242.72 1855.23,-237.5"/>
<polygon fill="grey" stroke="grey" stroke-width="2" points="1855.49,-241 1865.31,-237.01 1855.15,-234 1855.49,-241"/>
</g>
<!-- 27&#45;&gt;11 -->
<g id="edge35" class="edge">
<title>27&#45;&gt;11</title>
<path fill="none" stroke="grey" stroke-width="2" d="M1462.01,-289.68C1465.05,-289.08 1468.05,-288.52 1471,-288 1608.06,-263.88 1771.04,-247.43 1855.28,-239.82"/>
<polygon fill="grey" stroke="grey" stroke-width="2" points="1855.76,-243.29 1865.41,-238.91 1855.13,-236.32 1855.76,-243.29"/>
</g>
<!-- 28&#45;&gt;11 -->
<g id="edge36" class="edge">
<title>28&#45;&gt;11</title>
<path fill="none" stroke="grey" stroke-width="2" d="M1608.1,-292.81C1677.93,-279.52 1788.56,-258.48 1855.32,-245.78"/>
<polygon fill="grey" stroke="grey" stroke-width="2" points="1856.08,-249.2 1865.25,-243.89 1854.77,-242.32 1856.08,-249.2"/>
</g>
<!-- 29&#45;&gt;11 -->
<g id="edge37" class="edge">
<title>29&#45;&gt;11</title>
<path fill="none" stroke="grey" stroke-width="2" d="M1801.72,-287.88C1821.5,-278.39 1846.27,-266.51 1867.33,-256.42"/>
<polygon fill="grey" stroke="grey" stroke-width="2" points="1868.9,-259.55 1876.4,-252.07 1865.87,-253.24 1868.9,-259.55"/>
</g>
<!-- 30&#45;&gt;11 -->
<g id="edge38" class="edge">
<title>30&#45;&gt;11</title>
<path fill="none" stroke="grey" stroke-width="2" d="M1912,-287.7C1912,-279.98 1912,-270.71 1912,-262.11"/>
<polygon fill="grey" stroke="grey" stroke-width="2" points="1915.5,-262.1 1912,-252.1 1908.5,-262.1 1915.5,-262.1"/>
</g>
<!-- 31&#45;&gt;11 -->
<g id="edge39" class="edge">
<title>31&#45;&gt;11</title>
<path fill="none" stroke="grey" stroke-width="2" d="M2022.28,-287.88C2002.5,-278.39 1977.73,-266.51 1956.67,-256.42"/>
<polygon fill="grey" stroke="grey" stroke-width="2" points="1958.13,-253.24 1947.6,-252.07 1955.1,-259.55 1958.13,-253.24"/>
</g>
<!-- 32&#45;&gt;11 -->
<g id="edge40" class="edge">
<title>32&#45;&gt;11</title>
<path fill="none" stroke="grey" stroke-width="2" d="M2139.92,-289.64C2088.72,-277.36 2017.64,-260.33 1968.54,-248.55"/>
<polygon fill="grey" stroke="grey" stroke-width="2" points="1969.26,-245.13 1958.71,-246.2 1967.62,-251.93 1969.26,-245.13"/>
</g>
<!-- 33&#45;&gt;11 -->
<g id="edge41" class="edge">
<title>33&#45;&gt;11</title>
<path fill="none" stroke="grey" stroke-width="2" d="M2285.97,-289.77C2282.94,-289.15 2279.94,-288.55 2277,-288 2168.6,-267.55 2040.8,-250.62 1968.8,-241.74"/>
<polygon fill="grey" stroke="grey" stroke-width="2" points="1968.94,-238.23 1958.59,-240.48 1968.09,-245.17 1968.94,-238.23"/>
</g>
<!-- 34&#45;&gt;11 -->
<g id="edge42" class="edge">
<title>34&#45;&gt;11</title>
<path fill="none" stroke="grey" stroke-width="2" d="M2432,-289.62C2428.96,-289.04 2425.95,-288.49 2423,-288 2259.36,-260.57 2063.72,-245.02 1968.99,-238.57"/>
<polygon fill="grey" stroke="grey" stroke-width="2" points="1968.98,-235.06 1958.76,-237.88 1968.51,-242.04 1968.98,-235.06"/>
</g>
<!-- 35&#45;&gt;1 -->
<g id="edge7" class="edge">
<title>35&#45;&gt;1</title>
<path fill="none" stroke="grey" stroke-width="2" d="M2939.81,-144.41C2906.09,-133.48 2862.03,-119.21 2827.96,-108.16"/>
<polygon fill="grey" stroke="grey" stroke-width="2" points="2828.77,-104.75 2818.18,-104.99 2826.61,-111.41 2828.77,-104.75"/>
</g>
</g>
</svg>
