<?xml version="1.0" encoding="UTF-8" standalone="no"?>
<!DOCTYPE svg PUBLIC "-//W3C//DTD SVG 1.1//EN"
 "http://www.w3.org/Graphics/SVG/1.1/DTD/svg11.dtd">
<!-- Generated by graphviz version 2.47.1 (20210418.0311)
 -->
<!-- Title: snakemake_dag Pages: 1 -->
<svg width="695pt" height="692pt"
 viewBox="0.00 0.00 695.27 692.00" xmlns="http://www.w3.org/2000/svg" xmlns:xlink="http://www.w3.org/1999/xlink">
<g id="graph0" class="graph" transform="scale(1 1) rotate(0) translate(4 688)">
<title>snakemake_dag</title>
<polygon fill="white" stroke="transparent" points="-4,4 -4,-688 691.27,-688 691.27,4 -4,4"/>
<!-- 0 -->
<g id="node1" class="node">
<title>0</title>
<path fill="none" stroke="#56d863" stroke-width="2" d="M263,-36C263,-36 233,-36 233,-36 227,-36 221,-30 221,-24 221,-24 221,-12 221,-12 221,-6 227,0 233,0 233,0 263,0 263,0 269,0 275,-6 275,-12 275,-12 275,-24 275,-24 275,-30 269,-36 263,-36"/>
<text text-anchor="middle" x="248" y="-15.5" font-family="sans" font-size="10.00">all</text>
</g>
<!-- 1 -->
<g id="node2" class="node">
<title>1</title>
<path fill="none" stroke="#d8a456" stroke-width="2" d="M279,-108C279,-108 217,-108 217,-108 211,-108 205,-102 205,-96 205,-96 205,-84 205,-84 205,-78 211,-72 217,-72 217,-72 279,-72 279,-72 285,-72 291,-78 291,-84 291,-84 291,-96 291,-96 291,-102 285,-108 279,-108"/>
<text text-anchor="middle" x="248" y="-87.5" font-family="sans" font-size="10.00">collect_output</text>
</g>
<!-- 1&#45;&gt;0 -->
<g id="edge1" class="edge">
<title>1&#45;&gt;0</title>
<path fill="none" stroke="grey" stroke-width="2" d="M248,-71.7C248,-63.98 248,-54.71 248,-46.11"/>
<polygon fill="grey" stroke="grey" stroke-width="2" points="251.5,-46.1 248,-36.1 244.5,-46.1 251.5,-46.1"/>
</g>
<!-- 2 -->
<g id="node3" class="node">
<title>2</title>
<path fill="none" stroke="#d8bc56" stroke-width="2" d="M85,-396C85,-396 25,-396 25,-396 19,-396 13,-390 13,-384 13,-384 13,-372 13,-372 13,-366 19,-360 25,-360 25,-360 85,-360 85,-360 91,-360 97,-366 97,-372 97,-372 97,-384 97,-384 97,-390 91,-396 85,-396"/>
<text text-anchor="middle" x="55" y="-375.5" font-family="sans" font-size="10.00">outrider_plots</text>
</g>
<!-- 2&#45;&gt;1 -->
<g id="edge6" class="edge">
<title>2&#45;&gt;1</title>
<path fill="none" stroke="grey" stroke-width="2" d="M50.05,-359.77C39.11,-317.71 17.69,-208.56 69,-144 98.74,-106.57 153.63,-94.68 194.82,-91.32"/>
<polygon fill="grey" stroke="grey" stroke-width="2" points="195.23,-94.8 204.97,-90.64 194.76,-87.82 195.23,-94.8"/>
</g>
<!-- 3 -->
<g id="node4" class="node">
<title>3</title>
<path fill="none" stroke="#56d8a9" stroke-width="2" d="M220.5,-468C220.5,-468 189.5,-468 189.5,-468 183.5,-468 177.5,-462 177.5,-456 177.5,-456 177.5,-444 177.5,-444 177.5,-438 183.5,-432 189.5,-432 189.5,-432 220.5,-432 220.5,-432 226.5,-432 232.5,-438 232.5,-444 232.5,-444 232.5,-456 232.5,-456 232.5,-462 226.5,-468 220.5,-468"/>
<text text-anchor="middle" x="205" y="-447.5" font-family="sans" font-size="10.00">outrider</text>
</g>
<!-- 3&#45;&gt;1 -->
<g id="edge4" class="edge">
<title>3&#45;&gt;1</title>
<path fill="none" stroke="grey" stroke-width="2" d="M200.94,-431.93C198.69,-421.6 196.13,-408.12 195,-396 193.51,-380.07 194.12,-375.98 195,-360 199.99,-269.9 226.66,-165.71 240.16,-117.73"/>
<polygon fill="grey" stroke="grey" stroke-width="2" points="243.53,-118.67 242.9,-108.1 236.8,-116.75 243.53,-118.67"/>
</g>
<!-- 3&#45;&gt;2 -->
<g id="edge9" class="edge">
<title>3&#45;&gt;2</title>
<path fill="none" stroke="grey" stroke-width="2" d="M177.49,-436.16C156.11,-426.19 126,-412.13 100.98,-400.46"/>
<polygon fill="grey" stroke="grey" stroke-width="2" points="102.21,-397.17 91.67,-396.11 99.25,-403.51 102.21,-397.17"/>
</g>
<!-- 8 -->
<g id="node9" class="node">
<title>8</title>
<path fill="none" stroke="#56d8c9" stroke-width="2" d="M427,-396C427,-396 363,-396 363,-396 357,-396 351,-390 351,-384 351,-384 351,-372 351,-372 351,-366 357,-360 363,-360 363,-360 427,-360 427,-360 433,-360 439,-366 439,-372 439,-372 439,-384 439,-384 439,-390 433,-396 427,-396"/>
<text text-anchor="middle" x="395" y="-375.5" font-family="sans" font-size="10.00">outliers_genes</text>
</g>
<!-- 3&#45;&gt;8 -->
<g id="edge13" class="edge">
<title>3&#45;&gt;8</title>
<path fill="none" stroke="grey" stroke-width="2" d="M232.63,-438.82C260.94,-428.39 305.72,-411.89 341.08,-398.87"/>
<polygon fill="grey" stroke="grey" stroke-width="2" points="342.61,-402.03 350.78,-395.29 340.19,-395.46 342.61,-402.03"/>
</g>
<!-- 9 -->
<g id="node10" class="node">
<title>9</title>
<path fill="none" stroke="#56a2d8" stroke-width="2" d="M331,-324C331,-324 245,-324 245,-324 239,-324 233,-318 233,-312 233,-312 233,-300 233,-300 233,-294 239,-288 245,-288 245,-288 331,-288 331,-288 337,-288 343,-294 343,-300 343,-300 343,-312 343,-312 343,-318 337,-324 331,-324"/>
<text text-anchor="middle" x="288" y="-303.5" font-family="sans" font-size="10.00">compare_literature</text>
</g>
<!-- 3&#45;&gt;9 -->
<g id="edge15" class="edge">
<title>3&#45;&gt;9</title>
<path fill="none" stroke="grey" stroke-width="2" d="M215.01,-431.87C229.41,-407.24 256.06,-361.64 272.87,-332.88"/>
<polygon fill="grey" stroke="grey" stroke-width="2" points="275.93,-334.59 277.95,-324.19 269.88,-331.06 275.93,-334.59"/>
</g>
<!-- 11 -->
<g id="node12" class="node">
<title>11</title>
<path fill="none" stroke="#d8d356" stroke-width="2" d="M479,-180C479,-180 415,-180 415,-180 409,-180 403,-174 403,-168 403,-168 403,-156 403,-156 403,-150 409,-144 415,-144 415,-144 479,-144 479,-144 485,-144 491,-150 491,-156 491,-156 491,-168 491,-168 491,-174 485,-180 479,-180"/>
<text text-anchor="middle" x="447" y="-159.5" font-family="sans" font-size="10.00">variant_outlier</text>
</g>
<!-- 3&#45;&gt;11 -->
<g id="edge20" class="edge">
<title>3&#45;&gt;11</title>
<path fill="none" stroke="grey" stroke-width="2" d="M202.28,-431.78C198.27,-400.33 194.15,-332.71 224,-288 263.36,-229.05 340.4,-195 392.79,-177.73"/>
<polygon fill="grey" stroke="grey" stroke-width="2" points="394.13,-180.97 402.59,-174.6 392,-174.31 394.13,-180.97"/>
</g>
<!-- 13 -->
<g id="node14" class="node">
<title>13</title>
<path fill="none" stroke="#56d892" stroke-width="2" d="M591,-324C591,-324 487,-324 487,-324 481,-324 475,-318 475,-312 475,-312 475,-300 475,-300 475,-294 481,-288 487,-288 487,-288 591,-288 591,-288 597,-288 603,-294 603,-300 603,-300 603,-312 603,-312 603,-318 597,-324 591,-324"/>
<text text-anchor="middle" x="539" y="-303.5" font-family="sans" font-size="10.00">prioritize_vep_variants</text>
</g>
<!-- 3&#45;&gt;13 -->
<g id="edge26" class="edge">
<title>3&#45;&gt;13</title>
<path fill="none" stroke="grey" stroke-width="2" d="M232.58,-447.9C279.51,-444.99 376.74,-434.42 448,-396 477.06,-380.33 503.2,-352.63 519.93,-332.29"/>
<polygon fill="grey" stroke="grey" stroke-width="2" points="522.77,-334.34 526.29,-324.35 517.3,-329.96 522.77,-334.34"/>
</g>
<!-- 16 -->
<g id="node17" class="node">
<title>16</title>
<path fill="none" stroke="#78d856" stroke-width="2" d="M168,-180C168,-180 90,-180 90,-180 84,-180 78,-174 78,-168 78,-168 78,-156 78,-156 78,-150 84,-144 90,-144 90,-144 168,-144 168,-144 174,-144 180,-150 180,-156 180,-156 180,-168 180,-168 180,-174 174,-180 168,-180"/>
<text text-anchor="middle" x="129" y="-159.5" font-family="sans" font-size="10.00">network_analysis</text>
</g>
<!-- 3&#45;&gt;16 -->
<g id="edge27" class="edge">
<title>3&#45;&gt;16</title>
<path fill="none" stroke="grey" stroke-width="2" d="M182.14,-431.87C171.42,-422.52 159.58,-410 153,-396 120.81,-327.49 122.74,-235.41 126.2,-190.27"/>
<polygon fill="grey" stroke="grey" stroke-width="2" points="129.7,-190.36 127.06,-180.1 122.73,-189.77 129.7,-190.36"/>
</g>
<!-- 4 -->
<g id="node5" class="node">
<title>4</title>
<path fill="none" stroke="#56d87b" stroke-width="2" d="M251,-540C251,-540 159,-540 159,-540 153,-540 147,-534 147,-528 147,-528 147,-516 147,-516 147,-510 153,-504 159,-504 159,-504 251,-504 251,-504 257,-504 263,-510 263,-516 263,-516 263,-528 263,-528 263,-534 257,-540 251,-540"/>
<text text-anchor="middle" x="205" y="-519.5" font-family="sans" font-size="10.00">outrider_dim_search</text>
</g>
<!-- 4&#45;&gt;3 -->
<g id="edge10" class="edge">
<title>4&#45;&gt;3</title>
<path fill="none" stroke="grey" stroke-width="2" d="M205,-503.7C205,-495.98 205,-486.71 205,-478.11"/>
<polygon fill="grey" stroke="grey" stroke-width="2" points="208.5,-478.1 205,-468.1 201.5,-478.1 208.5,-478.1"/>
</g>
<!-- 5 -->
<g id="node6" class="node">
<title>5</title>
<path fill="none" stroke="#97d856" stroke-width="2" d="M231.5,-612C231.5,-612 178.5,-612 178.5,-612 172.5,-612 166.5,-606 166.5,-600 166.5,-600 166.5,-588 166.5,-588 166.5,-582 172.5,-576 178.5,-576 178.5,-576 231.5,-576 231.5,-576 237.5,-576 243.5,-582 243.5,-588 243.5,-588 243.5,-600 243.5,-600 243.5,-606 237.5,-612 231.5,-612"/>
<text text-anchor="middle" x="205" y="-591.5" font-family="sans" font-size="10.00">filter_counts</text>
</g>
<!-- 5&#45;&gt;4 -->
<g id="edge11" class="edge">
<title>5&#45;&gt;4</title>
<path fill="none" stroke="grey" stroke-width="2" d="M205,-575.7C205,-567.98 205,-558.71 205,-550.11"/>
<polygon fill="grey" stroke="grey" stroke-width="2" points="208.5,-550.1 205,-540.1 201.5,-550.1 208.5,-550.1"/>
</g>
<!-- 6 -->
<g id="node7" class="node">
<title>6</title>
<path fill="none" stroke="#5673d8" stroke-width="2" d="M250.5,-684C250.5,-684 159.5,-684 159.5,-684 153.5,-684 147.5,-678 147.5,-672 147.5,-672 147.5,-660 147.5,-660 147.5,-654 153.5,-648 159.5,-648 159.5,-648 250.5,-648 250.5,-648 256.5,-648 262.5,-654 262.5,-660 262.5,-660 262.5,-672 262.5,-672 262.5,-678 256.5,-684 250.5,-684"/>
<text text-anchor="middle" x="205" y="-663.5" font-family="sans" font-size="10.00">merge_gene_counts</text>
</g>
<!-- 6&#45;&gt;5 -->
<g id="edge12" class="edge">
<title>6&#45;&gt;5</title>
<path fill="none" stroke="grey" stroke-width="2" d="M205,-647.7C205,-639.98 205,-630.71 205,-622.11"/>
<polygon fill="grey" stroke="grey" stroke-width="2" points="208.5,-622.1 205,-612.1 201.5,-622.1 208.5,-622.1"/>
</g>
<!-- 7 -->
<g id="node8" class="node">
<title>7</title>
<path fill="none" stroke="#afd856" stroke-width="2" d="M98,-468C98,-468 12,-468 12,-468 6,-468 0,-462 0,-456 0,-456 0,-444 0,-444 0,-438 6,-432 12,-432 12,-432 98,-432 98,-432 104,-432 110,-438 110,-444 110,-444 110,-456 110,-456 110,-462 104,-468 98,-468"/>
<text text-anchor="middle" x="55" y="-447.5" font-family="sans" font-size="10.00">sample_annotation</text>
</g>
<!-- 7&#45;&gt;2 -->
<g id="edge8" class="edge">
<title>7&#45;&gt;2</title>
<path fill="none" stroke="grey" stroke-width="2" d="M55,-431.7C55,-423.98 55,-414.71 55,-406.11"/>
<polygon fill="grey" stroke="grey" stroke-width="2" points="58.5,-406.1 55,-396.1 51.5,-406.1 58.5,-406.1"/>
</g>
<!-- 8&#45;&gt;1 -->
<g id="edge5" class="edge">
<title>8&#45;&gt;1</title>
<path fill="none" stroke="grey" stroke-width="2" d="M386.94,-359.85C378.43,-341.86 364.54,-312.81 352,-288 320.86,-226.37 282.57,-154.88 262.25,-117.26"/>
<polygon fill="grey" stroke="grey" stroke-width="2" points="265.08,-115.15 257.25,-108.02 258.93,-118.48 265.08,-115.15"/>
</g>
<!-- 8&#45;&gt;9 -->
<g id="edge14" class="edge">
<title>8&#45;&gt;9</title>
<path fill="none" stroke="grey" stroke-width="2" d="M368.82,-359.88C354.96,-350.81 337.76,-339.55 322.79,-329.76"/>
<polygon fill="grey" stroke="grey" stroke-width="2" points="324.56,-326.74 314.28,-324.19 320.73,-332.59 324.56,-326.74"/>
</g>
<!-- 8&#45;&gt;11 -->
<g id="edge21" class="edge">
<title>8&#45;&gt;11</title>
<path fill="none" stroke="grey" stroke-width="2" d="M405.89,-359.99C411.85,-349.91 418.85,-336.66 423,-324 437.88,-278.65 443.57,-223.05 445.72,-190.48"/>
<polygon fill="grey" stroke="grey" stroke-width="2" points="449.22,-190.55 446.33,-180.36 442.24,-190.13 449.22,-190.55"/>
</g>
<!-- 8&#45;&gt;13 -->
<g id="edge24" class="edge">
<title>8&#45;&gt;13</title>
<path fill="none" stroke="grey" stroke-width="2" d="M430.23,-359.88C449.58,-350.47 473.77,-338.71 494.43,-328.67"/>
<polygon fill="grey" stroke="grey" stroke-width="2" points="496.17,-331.71 503.64,-324.19 493.11,-325.41 496.17,-331.71"/>
</g>
<!-- 9&#45;&gt;1 -->
<g id="edge3" class="edge">
<title>9&#45;&gt;1</title>
<path fill="none" stroke="grey" stroke-width="2" d="M284.79,-287.85C277.86,-250.75 261.42,-162.81 253.07,-118.1"/>
<polygon fill="grey" stroke="grey" stroke-width="2" points="256.5,-117.42 251.22,-108.23 249.62,-118.71 256.5,-117.42"/>
</g>
<!-- 10 -->
<g id="node11" class="node">
<title>10</title>
<path fill="none" stroke="#d88556" stroke-width="2" d="M321,-396C321,-396 283,-396 283,-396 277,-396 271,-390 271,-384 271,-384 271,-372 271,-372 271,-366 277,-360 283,-360 283,-360 321,-360 321,-360 327,-360 333,-366 333,-372 333,-372 333,-384 333,-384 333,-390 327,-396 321,-396"/>
<text text-anchor="middle" x="302" y="-375.5" font-family="sans" font-size="10.00">literature</text>
</g>
<!-- 10&#45;&gt;9 -->
<g id="edge16" class="edge">
<title>10&#45;&gt;9</title>
<path fill="none" stroke="grey" stroke-width="2" d="M298.54,-359.7C297,-351.98 295.14,-342.71 293.42,-334.11"/>
<polygon fill="grey" stroke="grey" stroke-width="2" points="296.81,-333.22 291.42,-324.1 289.95,-334.6 296.81,-333.22"/>
</g>
<!-- 10&#45;&gt;11 -->
<g id="edge18" class="edge">
<title>10&#45;&gt;11</title>
<path fill="none" stroke="grey" stroke-width="2" d="M320.18,-359.73C330.16,-349.78 342.42,-336.74 352,-324 385.55,-279.38 416.91,-222.03 433.87,-189.2"/>
<polygon fill="grey" stroke="grey" stroke-width="2" points="437.02,-190.73 438.46,-180.24 430.79,-187.54 437.02,-190.73"/>
</g>
<!-- 11&#45;&gt;1 -->
<g id="edge7" class="edge">
<title>11&#45;&gt;1</title>
<path fill="none" stroke="grey" stroke-width="2" d="M402.84,-145.46C372.64,-134.84 332.47,-120.71 300.61,-109.51"/>
<polygon fill="grey" stroke="grey" stroke-width="2" points="301.61,-106.15 291.02,-106.13 299.29,-112.75 301.61,-106.15"/>
</g>
<!-- 12 -->
<g id="node13" class="node">
<title>12</title>
<path fill="none" stroke="#61d856" stroke-width="2" d="M556.5,-252C556.5,-252 487.5,-252 487.5,-252 481.5,-252 475.5,-246 475.5,-240 475.5,-240 475.5,-228 475.5,-228 475.5,-222 481.5,-216 487.5,-216 487.5,-216 556.5,-216 556.5,-216 562.5,-216 568.5,-222 568.5,-228 568.5,-228 568.5,-240 568.5,-240 568.5,-246 562.5,-252 556.5,-252"/>
<text text-anchor="middle" x="522" y="-231.5" font-family="sans" font-size="10.00">merge_variants</text>
</g>
<!-- 12&#45;&gt;11 -->
<g id="edge22" class="edge">
<title>12&#45;&gt;11</title>
<path fill="none" stroke="grey" stroke-width="2" d="M503.46,-215.7C494.2,-207.05 482.84,-196.45 472.74,-187.03"/>
<polygon fill="grey" stroke="grey" stroke-width="2" points="475.02,-184.37 465.33,-180.1 470.25,-189.49 475.02,-184.37"/>
</g>
<!-- 13&#45;&gt;12 -->
<g id="edge23" class="edge">
<title>13&#45;&gt;12</title>
<path fill="none" stroke="grey" stroke-width="2" d="M534.8,-287.7C532.9,-279.9 530.62,-270.51 528.52,-261.83"/>
<polygon fill="grey" stroke="grey" stroke-width="2" points="531.92,-261 526.15,-252.1 525.11,-262.65 531.92,-261"/>
</g>
<!-- 14 -->
<g id="node15" class="node">
<title>14</title>
<path fill="none" stroke="#d86e56" stroke-width="2" d="M589.5,-396C589.5,-396 548.5,-396 548.5,-396 542.5,-396 536.5,-390 536.5,-384 536.5,-384 536.5,-372 536.5,-372 536.5,-366 542.5,-360 548.5,-360 548.5,-360 589.5,-360 589.5,-360 595.5,-360 601.5,-366 601.5,-372 601.5,-372 601.5,-384 601.5,-384 601.5,-390 595.5,-396 589.5,-396"/>
<text text-anchor="middle" x="569" y="-375.5" font-family="sans" font-size="10.00">mmsplice</text>
</g>
<!-- 14&#45;&gt;11 -->
<g id="edge17" class="edge">
<title>14&#45;&gt;11</title>
<path fill="none" stroke="grey" stroke-width="2" d="M595.26,-359.89C638.34,-329.74 715.47,-265.65 676,-216 654.57,-189.05 561.9,-174.6 501.21,-167.88"/>
<polygon fill="grey" stroke="grey" stroke-width="2" points="501.34,-164.38 491.02,-166.79 500.59,-171.34 501.34,-164.38"/>
</g>
<!-- 14&#45;&gt;13 -->
<g id="edge25" class="edge">
<title>14&#45;&gt;13</title>
<path fill="none" stroke="grey" stroke-width="2" d="M561.58,-359.7C558.21,-351.81 554.13,-342.3 550.38,-333.55"/>
<polygon fill="grey" stroke="grey" stroke-width="2" points="553.49,-331.92 546.33,-324.1 547.05,-334.67 553.49,-331.92"/>
</g>
<!-- 15 -->
<g id="node16" class="node">
<title>15</title>
<path fill="none" stroke="#568ad8" stroke-width="2" d="M655,-252C655,-252 599,-252 599,-252 593,-252 587,-246 587,-240 587,-240 587,-228 587,-228 587,-222 593,-216 599,-216 599,-216 655,-216 655,-216 661,-216 667,-222 667,-228 667,-228 667,-240 667,-240 667,-246 661,-252 655,-252"/>
<text text-anchor="middle" x="627" y="-231.5" font-family="sans" font-size="10.00">parse_ALSoD</text>
</g>
<!-- 15&#45;&gt;11 -->
<g id="edge19" class="edge">
<title>15&#45;&gt;11</title>
<path fill="none" stroke="grey" stroke-width="2" d="M586.6,-217.29C561.11,-207.37 527.88,-194.45 500.24,-183.71"/>
<polygon fill="grey" stroke="grey" stroke-width="2" points="501.31,-180.37 490.72,-180 498.77,-186.89 501.31,-180.37"/>
</g>
<!-- 16&#45;&gt;1 -->
<g id="edge2" class="edge">
<title>16&#45;&gt;1</title>
<path fill="none" stroke="grey" stroke-width="2" d="M158.11,-143.88C173.67,-134.72 193.02,-123.34 209.78,-113.48"/>
<polygon fill="grey" stroke="grey" stroke-width="2" points="211.93,-116.28 218.78,-108.19 208.38,-110.24 211.93,-116.28"/>
</g>
</g>
</svg>
