<?xml version="1.0" encoding="UTF-8" standalone="no"?>
<!DOCTYPE svg PUBLIC "-//W3C//DTD SVG 1.1//EN"
 "http://www.w3.org/Graphics/SVG/1.1/DTD/svg11.dtd">
<!-- Generated by graphviz version 2.47.1 (20210418.0311)
 -->
<!-- Title: snakemake_dag Pages: 1 -->
<svg width="594pt" height="692pt"
 viewBox="0.00 0.00 594.00 692.00" xmlns="http://www.w3.org/2000/svg" xmlns:xlink="http://www.w3.org/1999/xlink">
<g id="graph0" class="graph" transform="scale(1 1) rotate(0) translate(4 688)">
<title>snakemake_dag</title>
<polygon fill="white" stroke="transparent" points="-4,4 -4,-688 590,-688 590,4 -4,4"/>
<!-- 0 -->
<g id="node1" class="node">
<title>0</title>
<path fill="none" stroke="#d86e56" stroke-width="2" d="M353,-36C353,-36 323,-36 323,-36 317,-36 311,-30 311,-24 311,-24 311,-12 311,-12 311,-6 317,0 323,0 323,0 353,0 353,0 359,0 365,-6 365,-12 365,-12 365,-24 365,-24 365,-30 359,-36 353,-36"/>
<text text-anchor="middle" x="338" y="-15.5" font-family="sans" font-size="10.00">all</text>
</g>
<!-- 1 -->
<g id="node2" class="node">
<title>1</title>
<path fill="none" stroke="#78d856" stroke-width="2" d="M369,-108C369,-108 307,-108 307,-108 301,-108 295,-102 295,-96 295,-96 295,-84 295,-84 295,-78 301,-72 307,-72 307,-72 369,-72 369,-72 375,-72 381,-78 381,-84 381,-84 381,-96 381,-96 381,-102 375,-108 369,-108"/>
<text text-anchor="middle" x="338" y="-87.5" font-family="sans" font-size="10.00">collect_output</text>
</g>
<!-- 1&#45;&gt;0 -->
<g id="edge1" class="edge">
<title>1&#45;&gt;0</title>
<path fill="none" stroke="grey" stroke-width="2" d="M338,-71.7C338,-63.98 338,-54.71 338,-46.11"/>
<polygon fill="grey" stroke="grey" stroke-width="2" points="341.5,-46.1 338,-36.1 334.5,-46.1 341.5,-46.1"/>
</g>
<!-- 2 -->
<g id="node3" class="node">
<title>2</title>
<path fill="none" stroke="#56a2d8" stroke-width="2" d="M574,-252C574,-252 514,-252 514,-252 508,-252 502,-246 502,-240 502,-240 502,-228 502,-228 502,-222 508,-216 514,-216 514,-216 574,-216 574,-216 580,-216 586,-222 586,-228 586,-228 586,-240 586,-240 586,-246 580,-252 574,-252"/>
<text text-anchor="middle" x="544" y="-231.5" font-family="sans" font-size="10.00">outrider_plots</text>
</g>
<!-- 2&#45;&gt;1 -->
<g id="edge4" class="edge">
<title>2&#45;&gt;1</title>
<path fill="none" stroke="grey" stroke-width="2" d="M537.34,-215.82C528.78,-195.88 512.1,-163.27 488,-144 459.97,-121.59 421.75,-108.28 390.91,-100.6"/>
<polygon fill="grey" stroke="grey" stroke-width="2" points="391.71,-97.19 381.17,-98.3 390.1,-104 391.71,-97.19"/>
</g>
<!-- 3 -->
<g id="node4" class="node">
<title>3</title>
<path fill="none" stroke="#568ad8" stroke-width="2" d="M413.5,-468C413.5,-468 382.5,-468 382.5,-468 376.5,-468 370.5,-462 370.5,-456 370.5,-456 370.5,-444 370.5,-444 370.5,-438 376.5,-432 382.5,-432 382.5,-432 413.5,-432 413.5,-432 419.5,-432 425.5,-438 425.5,-444 425.5,-444 425.5,-456 425.5,-456 425.5,-462 419.5,-468 413.5,-468"/>
<text text-anchor="middle" x="398" y="-447.5" font-family="sans" font-size="10.00">outrider</text>
</g>
<!-- 3&#45;&gt;1 -->
<g id="edge7" class="edge">
<title>3&#45;&gt;1</title>
<path fill="none" stroke="grey" stroke-width="2" d="M414.49,-431.77C436.84,-406.53 474,-357.05 474,-307 474,-307 474,-307 474,-233 474,-192.55 480.37,-175.5 455,-144 438.91,-124.01 413.65,-111.29 390.71,-103.33"/>
<polygon fill="grey" stroke="grey" stroke-width="2" points="391.64,-99.96 381.05,-100.21 389.49,-106.62 391.64,-99.96"/>
</g>
<!-- 3&#45;&gt;2 -->
<g id="edge8" class="edge">
<title>3&#45;&gt;2</title>
<path fill="none" stroke="grey" stroke-width="2" d="M425.52,-438.86C445.41,-430.24 471.56,-416.05 488,-396 520.42,-356.45 534.59,-296.94 540.37,-262.43"/>
<polygon fill="grey" stroke="grey" stroke-width="2" points="543.89,-262.58 541.97,-252.16 536.97,-261.51 543.89,-262.58"/>
</g>
<!-- 7 -->
<g id="node8" class="node">
<title>7</title>
<path fill="none" stroke="#56d8a9" stroke-width="2" d="M246,-396C246,-396 182,-396 182,-396 176,-396 170,-390 170,-384 170,-384 170,-372 170,-372 170,-366 176,-360 182,-360 182,-360 246,-360 246,-360 252,-360 258,-366 258,-372 258,-372 258,-384 258,-384 258,-390 252,-396 246,-396"/>
<text text-anchor="middle" x="214" y="-375.5" font-family="sans" font-size="10.00">outliers_genes</text>
</g>
<!-- 3&#45;&gt;7 -->
<g id="edge12" class="edge">
<title>3&#45;&gt;7</title>
<path fill="none" stroke="grey" stroke-width="2" d="M370.45,-438.52C343.44,-428.25 301.54,-412.3 267.9,-399.5"/>
<polygon fill="grey" stroke="grey" stroke-width="2" points="268.79,-396.1 258.2,-395.81 266.3,-402.64 268.79,-396.1"/>
</g>
<!-- 8 -->
<g id="node9" class="node">
<title>8</title>
<path fill="none" stroke="#5673d8" stroke-width="2" d="M98,-324C98,-324 12,-324 12,-324 6,-324 0,-318 0,-312 0,-312 0,-300 0,-300 0,-294 6,-288 12,-288 12,-288 98,-288 98,-288 104,-288 110,-294 110,-300 110,-300 110,-312 110,-312 110,-318 104,-324 98,-324"/>
<text text-anchor="middle" x="55" y="-303.5" font-family="sans" font-size="10.00">compare_literature</text>
</g>
<!-- 3&#45;&gt;8 -->
<g id="edge14" class="edge">
<title>3&#45;&gt;8</title>
<path fill="none" stroke="grey" stroke-width="2" d="M370.39,-448.14C300.99,-445.4 121.7,-434.68 79,-396 61.91,-380.52 56.45,-354.27 54.95,-334.27"/>
<polygon fill="grey" stroke="grey" stroke-width="2" points="58.44,-334.03 54.48,-324.2 51.45,-334.35 58.44,-334.03"/>
</g>
<!-- 10 -->
<g id="node11" class="node">
<title>10</title>
<path fill="none" stroke="#56d863" stroke-width="2" d="M314,-180C314,-180 250,-180 250,-180 244,-180 238,-174 238,-168 238,-168 238,-156 238,-156 238,-150 244,-144 250,-144 250,-144 314,-144 314,-144 320,-144 326,-150 326,-156 326,-156 326,-168 326,-168 326,-174 320,-180 314,-180"/>
<text text-anchor="middle" x="282" y="-159.5" font-family="sans" font-size="10.00">variant_outlier</text>
</g>
<!-- 3&#45;&gt;10 -->
<g id="edge17" class="edge">
<title>3&#45;&gt;10</title>
<path fill="none" stroke="grey" stroke-width="2" d="M399.42,-431.81C401.92,-390.33 402.81,-283.18 353,-216 344.37,-204.37 332.49,-194.12 320.91,-185.82"/>
<polygon fill="grey" stroke="grey" stroke-width="2" points="322.81,-182.88 312.58,-180.12 318.86,-188.66 322.81,-182.88"/>
</g>
<!-- 12 -->
<g id="node13" class="node">
<title>12</title>
<path fill="none" stroke="#afd856" stroke-width="2" d="M358,-324C358,-324 254,-324 254,-324 248,-324 242,-318 242,-312 242,-312 242,-300 242,-300 242,-294 248,-288 254,-288 254,-288 358,-288 358,-288 364,-288 370,-294 370,-300 370,-300 370,-312 370,-312 370,-318 364,-324 358,-324"/>
<text text-anchor="middle" x="306" y="-303.5" font-family="sans" font-size="10.00">prioritize_vep_variants</text>
</g>
<!-- 3&#45;&gt;12 -->
<g id="edge21" class="edge">
<title>3&#45;&gt;12</title>
<path fill="none" stroke="grey" stroke-width="2" d="M386.9,-431.87C370.95,-407.24 341.4,-361.64 322.77,-332.88"/>
<polygon fill="grey" stroke="grey" stroke-width="2" points="325.51,-330.68 317.14,-324.19 319.64,-334.48 325.51,-330.68"/>
</g>
<!-- 13 -->
<g id="node14" class="node">
<title>13</title>
<path fill="none" stroke="#56d87b" stroke-width="2" d="M434,-180C434,-180 356,-180 356,-180 350,-180 344,-174 344,-168 344,-168 344,-156 344,-156 344,-150 350,-144 356,-144 356,-144 434,-144 434,-144 440,-144 446,-150 446,-156 446,-156 446,-168 446,-168 446,-174 440,-180 434,-180"/>
<text text-anchor="middle" x="395" y="-159.5" font-family="sans" font-size="10.00">network_analysis</text>
</g>
<!-- 3&#45;&gt;13 -->
<g id="edge23" class="edge">
<title>3&#45;&gt;13</title>
<path fill="none" stroke="grey" stroke-width="2" d="M403.82,-431.56C406.93,-421.33 410.43,-408.08 412,-396 422.3,-316.67 424.37,-295.04 412,-216 410.64,-207.31 408.1,-198.1 405.39,-189.84"/>
<polygon fill="grey" stroke="grey" stroke-width="2" points="408.67,-188.62 402.07,-180.33 402.06,-190.93 408.67,-188.62"/>
</g>
<!-- 4 -->
<g id="node5" class="node">
<title>4</title>
<path fill="none" stroke="#97d856" stroke-width="2" d="M444,-540C444,-540 352,-540 352,-540 346,-540 340,-534 340,-528 340,-528 340,-516 340,-516 340,-510 346,-504 352,-504 352,-504 444,-504 444,-504 450,-504 456,-510 456,-516 456,-516 456,-528 456,-528 456,-534 450,-540 444,-540"/>
<text text-anchor="middle" x="398" y="-519.5" font-family="sans" font-size="10.00">outrider_dim_search</text>
</g>
<!-- 4&#45;&gt;3 -->
<g id="edge9" class="edge">
<title>4&#45;&gt;3</title>
<path fill="none" stroke="grey" stroke-width="2" d="M398,-503.7C398,-495.98 398,-486.71 398,-478.11"/>
<polygon fill="grey" stroke="grey" stroke-width="2" points="401.5,-478.1 398,-468.1 394.5,-478.1 401.5,-478.1"/>
</g>
<!-- 5 -->
<g id="node6" class="node">
<title>5</title>
<path fill="none" stroke="#d88556" stroke-width="2" d="M424.5,-612C424.5,-612 371.5,-612 371.5,-612 365.5,-612 359.5,-606 359.5,-600 359.5,-600 359.5,-588 359.5,-588 359.5,-582 365.5,-576 371.5,-576 371.5,-576 424.5,-576 424.5,-576 430.5,-576 436.5,-582 436.5,-588 436.5,-588 436.5,-600 436.5,-600 436.5,-606 430.5,-612 424.5,-612"/>
<text text-anchor="middle" x="398" y="-591.5" font-family="sans" font-size="10.00">filter_counts</text>
</g>
<!-- 5&#45;&gt;4 -->
<g id="edge10" class="edge">
<title>5&#45;&gt;4</title>
<path fill="none" stroke="grey" stroke-width="2" d="M398,-575.7C398,-567.98 398,-558.71 398,-550.11"/>
<polygon fill="grey" stroke="grey" stroke-width="2" points="401.5,-550.1 398,-540.1 394.5,-550.1 401.5,-550.1"/>
</g>
<!-- 6 -->
<g id="node7" class="node">
<title>6</title>
<path fill="none" stroke="#c6d856" stroke-width="2" d="M443.5,-684C443.5,-684 352.5,-684 352.5,-684 346.5,-684 340.5,-678 340.5,-672 340.5,-672 340.5,-660 340.5,-660 340.5,-654 346.5,-648 352.5,-648 352.5,-648 443.5,-648 443.5,-648 449.5,-648 455.5,-654 455.5,-660 455.5,-660 455.5,-672 455.5,-672 455.5,-678 449.5,-684 443.5,-684"/>
<text text-anchor="middle" x="398" y="-663.5" font-family="sans" font-size="10.00">merge_gene_counts</text>
</g>
<!-- 6&#45;&gt;5 -->
<g id="edge11" class="edge">
<title>6&#45;&gt;5</title>
<path fill="none" stroke="grey" stroke-width="2" d="M398,-647.7C398,-639.98 398,-630.71 398,-622.11"/>
<polygon fill="grey" stroke="grey" stroke-width="2" points="401.5,-622.1 398,-612.1 394.5,-622.1 401.5,-622.1"/>
</g>
<!-- 7&#45;&gt;1 -->
<g id="edge3" class="edge">
<title>7&#45;&gt;1</title>
<path fill="none" stroke="grey" stroke-width="2" d="M209.59,-359.84C200.02,-318.42 181.79,-211.4 229,-144 242.35,-124.94 264.5,-112.46 285.36,-104.43"/>
<polygon fill="grey" stroke="grey" stroke-width="2" points="286.58,-107.71 294.81,-101.05 284.22,-101.12 286.58,-107.71"/>
</g>
<!-- 7&#45;&gt;8 -->
<g id="edge15" class="edge">
<title>7&#45;&gt;8</title>
<path fill="none" stroke="grey" stroke-width="2" d="M175.1,-359.88C153.37,-350.31 126.1,-338.3 103.04,-328.15"/>
<polygon fill="grey" stroke="grey" stroke-width="2" points="104.33,-324.89 93.77,-324.07 101.51,-331.3 104.33,-324.89"/>
</g>
<!-- 7&#45;&gt;10 -->
<g id="edge18" class="edge">
<title>7&#45;&gt;10</title>
<path fill="none" stroke="grey" stroke-width="2" d="M214.36,-359.8C215.57,-329.5 220.66,-265.19 242,-216 246.27,-206.16 252.71,-196.48 259.19,-188.14"/>
<polygon fill="grey" stroke="grey" stroke-width="2" points="261.99,-190.24 265.6,-180.28 256.57,-185.82 261.99,-190.24"/>
</g>
<!-- 7&#45;&gt;12 -->
<g id="edge22" class="edge">
<title>7&#45;&gt;12</title>
<path fill="none" stroke="grey" stroke-width="2" d="M236.74,-359.7C248.44,-350.8 262.86,-339.82 275.51,-330.2"/>
<polygon fill="grey" stroke="grey" stroke-width="2" points="277.68,-332.94 283.52,-324.1 273.44,-327.37 277.68,-332.94"/>
</g>
<!-- 8&#45;&gt;1 -->
<g id="edge6" class="edge">
<title>8&#45;&gt;1</title>
<path fill="none" stroke="grey" stroke-width="2" d="M57.27,-287.97C62.6,-254.96 79.04,-182.2 124,-144 168.97,-105.79 237.4,-94.38 284.72,-91.35"/>
<polygon fill="grey" stroke="grey" stroke-width="2" points="284.98,-94.84 294.77,-90.81 284.6,-87.85 284.98,-94.84"/>
</g>
<!-- 9 -->
<g id="node10" class="node">
<title>9</title>
<path fill="none" stroke="#d8bc56" stroke-width="2" d="M138,-396C138,-396 100,-396 100,-396 94,-396 88,-390 88,-384 88,-384 88,-372 88,-372 88,-366 94,-360 100,-360 100,-360 138,-360 138,-360 144,-360 150,-366 150,-372 150,-372 150,-384 150,-384 150,-390 144,-396 138,-396"/>
<text text-anchor="middle" x="119" y="-375.5" font-family="sans" font-size="10.00">literature</text>
</g>
<!-- 9&#45;&gt;8 -->
<g id="edge13" class="edge">
<title>9&#45;&gt;8</title>
<path fill="none" stroke="grey" stroke-width="2" d="M103.18,-359.7C95.43,-351.22 85.96,-340.86 77.48,-331.58"/>
<polygon fill="grey" stroke="grey" stroke-width="2" points="79.97,-329.12 70.64,-324.1 74.8,-333.85 79.97,-329.12"/>
</g>
<!-- 9&#45;&gt;10 -->
<g id="edge16" class="edge">
<title>9&#45;&gt;10</title>
<path fill="none" stroke="grey" stroke-width="2" d="M128.93,-359.71C146.75,-329.28 186.15,-264.76 227,-216 235.38,-205.99 245.45,-195.85 254.67,-187.15"/>
<polygon fill="grey" stroke="grey" stroke-width="2" points="257.2,-189.58 262.16,-180.21 252.44,-184.44 257.2,-189.58"/>
</g>
<!-- 10&#45;&gt;1 -->
<g id="edge2" class="edge">
<title>10&#45;&gt;1</title>
<path fill="none" stroke="grey" stroke-width="2" d="M295.84,-143.7C302.49,-135.39 310.58,-125.28 317.89,-116.14"/>
<polygon fill="grey" stroke="grey" stroke-width="2" points="320.8,-118.1 324.32,-108.1 315.34,-113.73 320.8,-118.1"/>
</g>
<!-- 11 -->
<g id="node12" class="node">
<title>11</title>
<path fill="none" stroke="#d8d356" stroke-width="2" d="M332.5,-252C332.5,-252 263.5,-252 263.5,-252 257.5,-252 251.5,-246 251.5,-240 251.5,-240 251.5,-228 251.5,-228 251.5,-222 257.5,-216 263.5,-216 263.5,-216 332.5,-216 332.5,-216 338.5,-216 344.5,-222 344.5,-228 344.5,-228 344.5,-240 344.5,-240 344.5,-246 338.5,-252 332.5,-252"/>
<text text-anchor="middle" x="298" y="-231.5" font-family="sans" font-size="10.00">merge_variants</text>
</g>
<!-- 11&#45;&gt;10 -->
<g id="edge19" class="edge">
<title>11&#45;&gt;10</title>
<path fill="none" stroke="grey" stroke-width="2" d="M294.04,-215.7C292.28,-207.98 290.16,-198.71 288.2,-190.11"/>
<polygon fill="grey" stroke="grey" stroke-width="2" points="291.55,-189.07 285.91,-180.1 284.73,-190.63 291.55,-189.07"/>
</g>
<!-- 12&#45;&gt;11 -->
<g id="edge20" class="edge">
<title>12&#45;&gt;11</title>
<path fill="none" stroke="grey" stroke-width="2" d="M304.02,-287.7C303.14,-279.98 302.08,-270.71 301.1,-262.11"/>
<polygon fill="grey" stroke="grey" stroke-width="2" points="304.57,-261.64 299.95,-252.1 297.61,-262.44 304.57,-261.64"/>
</g>
<!-- 13&#45;&gt;1 -->
<g id="edge5" class="edge">
<title>13&#45;&gt;1</title>
<path fill="none" stroke="grey" stroke-width="2" d="M380.91,-143.7C374.08,-135.3 365.74,-125.07 358.24,-115.86"/>
<polygon fill="grey" stroke="grey" stroke-width="2" points="360.96,-113.65 351.93,-108.1 355.53,-118.07 360.96,-113.65"/>
</g>
</g>
</svg>
